<svg width="86" height="85" viewBox="0 0 86 85" fill="none" xmlns="http://www.w3.org/2000/svg">
<path fill-rule="evenodd" clip-rule="evenodd" d="M86 10.6173H0V2.9943C0 1.3407 1.35528 0 3.02687 0H82.9731C84.6449 0 86 1.3407 86 2.9943V10.6173Z" fill="#1443BD"/>
<path fill-rule="evenodd" clip-rule="evenodd" d="M86 10.6173H0V2.9943C0 1.3407 1.35528 0 3.02687 0H82.9731C84.6449 0 86 1.3407 86 2.9943V10.6173Z" fill="black" fill-opacity="0.5"/>
<path fill-rule="evenodd" clip-rule="evenodd" d="M82.9731 84.9383H3.02687C1.35528 84.9383 0 83.578 0 81.8999V9.55554H86V81.8999C86 83.578 84.6449 84.9383 82.9731 84.9383Z" fill="#2A84C6"/>
<path fill-rule="evenodd" clip-rule="evenodd" d="M82.9731 84.9383H3.02687C1.35528 84.9383 0 83.578 0 81.8999V9.55554H86V81.8999C86 83.578 84.6449 84.9383 82.9731 84.9383Z" fill="white" fill-opacity="0.85"/>
<path fill-rule="evenodd" clip-rule="evenodd" d="M7.43197 4.77814C7.43197 5.65765 6.4812 6.37073 5.30837 6.37073C4.13569 6.37073 3.18506 5.65765 3.18506 4.77814C3.18506 3.89863 4.13569 3.18555 5.30837 3.18555C6.4812 3.18555 7.43197 3.89863 7.43197 4.77814Z" fill="#F56D7E"/>
<path fill-rule="evenodd" clip-rule="evenodd" d="M13.8024 4.77814C13.8024 5.65765 13.0894 6.37073 12.2097 6.37073C11.3302 6.37073 10.6172 5.65765 10.6172 4.77814C10.6172 3.89863 11.3302 3.18555 12.2097 3.18555C13.0894 3.18555 13.8024 3.89863 13.8024 4.77814Z" fill="#F1F380"/>
<path fill-rule="evenodd" clip-rule="evenodd" d="M21.2347 4.77814C21.2347 5.65765 20.284 6.37073 19.1112 6.37073C17.9385 6.37073 16.9878 5.65765 16.9878 4.77814C16.9878 3.89863 17.9385 3.18555 19.1112 3.18555C20.284 3.18555 21.2347 3.89863 21.2347 4.77814Z" fill="#B7EE81"/>
<path fill-rule="evenodd" clip-rule="evenodd" d="M9.43595 74.3214C8.91545 74.3214 8.49365 73.9013 8.49365 73.3831V18.9881C8.49365 18.4699 8.91545 18.0498 9.43595 18.0498H77.6254C78.1458 18.0498 78.5677 18.4699 78.5677 18.9881V73.3831C78.5677 73.9013 78.1458 74.3214 77.6254 74.3214H9.43595Z" fill="white"/>
<path d="M12.7407 66.8892L22.1505 53.6698L26.9898 60.9539L36.3995 43.6878L46.3469 53.6698L50.3797 39.641L52.7993 43.6878L55.219 39.641L59.2517 43.6878L64.3599 35.8641L68.6615 39.641L75.3827 33.9756" stroke="#0A215F" stroke-width="2" stroke-linecap="round"/>
</svg>
