<svg width="96" height="98" viewBox="0 0 96 98" fill="none" xmlns="http://www.w3.org/2000/svg">
<path d="M25.9594 19.3406V30.6951H11.2421L25.9594 19.3406Z" fill="#1443BD"/>
<path d="M25.9594 19.3406V30.6951H11.2421L25.9594 19.3406Z" fill="black" fill-opacity="0.2"/>
<path d="M69.9081 19.3406V30.6868L84.7044 30.6951L69.9081 19.3406Z" fill="#1443BD"/>
<path d="M69.9081 19.3406V30.6868L84.7044 30.6951L69.9081 19.3406Z" fill="black" fill-opacity="0.2"/>
<path d="M69.9087 19.3406L84.705 30.6951H11.2421L25.9594 19.3406H69.9087Z" fill="#B7EE81"/>
<path d="M69.9087 19.3406L84.705 30.6951H11.2421L25.9594 19.3406H69.9087Z" fill="white" fill-opacity="0.5"/>
<path d="M47.2301 45.6601C58.7343 45.6601 68.0602 36.3342 68.0602 24.83C68.0602 13.3259 58.7343 3.99994 47.2301 3.99994C35.726 3.99994 26.4 13.3259 26.4 24.83C26.4 36.3342 35.726 45.6601 47.2301 45.6601Z" fill="#1443BD"/>
<path d="M47.2301 45.6601C58.7343 45.6601 68.0602 36.3342 68.0602 24.83C68.0602 13.3259 58.7343 3.99994 47.2301 3.99994C35.726 3.99994 26.4 13.3259 26.4 24.83C26.4 36.3342 35.726 45.6601 47.2301 45.6601Z" fill="white" fill-opacity="0.65"/>
<path d="M46.9479 41.096C56.0871 41.096 63.4959 33.6872 63.4959 24.548C63.4959 15.4088 56.0871 8.00006 46.9479 8.00006C37.8087 8.00006 30.4 15.4088 30.4 24.548C30.4 33.6872 37.8087 41.096 46.9479 41.096Z" fill="#1443BD"/>
<path d="M46.9479 41.096C56.0871 41.096 63.4959 33.6872 63.4959 24.548C63.4959 15.4088 56.0871 8.00006 46.9479 8.00006C37.8087 8.00006 30.4 15.4088 30.4 24.548C30.4 33.6872 37.8087 41.096 46.9479 41.096Z" fill="white" fill-opacity="0.5"/>
<path d="M47.07 35.3081C46.5847 35.3081 46.1973 35.2707 45.908 35.1961V32.7041C44.9747 32.5734 44.1113 32.3494 43.318 32.0321C42.5247 31.7147 41.8853 31.3927 41.4 31.0661C41.4093 30.6647 41.5307 30.2354 41.764 29.7781C41.9973 29.3207 42.2587 28.9987 42.548 28.8121C43.1827 29.2227 43.9153 29.5867 44.746 29.9041C45.5767 30.2214 46.398 30.3847 47.21 30.3941C48.0033 30.3941 48.6567 30.2261 49.17 29.8901C49.6833 29.5447 49.9447 29.0594 49.954 28.4341C49.9633 27.9207 49.8093 27.4681 49.492 27.0761C49.1747 26.6747 48.666 26.3527 47.966 26.1101L45.25 25.1441C44.2327 24.7894 43.4207 24.2807 42.814 23.6181C42.2167 22.9461 41.918 22.1014 41.918 21.0841C41.918 19.9174 42.3053 18.9187 43.08 18.0881C43.864 17.2574 44.9 16.7487 46.188 16.5621V14.1121C46.3467 14.0747 46.5287 14.0467 46.734 14.0281C46.9487 14.0094 47.154 14.0001 47.35 14.0001C47.8073 14.0001 48.19 14.0374 48.498 14.1121V16.5761C49.282 16.6601 50.0053 16.8141 50.668 17.0381C51.34 17.2621 51.9373 17.5094 52.46 17.7801C52.46 18.1907 52.362 18.6061 52.166 19.0261C51.9793 19.4461 51.7367 19.7914 51.438 20.0621C50.7847 19.7074 50.1127 19.4274 49.422 19.2221C48.7407 19.0167 48.0687 18.9141 47.406 18.9141C46.6407 18.9141 46.0293 19.0821 45.572 19.4181C45.1147 19.7541 44.886 20.2067 44.886 20.7761C44.886 21.3174 45.0633 21.7281 45.418 22.0081C45.7727 22.2787 46.2393 22.5167 46.818 22.7221L49.394 23.6601C50.486 24.0521 51.354 24.6214 51.998 25.3681C52.642 26.1147 52.964 27.0807 52.964 28.2661C52.964 29.4607 52.5393 30.4687 51.69 31.2901C50.8407 32.1021 49.6833 32.5874 48.218 32.7461V35.1961C47.938 35.2707 47.5553 35.3081 47.07 35.3081Z" fill="white"/>
<path d="M11.4213 44.5586H84.6551V81.1398C84.6551 82.7192 83.4247 83.9996 81.907 83.9996H14.1694C12.6516 83.9996 11.4213 82.7192 11.4213 81.1398V44.5586Z" fill="#1443BD"/>
<path d="M11.3259 30.695L4.17964 47.0553C3.908 47.6456 3.94636 48.3397 4.28123 48.8937C4.61611 49.4478 5.20069 49.7843 5.82965 49.7852H90.1636C90.8064 49.7852 91.4021 49.4344 91.7333 48.8611C92.0646 48.2878 92.0829 47.5759 91.7816 46.985L84.783 30.695H11.3259Z" fill="#2A84C6"/>
<path d="M11.3259 30.695L4.17964 47.0553C3.908 47.6456 3.94636 48.3397 4.28123 48.8937C4.61611 49.4478 5.20069 49.7843 5.82965 49.7852H90.1636C90.8064 49.7852 91.4021 49.4344 91.7333 48.8611C92.0646 48.2878 92.0829 47.5759 91.7816 46.985L84.783 30.695H11.3259Z" fill="white" fill-opacity="0.85"/>
</svg>
