<svg width="120" height="113" viewBox="0 0 120 113" fill="none" xmlns="http://www.w3.org/2000/svg">
<g clip-path="url(#clip0_1102_187)">
<path d="M82.1471 25.5762L31.0474 56.0015C30.0392 56.6017 29.7086 57.9056 30.3088 58.9137L51.3821 94.3066C51.9823 95.3147 53.2862 95.6454 54.2943 95.0451L105.394 64.6199C106.402 64.0196 106.733 62.7158 106.133 61.7076L85.0593 26.3148C84.4591 25.3066 83.1552 24.976 82.1471 25.5762Z" fill="#2A84C6"/>
<path d="M82.1471 25.5762L31.0474 56.0015C30.0392 56.6017 29.7086 57.9056 30.3088 58.9137L51.3821 94.3066C51.9823 95.3147 53.2862 95.6454 54.2943 95.0451L105.394 64.6199C106.402 64.0196 106.733 62.7158 106.133 61.7076L85.0593 26.3148C84.4591 25.3066 83.1552 24.976 82.1471 25.5762Z" fill="white" fill-opacity="0.85"/>
<path d="M91.0567 36.4448L36.3582 69.0128L39.7294 74.6748L94.4279 42.1068L91.0567 36.4448Z" fill="white"/>
<path d="M40.7597 55.5479L36.0787 58.335C35.7427 58.5351 35.6325 58.9697 35.8326 59.3058L37.4231 61.9772C37.6232 62.3133 38.0579 62.4235 38.3939 62.2234L43.0749 59.4363C43.4109 59.2362 43.5212 58.8016 43.3211 58.4655L41.7305 55.7941C41.5304 55.4581 41.0958 55.3478 40.7597 55.5479Z" fill="#2A84C6"/>
<path d="M40.7597 55.5479L36.0787 58.335C35.7427 58.5351 35.6325 58.9697 35.8326 59.3058L37.4231 61.9772C37.6232 62.3133 38.0579 62.4235 38.3939 62.2234L43.0749 59.4363C43.4109 59.2362 43.5212 58.8016 43.3211 58.4655L41.7305 55.7941C41.5304 55.4581 41.0958 55.3478 40.7597 55.5479Z" fill="white" fill-opacity="0.85"/>
</g>
<g clip-path="url(#clip1_1102_187)">
<path d="M43.0863 13.8174L17.0432 67.2835C16.5294 68.3384 16.968 69.61 18.0228 70.1238L55.0547 88.1619C56.1095 88.6757 57.3811 88.2371 57.8949 87.1823L83.9381 33.7162C84.4519 32.6614 84.0133 31.3898 82.9585 30.876L45.9266 12.8378C44.8718 12.324 43.6002 12.7626 43.0863 13.8174Z" fill="#1443BD"/>
<path d="M43.0863 13.8174L17.0432 67.2835C16.5294 68.3384 16.968 69.61 18.0228 70.1238L55.0547 88.1619C56.1095 88.6757 57.3811 88.2371 57.8949 87.1823L83.9381 33.7162C84.4519 32.6614 84.0133 31.3898 82.9585 30.876L45.9266 12.8378C44.8718 12.324 43.6002 12.7626 43.0863 13.8174Z" fill="white" fill-opacity="0.5"/>
<path d="M74.6919 40.1415C75.0955 39.3129 74.0049 37.9506 72.2559 37.0987C70.507 36.2468 68.762 36.2279 68.3584 37.0565C67.9548 37.885 69.0455 39.2473 70.7944 40.0992C72.5433 40.9511 74.2883 40.97 74.6919 40.1415Z" fill="white"/>
<path d="M56.4967 18.0196L28.6193 75.2512L34.5435 78.1368L62.4209 20.9052L56.4967 18.0196Z" fill="white"/>
<path d="M52.3176 57.2412L42.9701 76.4315C42.7988 76.7831 42.945 77.207 43.2966 77.3783L44.0697 77.7549C44.4213 77.9261 44.8452 77.7799 45.0165 77.4283L54.364 58.238C54.5353 57.8864 54.3891 57.4625 54.0375 57.2912L53.2644 56.9147C52.9128 56.7434 52.4889 56.8896 52.3176 57.2412Z" fill="white"/>
<path d="M54.5007 68.3526L49.1091 79.4215C48.9379 79.7731 49.084 80.1969 49.4357 80.3682L50.2087 80.7448C50.5603 80.916 50.9842 80.7698 51.1555 80.4182L56.5471 69.3494C56.7183 68.9978 56.5721 68.5739 56.2205 68.4027L55.4475 68.0261C55.0959 67.8548 54.672 68.001 54.5007 68.3526Z" fill="white"/>
<path d="M24.9164 61.5778L22.5308 66.4756C22.3595 66.8272 22.5057 67.2511 22.8573 67.4224L25.6524 68.7838C26.004 68.9551 26.4279 68.8089 26.5992 68.4573L28.9849 63.5595C29.1561 63.2079 29.0099 62.7841 28.6583 62.6128L25.8632 61.2513C25.5116 61.08 25.0877 61.2262 24.9164 61.5778Z" fill="#1443BD"/>
<path d="M24.9164 61.5778L22.5308 66.4756C22.3595 66.8272 22.5057 67.2511 22.8573 67.4224L25.6524 68.7838C26.004 68.9551 26.4279 68.8089 26.5992 68.4573L28.9849 63.5595C29.1561 63.2079 29.0099 62.7841 28.6583 62.6128L25.8632 61.2513C25.5116 61.08 25.0877 61.2262 24.9164 61.5778Z" fill="white" fill-opacity="0.5"/>
<path d="M70.7944 40.1003C69.5663 39.5036 68.6718 38.386 68.3588 37.0569C66.1802 38.0586 65.1521 40.5785 66.0082 42.8183C66.8643 45.0582 69.311 46.25 71.6023 45.5433C73.8937 44.8365 75.244 42.4736 74.6897 40.1407C73.4512 40.7131 72.0209 40.6983 70.7944 40.1003Z" fill="#2A84C6"/>
<path d="M70.7944 40.1003C69.5663 39.5036 68.6718 38.386 68.3588 37.0569C66.1802 38.0586 65.1521 40.5785 66.0082 42.8183C66.8643 45.0582 69.311 46.25 71.6023 45.5433C73.8937 44.8365 75.244 42.4736 74.6897 40.1407C73.4512 40.7131 72.0209 40.6983 70.7944 40.1003Z" fill="white" fill-opacity="0.5"/>
<path d="M68.6956 34.0136C68.2338 34.9582 68.1149 36.0339 68.3591 37.0565C69.5985 36.4866 71.0281 36.5026 72.2544 37.0999C73.4808 37.6973 74.3747 38.8131 74.69 40.1403C76.5127 39.3033 77.5729 37.3721 77.3005 35.385C77.0281 33.3979 75.4874 31.8232 73.5067 31.5075C71.526 31.1919 69.5721 32.2096 68.6956 34.0136Z" fill="#B7EE81"/>
<path d="M68.6956 34.0136C68.2338 34.9582 68.1149 36.0339 68.3591 37.0565C69.5985 36.4866 71.0281 36.5026 72.2544 37.0999C73.4808 37.6973 74.3747 38.8131 74.69 40.1403C76.5127 39.3033 77.5729 37.3721 77.3005 35.385C77.0281 33.3979 75.4874 31.8232 73.5067 31.5075C71.526 31.1919 69.5721 32.2096 68.6956 34.0136Z" fill="white" fill-opacity="0.2"/>
</g>
<path fill-rule="evenodd" clip-rule="evenodd" d="M37.034 46.5687C37.034 46.5687 34.262 50.8487 29.8757 53.1452C25.4894 55.4417 20.0855 54.7807 16.5415 52.5538C12.9972 50.3267 11.8043 48.4477 11.8043 48.4477L8.75139 50.1874C8.75139 50.1874 8.11975 50.5007 8.11975 49.7699V38.8438C8.11975 38.8438 8.11975 37.8696 8.85657 38.2175C9.47656 38.5103 16.1811 42.3247 18.2938 43.5282C19.454 44.046 18.4347 44.4664 18.4347 44.4664L15.4888 46.1512C15.4888 46.1512 17.1692 48.2567 19.6285 49.3719C22.261 50.7442 24.7256 50.907 27.7447 49.7666C29.6555 49.0449 31.8951 47.2303 33.5514 44.5527C33.634 44.4192 33.8119 44.3826 33.9417 44.4707L37.034 46.5687ZM9.66383 32.1286C9.66383 32.1286 12.4358 27.8487 16.8221 25.5521C21.2083 23.2556 26.6123 23.9167 30.1563 26.1436C33.7004 28.3706 34.8935 30.2496 34.8935 30.2496L37.9463 28.5098C37.9463 28.5098 38.5781 28.1967 38.5781 28.9274V39.8535C38.5781 39.8535 38.5781 40.8278 37.841 40.4798C37.221 40.1872 30.5167 36.3726 28.404 35.1692C27.2439 34.6515 28.2631 34.2308 28.2631 34.2308L31.209 32.5461C31.209 32.5461 29.5287 30.4406 27.0693 29.3254C24.4367 27.9531 21.9721 27.7903 18.953 28.9307C16.9844 29.6742 14.6666 31.5781 12.9972 34.3903L9.66383 32.1286Z" fill="#1443BD"/>
<defs>
<clipPath id="clip0_1102_187">
<rect width="75.5366" height="75.5366" fill="white" transform="translate(16.4529 47.1776) rotate(-30.77)"/>
</clipPath>
<clipPath id="clip1_1102_187">
<rect width="75.5366" height="75.5366" fill="white" transform="translate(0 67.9089) rotate(-64.0294)"/>
</clipPath>
</defs>
</svg>
