<svg width="96" height="90" viewBox="0 0 96 90" fill="none" xmlns="http://www.w3.org/2000/svg">
<g clip-path="url(#clip0_1058_2181)">
<path d="M86.5621 32.6799H0.0647812V70.102H86.5621V32.6799Z" fill="#1443BD"/>
<path d="M86.5621 32.6799H0.0647812V70.102H86.5621V32.6799Z" fill="black" fill-opacity="0.35"/>
<path d="M40.0295 0.856837L0.103607 32.6764L84.2968 34.8651C84.4778 34.8647 84.6581 34.8444 84.8347 34.8045C85.8911 34.5383 86.6279 33.7698 86.616 32.6764L45.4172 0.752613C43.7796 -0.317821 41.6671 -0.213596 40.0295 0.856837Z" fill="#1443BD"/>
<path d="M40.0295 0.856837L0.103607 32.6764L84.2968 34.8651C84.4778 34.8647 84.6581 34.8444 84.8347 34.8045C85.8911 34.5383 86.6279 33.7698 86.616 32.6764L45.4172 0.752613C43.7796 -0.317821 41.6671 -0.213596 40.0295 0.856837Z" fill="black" fill-opacity="0.35"/>
<path fill-rule="evenodd" clip-rule="evenodd" d="M24.4237 34.3331L32.2469 27.2829L37.5569 36.5128L24.4237 34.3331Z" fill="#FFD666"/>
<path fill-rule="evenodd" clip-rule="evenodd" d="M62.489 40.6505L57.3293 31.4456L49.7728 38.54L62.489 40.6505Z" fill="#FFA940"/>
<path fill-rule="evenodd" clip-rule="evenodd" d="M24.4237 34.3331L39.689 60.2772L37.5629 36.5138L24.4237 34.3331Z" fill="#FFC53D"/>
<path fill-rule="evenodd" clip-rule="evenodd" d="M62.4057 40.637L39.689 60.2771L49.7347 38.5339L62.4057 40.637Z" fill="#FA8C16"/>
<path fill-rule="evenodd" clip-rule="evenodd" d="M32.1805 27.2719L44.8133 29.3686L37.1608 36.4471L32.1805 27.2719Z" fill="#FFC53D"/>
<path fill-rule="evenodd" clip-rule="evenodd" d="M44.7299 29.3547L57.3628 31.4514L49.7561 38.5375L44.7299 29.3547Z" fill="#FFC53D"/>
<path fill-rule="evenodd" clip-rule="evenodd" d="M37.1418 36.4326L44.7845 29.3638L49.7747 38.5293L48.6473 40.8494L37.4957 38.8902L37.1418 36.4326Z" fill="#FFA940"/>
<path fill-rule="evenodd" clip-rule="evenodd" d="M37.1817 36.4505L39.6995 60.2788L49.7729 38.5403L37.1817 36.4505Z" fill="#FAAD14"/>
<g clip-path="url(#clip1_1058_2181)">
<path d="M36.9778 74.5001C45.2381 78.261 54.9862 74.5426 58.751 66.1949C62.5157 57.8473 58.8713 48.0314 50.611 44.2706C42.3507 40.5098 32.6025 44.2282 28.8378 52.5758C25.0731 60.9235 28.7175 70.7393 36.9778 74.5001Z" fill="#FFD666"/>
<path d="M38.1765 71.335C44.8869 74.3903 52.7919 71.4012 55.8327 64.6588C58.8734 57.9164 55.8985 49.9739 49.188 46.9187C42.4775 43.8635 34.5726 46.8525 31.5318 53.5949C28.4911 60.3373 31.466 68.2798 38.1765 71.335Z" fill="#FFC53D"/>
<path d="M40.1918 67.1064C39.8355 66.9442 39.5635 66.7871 39.3759 66.6353L40.205 64.7969C39.5632 64.3885 39.0038 63.9346 38.5269 63.4353C38.05 62.936 37.6877 62.4847 37.44 62.0814C37.5804 61.7885 37.8123 61.5123 38.1358 61.2529C38.4593 60.9935 38.7583 60.8433 39.0329 60.8023C39.3622 61.3175 39.7791 61.8309 40.2834 62.3427C40.7878 62.8545 41.3365 63.2496 41.9296 63.5279C42.5121 63.7932 43.0477 63.8876 43.5364 63.8113C44.0282 63.7282 44.3816 63.4575 44.5965 62.9993C44.7741 62.6237 44.8117 62.2383 44.7091 61.843C44.6096 61.4408 44.3433 61.0332 43.91 60.6202L42.2372 58.9996C41.6082 58.3978 41.1813 57.7511 40.9563 57.0594C40.7413 56.364 40.803 55.641 41.1415 54.8904C41.5297 54.0297 42.1463 53.4225 42.9915 53.0686C43.8436 52.7179 44.7735 52.6889 45.7813 52.9818L46.5965 51.1743C46.7254 51.1998 46.8683 51.24 47.0253 51.2949C47.1891 51.3529 47.343 51.4146 47.4869 51.4802C47.8227 51.633 48.0913 51.7885 48.2926 51.9466L47.4728 53.7644C48.0205 54.0884 48.5004 54.4438 48.9124 54.8306C49.3313 55.2205 49.6876 55.6027 49.9813 55.9771C49.8447 56.2801 49.6345 56.5537 49.3509 56.798C49.0741 57.0455 48.781 57.2191 48.4716 57.319C48.1099 56.8389 47.7097 56.4077 47.2709 56.0253C46.8389 55.6461 46.3796 55.3457 45.8931 55.1242C45.3311 54.8683 44.8264 54.7879 44.3788 54.8829C43.9312 54.9779 43.6127 55.2354 43.4232 55.6554C43.2431 56.0548 43.2367 56.417 43.404 56.7422C43.5743 57.0604 43.8378 57.392 44.1944 57.7369L45.7737 59.2901C46.4451 59.9443 46.893 60.6545 47.1174 61.4207C47.3419 62.1868 47.2569 63.0071 46.8625 63.8816C46.465 64.7629 45.8178 65.3646 44.9209 65.6866C44.0271 66.0017 43.0159 65.9729 41.8872 65.6001L41.072 67.4076C40.8416 67.369 40.5482 67.2687 40.1918 67.1064Z" fill="white"/>
</g>
<g clip-path="url(#clip2_1058_2181)">
<path d="M57.9736 57.3626C62.822 59.57 68.5438 57.3875 70.7535 52.4878C72.9633 47.5881 70.8242 41.8266 65.9757 39.6191C61.1273 37.4117 55.4055 39.5942 53.1958 44.4939C50.986 49.3937 53.1251 55.1552 57.9736 57.3626Z" fill="#FFD666"/>
<path d="M58.6773 55.5052C62.616 57.2985 67.2559 55.544 69.0407 51.5865C70.8255 47.629 69.0794 42.9671 65.1406 41.1738C61.2018 39.3805 56.5619 41.1349 54.7771 45.0925C52.9923 49.05 54.7385 53.7119 58.6773 55.5052Z" fill="#FFC53D"/>
<path d="M59.8603 53.0231C59.6511 52.9278 59.4915 52.8357 59.3813 52.7466L59.868 51.6675C59.4913 51.4277 59.163 51.1613 58.883 50.8683C58.6031 50.5752 58.3904 50.3103 58.2451 50.0736C58.3275 49.9017 58.4636 49.7395 58.6535 49.5873C58.8433 49.435 59.0188 49.3469 59.18 49.3228C59.3733 49.6252 59.618 49.9266 59.914 50.227C60.2101 50.5274 60.5321 50.7593 60.8803 50.9226C61.2222 51.0783 61.5365 51.1338 61.8234 51.089C62.1121 51.0402 62.3195 50.8813 62.4456 50.6123C62.5499 50.3919 62.5719 50.1656 62.5117 49.9336C62.4533 49.6976 62.297 49.4583 62.0427 49.2159L61.0608 48.2647C60.6916 47.9115 60.441 47.5319 60.309 47.1259C60.1828 46.7177 60.219 46.2933 60.4177 45.8528C60.6455 45.3476 61.0075 44.9911 61.5036 44.7834C62.0037 44.5776 62.5495 44.5606 63.1411 44.7325L63.6195 43.6716C63.6952 43.6866 63.7791 43.7101 63.8712 43.7423C63.9674 43.7764 64.0577 43.8126 64.1422 43.8511C64.3393 43.9408 64.4969 44.0321 64.6151 44.1249L64.1339 45.1918C64.4554 45.382 64.737 45.5907 64.9789 45.8177C65.2247 46.0465 65.4339 46.2708 65.6063 46.4906C65.5261 46.6684 65.4027 46.8291 65.2362 46.9725C65.0738 47.1177 64.9017 47.2196 64.7202 47.2782C64.5079 46.9965 64.2729 46.7434 64.0154 46.5189C63.7618 46.2963 63.4923 46.12 63.2067 45.99C62.8768 45.8398 62.5805 45.7926 62.3178 45.8484C62.0551 45.9041 61.8682 46.0553 61.757 46.3018C61.6513 46.5362 61.6475 46.7488 61.7457 46.9397C61.8457 47.1265 62.0003 47.3211 62.2096 47.5236L63.1366 48.4352C63.5307 48.8192 63.7936 49.2361 63.9253 49.6858C64.057 50.1354 64.0072 50.6169 63.7757 51.1302C63.5424 51.6475 63.1625 52.0007 62.6361 52.1897C62.1114 52.3747 61.5179 52.3577 60.8554 52.1389L60.3769 53.1998C60.2416 53.1772 60.0694 53.1183 59.8603 53.0231Z" fill="white"/>
</g>
<g clip-path="url(#clip3_1058_2181)">
<path d="M26.1384 57.0149C31.3597 55.9747 34.7483 50.8539 33.707 45.5773C32.6657 40.3008 27.5889 36.8665 22.3675 37.9068C17.1462 38.947 13.7576 44.0677 14.7989 49.3443C15.8402 54.6208 20.917 58.0551 26.1384 57.0149Z" fill="#FFD666"/>
<path d="M25.6344 55.0932C29.8762 54.2481 32.6329 50.1081 31.7919 45.8463C30.9508 41.5844 26.8304 38.8145 22.5887 39.6595C18.347 40.5046 15.5902 44.6446 16.4313 48.9064C17.2723 53.1683 21.3927 55.9382 25.6344 55.0932Z" fill="#FFC53D"/>
<path d="M25.1584 52.3822C24.9331 52.4271 24.7499 52.4455 24.6088 52.4374L24.3794 51.2753C23.9342 51.3007 23.5129 51.276 23.1155 51.2014C22.7181 51.1268 22.3918 51.0357 22.1364 50.9283C22.1038 50.7403 22.1206 50.5288 22.1869 50.294C22.2531 50.0592 22.3447 49.8848 22.4618 49.771C22.7942 49.9039 23.1677 50.0059 23.5825 50.077C23.9972 50.1482 24.3934 50.1484 24.7712 50.0777C25.1394 50.0043 25.4271 49.8656 25.6345 49.6614C25.8409 49.4529 25.9176 49.2024 25.8643 48.91C25.8214 48.6697 25.7083 48.4729 25.5249 48.3194C25.3407 48.1616 25.075 48.0585 24.7278 48.01L23.3783 47.8107C22.8735 47.7394 22.4499 47.5772 22.1073 47.3243C21.7682 47.0662 21.5519 46.6999 21.4583 46.2255C21.3509 45.6814 21.4388 45.1799 21.7218 44.7209C22.0093 44.2611 22.4433 43.9281 23.0239 43.7219L22.7984 42.5794C22.8686 42.5473 22.9505 42.5175 23.0441 42.4898C23.142 42.4612 23.2365 42.4379 23.3274 42.4197C23.5397 42.3775 23.7207 42.3595 23.8706 42.3658L24.0973 43.5149C24.4689 43.4815 24.8188 43.4865 25.147 43.5297C25.4795 43.572 25.7795 43.6321 26.047 43.71C26.0848 43.9015 26.0775 44.1042 26.0252 44.3182C25.9772 44.5313 25.8964 44.7148 25.7826 44.8686C25.4468 44.7637 25.1091 44.6952 24.7697 44.6633C24.4346 44.6306 24.1132 44.6448 23.8057 44.7061C23.4504 44.7769 23.1822 44.9117 23.0008 45.1107C22.8195 45.3097 22.755 45.5419 22.8074 45.8074C22.8572 46.0599 22.9773 46.235 23.1677 46.3328C23.3572 46.4262 23.5957 46.494 23.8832 46.5363L25.1651 46.7355C25.708 46.8173 26.1632 47.0026 26.5308 47.2912C26.8985 47.5799 27.1368 48.0006 27.2459 48.5533C27.3558 49.1104 27.2515 49.6197 26.9329 50.0813C26.6134 50.5385 26.1209 50.8718 25.4554 51.0813L25.6809 52.2238C25.5578 52.2845 25.3837 52.3373 25.1584 52.3822Z" fill="white"/>
</g>
<path d="M45.6364 65.9424C44.2077 66.4219 42.6393 66.2193 41.3778 65.3923L0 32.6768V87.7906C0 89.0111 1.1966 90.0004 2.47595 90.0004H84.2956C85.5771 90.0004 86.6161 89.0111 86.6161 87.7906V32.6768L47.1031 65.1309C46.6651 65.4853 46.1687 65.76 45.6364 65.9424Z" fill="#2A84C6"/>
<path d="M45.6364 65.9424C44.2077 66.4219 42.6393 66.2193 41.3778 65.3923L0 32.6768V87.7906C0 89.0111 1.1966 90.0004 2.47595 90.0004H84.2956C85.5771 90.0004 86.6161 89.0111 86.6161 87.7906V32.6768L47.1031 65.1309C46.6651 65.4853 46.1687 65.76 45.6364 65.9424Z" fill="white" fill-opacity="0.85"/>
<path fill-rule="evenodd" clip-rule="evenodd" d="M45.6364 65.9424C44.2077 66.4219 42.6393 66.2193 41.3778 65.3923L41.0471 65.1309L0 87.7906C0 89.0111 1.1966 90.0004 2.47595 90.0004H84.2956C85.5771 90.0004 86.6161 89.0111 86.6161 87.7906L47.1031 65.1309C46.6651 65.4853 46.1687 65.76 45.6364 65.9424Z" fill="#1443BD"/>
<path fill-rule="evenodd" clip-rule="evenodd" d="M45.6364 65.9424C44.2077 66.4219 42.6393 66.2193 41.3778 65.3923L41.0471 65.1309L0 87.7906C0 89.0111 1.1966 90.0004 2.47595 90.0004H84.2956C85.5771 90.0004 86.6161 89.0111 86.6161 87.7906L47.1031 65.1309C46.6651 65.4853 46.1687 65.76 45.6364 65.9424Z" fill="white" fill-opacity="0.85"/>
<g clip-path="url(#clip4_1058_2181)" filter="url(#filter0_ddddd_1058_2181)">
<path fill-rule="evenodd" clip-rule="evenodd" d="M55.8997 34.147L55.6117 32.253L54.3523 30.8145L54.3522 30.8144L56.2373 30.525L57.6691 29.2595L57.9572 31.1535L59.2167 32.5922L59.2166 32.5923L57.3316 32.8816L55.8998 34.1471L55.8997 34.1471L55.8997 34.147Z" fill="white"/>
</g>
<g filter="url(#filter1_ddddd_1058_2181)">
<ellipse cx="86.4582" cy="69.2426" rx="9.54181" ry="9.58717" fill="white"/>
<path d="M90.513 65.177C90.2699 64.9264 89.9102 64.833 89.5748 64.9313L81.753 67.2167C81.3991 67.3154 81.1483 67.599 81.0807 67.9593C81.0117 68.3259 81.2528 68.7913 81.5678 68.986L84.0135 70.4963C84.2643 70.6511 84.5881 70.6123 84.7957 70.4019L87.5962 67.5705C87.7372 67.4231 87.9705 67.4231 88.1115 67.5705C88.2525 67.713 88.2525 67.944 88.1115 68.0915L85.3061 70.9234C85.098 71.1332 85.0591 71.4601 85.2123 71.7137L86.7066 74.1956C86.8816 74.4905 87.183 74.6576 87.5136 74.6576C87.5525 74.6576 87.5962 74.6576 87.6351 74.6527C88.0143 74.6035 88.3157 74.3431 88.4275 73.9744L90.7463 66.1256C90.8484 65.7914 90.756 65.4277 90.513 65.177Z" fill="#1443BD"/>
</g>
</g>
<defs>
<filter id="filter0_ddddd_1058_2181" x="-17.5043" y="-2.6059" width="148.578" height="148.618" filterUnits="userSpaceOnUse" color-interpolation-filters="sRGB">
<feFlood flood-opacity="0" result="BackgroundImageFix"/>
<feColorMatrix in="SourceAlpha" type="matrix" values="0 0 0 0 0 0 0 0 0 0 0 0 0 0 0 0 0 0 127 0" result="hardAlpha"/>
<feOffset dy="6"/>
<feGaussianBlur stdDeviation="4"/>
<feColorMatrix type="matrix" values="0 0 0 0 0.705882 0 0 0 0 0.831373 0 0 0 0 0.921569 0 0 0 0.12 0"/>
<feBlend mode="normal" in2="BackgroundImageFix" result="effect1_dropShadow_1058_2181"/>
<feColorMatrix in="SourceAlpha" type="matrix" values="0 0 0 0 0 0 0 0 0 0 0 0 0 0 0 0 0 0 127 0" result="hardAlpha"/>
<feOffset dy="8"/>
<feGaussianBlur stdDeviation="12"/>
<feColorMatrix type="matrix" values="0 0 0 0 0.705882 0 0 0 0 0.831373 0 0 0 0 0.921569 0 0 0 0.08 0"/>
<feBlend mode="normal" in2="effect1_dropShadow_1058_2181" result="effect2_dropShadow_1058_2181"/>
<feColorMatrix in="SourceAlpha" type="matrix" values="0 0 0 0 0 0 0 0 0 0 0 0 0 0 0 0 0 0 127 0" result="hardAlpha"/>
<feOffset dy="16"/>
<feGaussianBlur stdDeviation="18"/>
<feColorMatrix type="matrix" values="0 0 0 0 0.705882 0 0 0 0 0.831373 0 0 0 0 0.921569 0 0 0 0.04 0"/>
<feBlend mode="normal" in2="effect2_dropShadow_1058_2181" result="effect3_dropShadow_1058_2181"/>
<feColorMatrix in="SourceAlpha" type="matrix" values="0 0 0 0 0 0 0 0 0 0 0 0 0 0 0 0 0 0 127 0" result="hardAlpha"/>
<feOffset dy="40"/>
<feGaussianBlur stdDeviation="35"/>
<feColorMatrix type="matrix" values="0 0 0 0 0.705882 0 0 0 0 0.831373 0 0 0 0 0.921569 0 0 0 0.04 0"/>
<feBlend mode="normal" in2="effect3_dropShadow_1058_2181" result="effect4_dropShadow_1058_2181"/>
<feColorMatrix in="SourceAlpha" type="matrix" values="0 0 0 0 0 0 0 0 0 0 0 0 0 0 0 0 0 0 127 0" result="hardAlpha"/>
<feOffset dy="2"/>
<feGaussianBlur stdDeviation="2"/>
<feColorMatrix type="matrix" values="0 0 0 0 0.87451 0 0 0 0 0.929412 0 0 0 0 0.964706 0 0 0 0.4 0"/>
<feBlend mode="normal" in2="effect4_dropShadow_1058_2181" result="effect5_dropShadow_1058_2181"/>
<feBlend mode="normal" in="SourceGraphic" in2="effect5_dropShadow_1058_2181" result="shape"/>
</filter>
<filter id="filter1_ddddd_1058_2181" x="6.91638" y="29.6554" width="159.084" height="159.174" filterUnits="userSpaceOnUse" color-interpolation-filters="sRGB">
<feFlood flood-opacity="0" result="BackgroundImageFix"/>
<feColorMatrix in="SourceAlpha" type="matrix" values="0 0 0 0 0 0 0 0 0 0 0 0 0 0 0 0 0 0 127 0" result="hardAlpha"/>
<feOffset dy="6"/>
<feGaussianBlur stdDeviation="4"/>
<feColorMatrix type="matrix" values="0 0 0 0 0.0392157 0 0 0 0 0.129412 0 0 0 0 0.372549 0 0 0 0.12 0"/>
<feBlend mode="normal" in2="BackgroundImageFix" result="effect1_dropShadow_1058_2181"/>
<feColorMatrix in="SourceAlpha" type="matrix" values="0 0 0 0 0 0 0 0 0 0 0 0 0 0 0 0 0 0 127 0" result="hardAlpha"/>
<feOffset dy="8"/>
<feGaussianBlur stdDeviation="12"/>
<feColorMatrix type="matrix" values="0 0 0 0 0.0392157 0 0 0 0 0.129412 0 0 0 0 0.372549 0 0 0 0.08 0"/>
<feBlend mode="normal" in2="effect1_dropShadow_1058_2181" result="effect2_dropShadow_1058_2181"/>
<feColorMatrix in="SourceAlpha" type="matrix" values="0 0 0 0 0 0 0 0 0 0 0 0 0 0 0 0 0 0 127 0" result="hardAlpha"/>
<feOffset dy="16"/>
<feGaussianBlur stdDeviation="18"/>
<feColorMatrix type="matrix" values="0 0 0 0 0.0392157 0 0 0 0 0.129412 0 0 0 0 0.372549 0 0 0 0.04 0"/>
<feBlend mode="normal" in2="effect2_dropShadow_1058_2181" result="effect3_dropShadow_1058_2181"/>
<feColorMatrix in="SourceAlpha" type="matrix" values="0 0 0 0 0 0 0 0 0 0 0 0 0 0 0 0 0 0 127 0" result="hardAlpha"/>
<feOffset dy="40"/>
<feGaussianBlur stdDeviation="35"/>
<feColorMatrix type="matrix" values="0 0 0 0 0.0392157 0 0 0 0 0.129412 0 0 0 0 0.372549 0 0 0 0.04 0"/>
<feBlend mode="normal" in2="effect3_dropShadow_1058_2181" result="effect4_dropShadow_1058_2181"/>
<feColorMatrix in="SourceAlpha" type="matrix" values="0 0 0 0 0 0 0 0 0 0 0 0 0 0 0 0 0 0 127 0" result="hardAlpha"/>
<feOffset dy="2"/>
<feGaussianBlur stdDeviation="2"/>
<feColorMatrix type="matrix" values="0 0 0 0 0.537255 0 0 0 0 0.631373 0 0 0 0 0.870588 0 0 0 0.4 0"/>
<feBlend mode="normal" in2="effect4_dropShadow_1058_2181" result="effect5_dropShadow_1058_2181"/>
<feBlend mode="normal" in="SourceGraphic" in2="effect5_dropShadow_1058_2181" result="shape"/>
</filter>
<clipPath id="clip0_1058_2181">
<rect width="96" height="90" fill="white"/>
</clipPath>
<clipPath id="clip1_1058_2181">
<rect width="38.7251" height="38.8464" fill="white" transform="matrix(0.910111 0.414364 -0.411116 0.911583 33.825 32.8105)"/>
</clipPath>
<clipPath id="clip2_1058_2181">
<rect width="22.7301" height="22.8012" fill="white" transform="matrix(0.910111 0.414364 -0.411116 0.911583 56.123 32.8926)"/>
</clipPath>
<clipPath id="clip3_1058_2181">
<rect width="22.7157" height="22.8155" fill="white" transform="matrix(0.980727 -0.195384 0.193609 0.981079 10.459 38.1984)"/>
</clipPath>
<clipPath id="clip4_1058_2181">
<rect width="6.69669" height="6.72108" fill="white" transform="matrix(0.939241 0.343259 0.340394 -0.940283 52.4957 33.7138)"/>
</clipPath>
</defs>
</svg>
