<svg width="185" height="180" viewBox="0 0 185 180" fill="none" xmlns="http://www.w3.org/2000/svg">
<path fill-rule="evenodd" clip-rule="evenodd" d="M70.6264 13.2928C49.0005 3.34009 36.1114 29.4424 46.9875 43.9758C60.2599 61.711 67.0587 82.1178 70.8448 88.2661C74.0386 93.4528 82.7874 106.098 93.3224 100.269C103.018 94.9056 97.7335 73.8541 97.7335 73.8541C97.7335 73.8541 97.3053 25.5708 70.6264 13.2928Z" fill="#B7EE81"/>
<path fill-rule="evenodd" clip-rule="evenodd" d="M70.6264 13.2928C49.0005 3.34009 36.1114 29.4424 46.9875 43.9758C60.2599 61.711 67.0587 82.1178 70.8448 88.2661C74.0386 93.4528 82.7874 106.098 93.3224 100.269C103.018 94.9056 97.7335 73.8541 97.7335 73.8541C97.7335 73.8541 97.3053 25.5708 70.6264 13.2928Z" fill="white" fill-opacity="0.2"/>
<path fill-rule="evenodd" clip-rule="evenodd" d="M58.3803 96.9478C66.6959 106.429 78.6957 125.503 86.2134 118.823C90.7695 114.774 84.6785 95.6019 68.0057 85.1704C53.8235 76.2972 50.0645 87.4663 58.3803 96.9478Z" fill="#B7EE81"/>
<path fill-rule="evenodd" clip-rule="evenodd" d="M58.3803 96.9478C66.6959 106.429 78.6957 125.503 86.2134 118.823C90.7695 114.774 84.6785 95.6019 68.0057 85.1704C53.8235 76.2972 50.0645 87.4663 58.3803 96.9478Z" fill="white" fill-opacity="0.2"/>
<path fill-rule="evenodd" clip-rule="evenodd" d="M135.674 96.2167C143.026 86.5657 145.71 72.7158 137.504 69.1643C129.636 65.7594 116.603 74.1431 110.567 90.2784C104.53 106.413 101.047 118.014 106.952 120.031C116.64 123.34 125.963 108.964 135.674 96.2167Z" fill="#B7EE81"/>
<path fill-rule="evenodd" clip-rule="evenodd" d="M135.674 96.2167C143.026 86.5657 145.71 72.7158 137.504 69.1643C129.636 65.7594 116.603 74.1431 110.567 90.2784C104.53 106.413 101.047 118.014 106.952 120.031C116.64 123.34 125.963 108.964 135.674 96.2167Z" fill="white" fill-opacity="0.2"/>
<path fill-rule="evenodd" clip-rule="evenodd" d="M137.953 31.1511C134.791 29.0811 130.813 28.6083 127.183 29.7395C122.117 31.3182 114.43 36.0187 106.821 49.5107C96.8879 67.1258 91.7168 86.4369 92.739 98.6692C93.4072 106.669 103.536 110.117 109.203 104.285C111.805 101.606 114.559 97.4767 117.253 91.2125C128.095 66.0039 138.231 50.207 139.44 48.6208C142.665 44.3883 144.971 35.7456 137.953 31.1511Z" fill="#B7EE81"/>
<path fill-rule="evenodd" clip-rule="evenodd" d="M137.953 31.1511C134.791 29.0811 130.813 28.6083 127.183 29.7395C122.117 31.3182 114.43 36.0187 106.821 49.5107C96.8879 67.1258 91.7168 86.4369 92.739 98.6692C93.4072 106.669 103.536 110.117 109.203 104.285C111.805 101.606 114.559 97.4767 117.253 91.2125C128.095 66.0039 138.231 50.207 139.44 48.6208C142.665 44.3883 144.971 35.7456 137.953 31.1511Z" fill="black" fill-opacity="0.2"/>
<path d="M116.878 98.9703C116.762 98.8631 116.579 98.8673 116.469 98.9797L116.367 99.0873L116.3 99.1592C116.165 99.3055 116.009 99.4806 115.834 99.6842C115.334 100.264 114.777 100.958 114.179 101.765C112.47 104.066 110.763 106.813 109.17 110.002C104.621 119.106 101.892 129.921 101.892 142.41C101.892 142.565 102.021 142.691 102.181 142.691C102.34 142.691 102.47 142.565 102.47 142.41C102.47 130.009 105.178 119.277 109.689 110.248C111.268 107.089 112.958 104.37 114.647 102.094C115.203 101.345 115.721 100.696 116.19 100.147L116.277 100.046C116.429 99.8689 116.566 99.7146 116.686 99.5829L116.794 99.466L116.887 99.3679C116.998 99.2555 116.993 99.0775 116.878 98.9703Z" fill="#2A84C6"/>
<path d="M116.878 98.9703C116.762 98.8631 116.579 98.8673 116.469 98.9797L116.367 99.0873L116.3 99.1592C116.165 99.3055 116.009 99.4806 115.834 99.6842C115.334 100.264 114.777 100.958 114.179 101.765C112.47 104.066 110.763 106.813 109.17 110.002C104.621 119.106 101.892 129.921 101.892 142.41C101.892 142.565 102.021 142.691 102.181 142.691C102.34 142.691 102.47 142.565 102.47 142.41C102.47 130.009 105.178 119.277 109.689 110.248C111.268 107.089 112.958 104.37 114.647 102.094C115.203 101.345 115.721 100.696 116.19 100.147L116.277 100.046C116.429 99.8689 116.566 99.7146 116.686 99.5829L116.794 99.466L116.887 99.3679C116.998 99.2555 116.993 99.0775 116.878 98.9703Z" fill="black" fill-opacity="0.35"/>
<path d="M75.9022 102.631C75.8067 102.506 75.6256 102.481 75.4976 102.573C75.3697 102.666 75.3434 102.843 75.439 102.967C77.42 105.549 79.2478 108.324 80.9284 111.265C84.4797 117.48 87.2245 124.141 89.2617 130.802C89.9748 133.134 90.5483 135.299 90.9949 137.241L91.056 137.508C91.1652 137.991 91.2601 138.433 91.3411 138.83L91.4135 139.192C91.4323 139.288 91.4493 139.376 91.4644 139.456L91.5045 139.675C91.531 139.828 91.6801 139.932 91.8375 139.906C91.9949 139.88 92.1011 139.735 92.0746 139.582L92.0212 139.292C92.009 139.228 91.9958 139.16 91.9814 139.087L91.9514 138.935C91.8467 138.41 91.7165 137.802 91.5591 137.118C91.1097 135.164 90.5328 132.986 89.8158 130.642C87.7674 123.944 85.0073 117.246 81.4337 110.992C79.7409 108.029 77.8992 105.233 75.9022 102.631Z" fill="#2A84C6"/>
<path d="M75.9022 102.631C75.8067 102.506 75.6256 102.481 75.4976 102.573C75.3697 102.666 75.3434 102.843 75.439 102.967C77.42 105.549 79.2478 108.324 80.9284 111.265C84.4797 117.48 87.2245 124.141 89.2617 130.802C89.9748 133.134 90.5483 135.299 90.9949 137.241L91.056 137.508C91.1652 137.991 91.2601 138.433 91.3411 138.83L91.4135 139.192C91.4323 139.288 91.4493 139.376 91.4644 139.456L91.5045 139.675C91.531 139.828 91.6801 139.932 91.8375 139.906C91.9949 139.88 92.1011 139.735 92.0746 139.582L92.0212 139.292C92.009 139.228 91.9958 139.16 91.9814 139.087L91.9514 138.935C91.8467 138.41 91.7165 137.802 91.5591 137.118C91.1097 135.164 90.5328 132.986 89.8158 130.642C87.7674 123.944 85.0073 117.246 81.4337 110.992C79.7409 108.029 77.8992 105.233 75.9022 102.631Z" fill="black" fill-opacity="0.35"/>
<path d="M66.8087 36.8672C66.6934 36.9747 66.6895 37.1528 66.8 37.2649L66.8711 37.3388C66.9314 37.4019 67.0027 37.478 67.0847 37.567L67.2682 37.768C67.4375 37.9553 67.6233 38.1655 67.8248 38.3988L67.9011 38.4874C68.7827 39.5136 69.7658 40.7479 70.8251 42.1907C73.854 46.3167 76.884 51.2847 79.7126 57.0997C84.4207 66.7787 88.0871 77.8166 90.3089 90.2239C93.0062 105.286 93.4528 121.74 91.2454 139.594C91.2264 139.748 91.3394 139.888 91.4979 139.907C91.6564 139.925 91.8004 139.815 91.8194 139.661C94.0335 121.752 93.5854 105.244 90.8784 90.1273C88.6475 77.6691 84.9651 66.5829 80.2351 56.8591C77.3915 51.0131 74.344 46.0163 71.2955 41.8638L71.0595 41.544C70.0812 40.2258 69.1696 39.0868 68.3447 38.1266L68.1169 37.8637C67.945 37.6667 67.7851 37.4874 67.638 37.3257L67.5151 37.1914C67.4449 37.1153 67.3822 37.0482 67.3271 36.99L67.2174 36.8757C67.1069 36.7636 66.9239 36.7598 66.8087 36.8672Z" fill="#2A84C6"/>
<path d="M66.8087 36.8672C66.6934 36.9747 66.6895 37.1528 66.8 37.2649L66.8711 37.3388C66.9314 37.4019 67.0027 37.478 67.0847 37.567L67.2682 37.768C67.4375 37.9553 67.6233 38.1655 67.8248 38.3988L67.9011 38.4874C68.7827 39.5136 69.7658 40.7479 70.8251 42.1907C73.854 46.3167 76.884 51.2847 79.7126 57.0997C84.4207 66.7787 88.0871 77.8166 90.3089 90.2239C93.0062 105.286 93.4528 121.74 91.2454 139.594C91.2264 139.748 91.3394 139.888 91.4979 139.907C91.6564 139.925 91.8004 139.815 91.8194 139.661C94.0335 121.752 93.5854 105.244 90.8784 90.1273C88.6475 77.6691 84.9651 66.5829 80.2351 56.8591C77.3915 51.0131 74.344 46.0163 71.2955 41.8638L71.0595 41.544C70.0812 40.2258 69.1696 39.0868 68.3447 38.1266L68.1169 37.8637C67.945 37.6667 67.7851 37.4874 67.638 37.3257L67.5151 37.1914C67.4449 37.1153 67.3822 37.0482 67.3271 36.99L67.2174 36.8757C67.1069 36.7636 66.9239 36.7598 66.8087 36.8672Z" fill="black" fill-opacity="0.35"/>
<path d="M113.416 68.1716C113.28 68.0911 113.102 68.1335 113.019 68.2664L112.966 68.3529C112.924 68.4235 112.873 68.5077 112.815 68.6056L112.687 68.8247C112.553 69.0539 112.406 69.313 112.245 69.6017L112.096 69.8692C111.547 70.8645 110.944 72.0165 110.301 73.3217L110.213 73.5006C108.113 77.7806 106.014 82.7866 104.055 88.4758C98.5696 104.409 95.232 122.495 95.1071 142.406C95.1061 142.562 95.2348 142.688 95.3944 142.689C95.554 142.69 95.6842 142.565 95.6852 142.41C95.8097 122.56 99.1365 104.533 104.604 88.6545C106.555 82.9875 108.645 78.0027 110.735 73.7429L110.909 73.3891C111.545 72.1057 112.139 70.9754 112.679 70.002L112.753 69.8702C112.93 69.5527 113.09 69.2718 113.233 69.0279L113.41 68.7279L113.514 68.5579C113.597 68.4251 113.553 68.2521 113.416 68.1716Z" fill="#2A84C6"/>
<path d="M113.416 68.1716C113.28 68.0911 113.102 68.1335 113.019 68.2664L112.966 68.3529C112.924 68.4235 112.873 68.5077 112.815 68.6056L112.687 68.8247C112.553 69.0539 112.406 69.313 112.245 69.6017L112.096 69.8692C111.547 70.8645 110.944 72.0165 110.301 73.3217L110.213 73.5006C108.113 77.7806 106.014 82.7866 104.055 88.4758C98.5696 104.409 95.232 122.495 95.1071 142.406C95.1061 142.562 95.2348 142.688 95.3944 142.689C95.554 142.69 95.6842 142.565 95.6852 142.41C95.8097 122.56 99.1365 104.533 104.604 88.6545C106.555 82.9875 108.645 78.0027 110.735 73.7429L110.909 73.3891C111.545 72.1057 112.139 70.9754 112.679 70.002L112.753 69.8702C112.93 69.5527 113.09 69.2718 113.233 69.0279L113.41 68.7279L113.514 68.5579C113.597 68.4251 113.553 68.2521 113.416 68.1716Z" fill="black" fill-opacity="0.35"/>
<path fill-rule="evenodd" clip-rule="evenodd" d="M130.682 41.2054C130.575 42.4501 131.525 43.5437 132.804 43.648C134.083 43.7525 135.207 42.8281 135.314 41.5834C135.422 40.3389 134.472 39.2454 133.192 39.1408C131.913 39.0365 130.789 39.9609 130.682 41.2054Z" fill="white"/>
<path fill-rule="evenodd" clip-rule="evenodd" d="M110.939 50.8618C110.831 52.1063 111.781 53.2 113.061 53.3044C114.34 53.4089 115.464 52.4845 115.571 51.2398C115.679 49.9953 114.729 48.9018 113.449 48.7972C112.17 48.6929 111.046 49.6173 110.939 50.8618Z" fill="white"/>
<path fill-rule="evenodd" clip-rule="evenodd" d="M114.248 76.5709C114.125 77.9963 115.213 79.2486 116.678 79.3681C118.143 79.4878 119.43 78.4292 119.553 77.0037C119.676 75.5785 118.588 74.3261 117.123 74.2065C115.658 74.0868 114.371 75.1454 114.248 76.5709Z" fill="white"/>
<path fill-rule="evenodd" clip-rule="evenodd" d="M53.6075 38.1491C53.6075 40.1721 55.2928 41.812 57.3719 41.812C59.4511 41.812 61.1363 40.1721 61.1363 38.1491C61.1363 36.1263 59.4511 34.4865 57.3719 34.4865C55.2928 34.4865 53.6075 36.1263 53.6075 38.1491Z" fill="white"/>
<path fill-rule="evenodd" clip-rule="evenodd" d="M83.912 49.3344C83.912 51.3572 85.5974 52.9971 87.6763 52.9971C89.7555 52.9971 91.4407 51.3572 91.4407 49.3344C91.4407 47.3117 89.7555 45.6718 87.6763 45.6718C85.5974 45.6718 83.912 47.3117 83.912 49.3344Z" fill="white"/>
<path fill-rule="evenodd" clip-rule="evenodd" d="M74.0973 74.1971C74.0973 75.0425 74.8018 75.728 75.6707 75.728C76.5397 75.728 77.2441 75.0425 77.2441 74.1971C77.2441 73.3515 76.5397 72.666 75.6707 72.666C74.8018 72.666 74.0973 73.3515 74.0973 74.1971Z" fill="white"/>
<path fill-rule="evenodd" clip-rule="evenodd" d="M62.7617 93.7752C62.7617 95.0242 63.8025 96.0367 65.0861 96.0367C66.37 96.0367 67.4104 95.0242 67.4104 93.7752C67.4104 92.5262 66.37 91.5137 65.0861 91.5137C63.8025 91.5137 62.7617 92.5262 62.7617 93.7752Z" fill="white"/>
<path fill-rule="evenodd" clip-rule="evenodd" d="M84.0049 168.566H106.648C109.962 167.623 111.613 166.689 113.501 164.086L123.759 130.832C123.759 128.368 121.687 126.352 119.155 126.352H72.3057C69.7734 126.352 67.7012 128.368 67.7012 130.832L77.8697 164.086C79.5215 167.623 80.7013 168.09 84.0049 168.566Z" fill="#2A84C6"/>
<path fill-rule="evenodd" clip-rule="evenodd" d="M84.0049 168.566H106.648C109.962 167.623 111.613 166.689 113.501 164.086L123.759 130.832C123.759 128.368 121.687 126.352 119.155 126.352H72.3057C69.7734 126.352 67.7012 128.368 67.7012 130.832L77.8697 164.086C79.5215 167.623 80.7013 168.09 84.0049 168.566Z" fill="black" fill-opacity="0.35"/>
</svg>
