<svg width="203" height="54" viewBox="0 0 203 54" fill="none" xmlns="http://www.w3.org/2000/svg">
<path d="M29.594 52.7908C29.1551 52.8522 28.7185 52.9136 28.2888 52.9699C27.7944 53.0365 27.3463 52.6475 27.2862 52.1C27.2262 51.555 27.575 51.0612 28.0647 50.9921C28.067 50.9921 28.0693 50.9921 28.0716 50.9921C28.8478 50.8872 29.6378 50.7771 30.4417 50.6569C30.444 50.6569 30.4441 50.6569 30.4464 50.6569C30.9361 50.5878 31.3865 50.969 31.4535 51.514C31.5182 52.059 31.174 52.5605 30.6797 52.6347C30.3147 52.6885 29.952 52.7397 29.594 52.7908ZM33.0544 52.2689C32.5693 52.3379 32.1211 51.9618 32.0495 51.4219C31.9779 50.8769 32.3198 50.3729 32.8118 50.2936C33.5903 50.1682 34.3803 50.0377 35.1796 49.9021C35.6786 49.8151 36.1313 50.1912 36.2076 50.7362C36.2838 51.2812 35.9465 51.7904 35.4568 51.8723C34.6506 52.0104 33.856 52.1435 33.0729 52.2689C33.0636 52.2663 33.059 52.2663 33.0544 52.2689ZM25.9095 53.2719C25.9025 53.2719 25.8956 53.2744 25.891 53.2744C25.0755 53.3716 24.267 53.4586 23.4885 53.5354C22.9942 53.584 22.5553 53.1798 22.5114 52.6322C22.4675 52.0846 22.8348 51.6062 23.3268 51.5499C24.0961 51.4731 24.8954 51.3861 25.7016 51.2914C26.1959 51.2326 26.6394 51.6292 26.6926 52.1767C26.7411 52.7166 26.3923 53.2028 25.9095 53.2719ZM37.8015 51.4552C37.3233 51.5243 36.8775 51.1584 36.7989 50.6262C36.7181 50.0837 37.0507 49.5694 37.5428 49.4824C38.3213 49.3417 39.109 49.1959 39.9059 49.0449C40.3887 48.9502 40.8623 49.3161 40.9455 49.8586C41.0286 50.401 40.7006 50.9179 40.2109 51.01C39.4093 51.1609 38.6169 51.3093 37.8338 51.4501C37.8223 51.4526 37.813 51.4552 37.8015 51.4552ZM21.1277 53.7452C21.1115 53.7478 21.093 53.7503 21.0746 53.7503C20.2453 53.8143 19.4321 53.868 18.6583 53.9064C18.1616 53.932 17.7412 53.5073 17.7181 52.9571C17.695 52.407 18.0785 51.9413 18.5751 51.9158C19.3351 51.8774 20.1344 51.8262 20.9498 51.7622C21.4465 51.7239 21.8761 52.1384 21.9108 52.6859C21.9431 53.2156 21.5966 53.6787 21.1277 53.7452ZM42.5371 50.5571C42.0635 50.6236 41.6223 50.268 41.5368 49.7434C41.449 49.201 41.7747 48.6841 42.2645 48.5869C43.043 48.4334 43.8284 48.2747 44.623 48.111C45.1127 48.0086 45.5817 48.3669 45.6718 48.9093C45.7619 49.4517 45.4408 49.9712 44.951 50.0709C44.1541 50.2347 43.364 50.3933 42.5809 50.5494C42.5671 50.552 42.5532 50.5545 42.5371 50.5571ZM16.3321 53.9832C16.2997 53.9883 16.2651 53.9909 16.2304 53.9909C15.3873 54.0062 14.5672 54.0037 13.7957 53.9857C13.299 53.9729 12.904 53.5175 12.9155 52.9674C12.9271 52.4173 13.3383 51.9797 13.8349 51.9925C14.5834 52.0104 15.3803 52.013 16.2004 51.9976C16.6971 51.9874 17.1059 52.4275 17.1152 52.9776C17.1244 53.4919 16.7825 53.9218 16.3321 53.9832ZM47.2611 49.5874C46.7944 49.6539 46.3532 49.3059 46.2631 48.7865C46.1684 48.2466 46.4895 47.7246 46.9769 47.6197C47.7554 47.4534 48.5385 47.2845 49.3309 47.1131C49.8229 47.0056 50.2918 47.3587 50.3889 47.8986C50.4859 48.4385 50.1671 48.963 49.6797 49.0705C48.885 49.2445 48.0973 49.4134 47.3165 49.5797C47.3003 49.5822 47.2796 49.5848 47.2611 49.5874ZM51.9759 48.5562C51.5115 48.6227 51.0749 48.2799 50.9802 47.7656C50.8809 47.2257 51.1974 46.7011 51.6825 46.5911C52.461 46.4171 53.2441 46.238 54.0318 46.0564C54.5215 45.9438 54.9951 46.2918 55.0967 46.8291C55.1984 47.369 54.8842 47.8961 54.3991 48.0086C53.609 48.1903 52.8213 48.3694 52.0428 48.546C52.0197 48.5485 51.9966 48.5536 51.9759 48.5562ZM56.6791 47.4739C56.2194 47.5378 55.7828 47.2027 55.6858 46.6909C55.5818 46.1536 55.8937 45.6239 56.3788 45.5088C57.1573 45.3271 57.938 45.1404 58.7234 44.951C59.2062 44.8333 59.689 45.1762 59.793 45.7135C59.8993 46.2508 59.5897 46.783 59.1046 46.8982C58.3169 47.0875 57.5315 47.2743 56.753 47.456C56.7276 47.4662 56.7022 47.4713 56.6791 47.4739ZM11.5364 53.8552C11.4764 53.8629 11.4163 53.8655 11.3539 53.8604C10.4831 53.7887 9.65838 53.6889 8.90069 53.5636C8.40866 53.4817 8.0714 52.9751 8.14532 52.4301C8.21924 51.8851 8.67663 51.5089 9.16866 51.5908C9.88015 51.7085 10.6609 51.8032 11.4879 51.8697C11.9846 51.9106 12.3565 52.3891 12.3195 52.9367C12.2849 53.4203 11.9499 53.7964 11.5364 53.8552ZM61.3731 46.348C60.9157 46.412 60.4814 46.0819 60.3821 45.5753C60.2758 45.038 60.5807 44.5058 61.0658 44.3881C61.842 44.1988 62.6228 44.0043 63.4059 43.8098C63.8933 43.6896 64.3715 44.0273 64.4824 44.5646C64.5909 45.102 64.286 45.6342 63.8009 45.7544C63.0155 45.9515 62.2324 46.1433 61.4539 46.3327C61.4285 46.3404 61.4008 46.3429 61.3731 46.348ZM66.0601 45.1813C65.605 45.2452 65.1731 44.9177 65.0691 44.4137C64.9582 43.8763 65.2608 43.3416 65.746 43.2188C66.5221 43.0218 67.3006 42.8247 68.0837 42.6226C68.5688 42.4972 69.0516 42.8324 69.1625 43.3697C69.2757 43.9071 68.9731 44.4418 68.488 44.5672C67.7025 44.7693 66.9218 44.9664 66.1433 45.1634C66.1179 45.1736 66.0901 45.1787 66.0601 45.1813ZM70.7402 43.9813C70.2898 44.0452 69.8578 43.7228 69.7516 43.2213C69.6384 42.6866 69.9387 42.1492 70.4215 42.0239C71.1976 41.8217 71.9761 41.617 72.7569 41.4123C73.242 41.2844 73.7248 41.617 73.8403 42.1518C73.9558 42.6866 73.6578 43.2239 73.1727 43.3518C72.3896 43.5591 71.6088 43.7638 70.8326 43.9659C70.8026 43.971 70.7703 43.9761 70.7402 43.9813ZM6.80088 53.0314C6.68538 53.0467 6.56756 53.039 6.44975 53.0032C5.52805 52.7217 4.71493 52.3763 4.03116 51.9746C3.59225 51.7162 3.42592 51.1123 3.65692 50.6262C3.89023 50.14 4.4354 49.9558 4.87431 50.2117C5.44258 50.5443 6.13097 50.836 6.92562 51.0791C7.40611 51.2249 7.68792 51.7725 7.55625 52.3047C7.45461 52.7064 7.1497 52.9827 6.80088 53.0314ZM75.4134 42.748C74.963 42.8119 74.5333 42.4921 74.4247 41.9932C74.3069 41.4584 74.6049 40.9185 75.0877 40.7906C75.8616 40.5833 76.6401 40.3735 77.4208 40.1637C77.9036 40.0332 78.3911 40.3607 78.5089 40.8955C78.6267 41.4302 78.331 41.9701 77.8482 42.1006C77.0674 42.3104 76.2889 42.5203 75.5128 42.7275C75.4781 42.7377 75.4458 42.7429 75.4134 42.748ZM80.0797 41.4865C79.6315 41.5505 79.2042 41.2332 79.0933 40.7368C78.9732 40.2021 79.2689 39.6622 79.7517 39.5291C80.5255 39.3168 81.3017 39.1044 82.0802 38.8895C82.5607 38.7564 83.0504 39.0814 83.1705 39.6161C83.2906 40.1509 82.9973 40.6908 82.5145 40.8238C81.736 41.0388 80.9575 41.2537 80.1813 41.4661C80.1467 41.4738 80.1143 41.4814 80.0797 41.4865ZM84.739 40.1995C84.2932 40.2635 83.8658 39.9488 83.7526 39.4549C83.6302 38.9202 83.9236 38.3803 84.4064 38.2447C85.1802 38.0297 85.9564 37.8123 86.7326 37.5922C87.2154 37.4566 87.7051 37.779 87.8275 38.3112C87.95 38.846 87.6589 39.3884 87.1761 39.524C86.3976 39.7441 85.6215 39.9616 84.8453 40.1765C84.8106 40.1867 84.776 40.1944 84.739 40.1995ZM89.3961 38.8869C88.9525 38.9509 88.5252 38.6387 88.412 38.1449C88.2895 37.6127 88.5783 37.0677 89.0611 36.9321C89.835 36.712 90.6088 36.4894 91.385 36.2694C91.8655 36.1312 92.3575 36.451 92.4823 36.9858C92.607 37.518 92.3182 38.063 91.8354 38.2012C91.0593 38.4238 90.2831 38.6464 89.5069 38.8664C89.4677 38.8741 89.4307 38.8818 89.3961 38.8869ZM94.0369 37.5564C93.5957 37.6204 93.1683 37.3108 93.0528 36.8195C92.9281 36.2873 93.2145 35.7423 93.6973 35.6041C94.4689 35.3815 95.2427 35.1563 96.0143 34.9312C96.4948 34.793 96.9868 35.1103 97.1139 35.6425C97.2409 36.1747 96.9522 36.7197 96.4717 36.8604C95.6978 37.0856 94.924 37.3108 94.1501 37.5334C94.1131 37.5436 94.0762 37.5513 94.0369 37.5564ZM2.73291 50.4138C2.41643 50.4573 2.09073 50.3166 1.88975 50.0095C1.83662 49.9277 1.78579 49.8458 1.73728 49.7613C1.29376 48.9912 0.931084 48.2133 0.65619 47.4457C0.473698 46.934 0.700081 46.3557 1.16209 46.1536C1.62409 45.9515 2.14616 46.2022 2.32865 46.7139C2.55965 47.3613 2.87151 48.0265 3.25266 48.6867C3.28269 48.7379 3.31273 48.7865 3.34507 48.8351C3.63613 49.2803 3.54835 49.9046 3.1441 50.227C3.02167 50.3319 2.87844 50.3933 2.73291 50.4138ZM98.6778 36.2054C98.2365 36.2668 97.8115 35.9598 97.6937 35.4711C97.5666 34.9389 97.8531 34.3939 98.3336 34.2531C99.1074 34.0254 99.8813 33.7977 100.655 33.57C101.138 33.4267 101.628 33.7439 101.757 34.2761C101.886 34.8084 101.6 35.3534 101.119 35.4966C100.346 35.7269 99.5694 35.9547 98.7956 36.1824C98.7563 36.19 98.717 36.1977 98.6778 36.2054ZM103.326 34.8288C102.887 34.8902 102.462 34.5857 102.344 34.0996C102.214 33.5674 102.499 33.0198 102.979 32.8766C103.755 32.6463 104.529 32.4134 105.305 32.1806C105.788 32.0373 106.28 32.352 106.409 32.8817C106.539 33.4139 106.255 33.9614 105.776 34.1047C105 34.3376 104.224 34.5704 103.448 34.8007C103.406 34.816 103.365 34.8237 103.326 34.8288ZM107.969 33.4369C107.53 33.4983 107.107 33.1964 106.987 32.7102C106.855 32.178 107.139 31.6305 107.618 31.4872C108.389 31.2543 109.161 31.0215 109.932 30.7861C110.41 30.6403 110.907 30.9524 111.039 31.4846C111.17 32.0168 110.889 32.5644 110.408 32.7102C109.637 32.9456 108.863 33.1785 108.091 33.4113C108.052 33.4215 108.01 33.4318 107.969 33.4369ZM112.603 32.0296C112.166 32.091 111.743 31.7891 111.621 31.3055C111.489 30.7759 111.769 30.2258 112.249 30.0799C113.021 29.8445 113.792 29.6065 114.562 29.3711C115.04 29.2253 115.536 29.5349 115.67 30.0646C115.802 30.5942 115.523 31.1443 115.044 31.2927C114.273 31.5307 113.501 31.7661 112.73 32.004C112.686 32.0143 112.644 32.022 112.603 32.0296ZM117.23 30.607C116.793 30.6684 116.37 30.369 116.25 29.8854C116.116 29.3558 116.396 28.8057 116.876 28.6573C117.648 28.4193 118.419 28.1788 119.189 27.9408C119.667 27.7924 120.163 28.102 120.297 28.6317C120.431 29.1613 120.152 29.7115 119.674 29.8599C118.904 30.1004 118.133 30.3383 117.359 30.5763C117.315 30.5891 117.274 30.5993 117.23 30.607ZM121.854 29.169C121.42 29.2304 120.997 28.9311 120.875 28.45C120.741 27.9204 121.018 27.3703 121.496 27.2193C122.268 26.9788 123.037 26.7357 123.806 26.4952C124.284 26.3442 124.781 26.6538 124.917 27.1809C125.054 27.7106 124.777 28.2607 124.298 28.4116C123.529 28.6522 122.758 28.8952 121.986 29.1357C121.942 29.1511 121.898 29.1613 121.854 29.169ZM126.474 27.7157C126.04 27.7771 125.62 27.4803 125.495 26.9992C125.359 26.4696 125.636 25.9195 126.114 25.766C126.886 25.5229 127.655 25.2798 128.422 25.0342C128.898 24.8832 129.399 25.1877 129.535 25.7173C129.671 26.247 129.397 26.7997 128.918 26.9506C128.149 27.1937 127.38 27.4393 126.608 27.6824C126.564 27.7003 126.521 27.7106 126.474 27.7157ZM1.04427 45.496C1.03272 45.4986 1.02118 45.4986 1.01194 45.5011C0.517597 45.5497 0.0786817 45.148 0.0347911 44.5979C-0.04606 43.6179 0.0140076 42.6354 0.21498 41.6708C0.325862 41.1334 0.808655 40.7983 1.29376 40.9236C1.77887 41.0465 2.08148 41.5812 1.96829 42.1185C1.8112 42.8759 1.76269 43.6486 1.82507 44.4162C1.86896 44.9536 1.52014 45.4295 1.04427 45.496ZM131.092 26.2495C130.66 26.3109 130.24 26.0167 130.115 25.5357C129.976 25.006 130.254 24.4533 130.732 24.3024C131.503 24.0567 132.273 23.8111 133.037 23.5655C133.518 23.412 134.014 23.7164 134.153 24.2461C134.292 24.7757 134.017 25.3284 133.538 25.4819C132.772 25.7276 132.002 25.9732 131.231 26.2188C131.182 26.2342 131.138 26.2419 131.092 26.2495ZM135.708 24.7706C135.276 24.832 134.855 24.5378 134.73 24.0593C134.592 23.5297 134.867 22.977 135.343 22.8235C136.114 22.5753 136.883 22.3271 137.648 22.0789C138.126 21.9254 138.625 22.2273 138.764 22.7569C138.902 23.2866 138.63 23.8393 138.152 23.9928C137.385 24.241 136.615 24.4892 135.844 24.7374C135.8 24.7527 135.754 24.7655 135.708 24.7706ZM140.318 23.2789C139.886 23.3403 139.468 23.0461 139.341 22.5701C139.203 22.0405 139.475 21.4878 139.951 21.3343C140.723 21.0836 141.49 20.8328 142.254 20.5846C142.732 20.4285 143.231 20.7304 143.372 21.2601C143.513 21.7897 143.241 22.3424 142.762 22.4985C141.998 22.7493 141.229 22.9975 140.457 23.2482C140.411 23.2636 140.365 23.2738 140.318 23.2789ZM144.927 21.777C144.497 21.8384 144.077 21.5467 143.95 21.0708C143.809 20.5437 144.081 19.9884 144.557 19.8324C145.329 19.579 146.096 19.3283 146.86 19.0775C147.336 18.9215 147.838 19.2208 147.978 19.7505C148.119 20.2776 147.849 20.8328 147.371 20.9889C146.606 21.2396 145.839 21.4929 145.068 21.7463C145.022 21.759 144.973 21.7693 144.927 21.777ZM149.531 20.2622C149.101 20.3236 148.683 20.0319 148.556 19.5586C148.415 19.0315 148.685 18.4762 149.161 18.3176C149.933 18.0617 150.7 17.8084 151.462 17.5551C151.938 17.3965 152.439 17.6958 152.582 18.2255C152.726 18.7526 152.455 19.3078 151.977 19.4665C151.215 19.7198 150.448 19.9731 149.674 20.229C149.628 20.2443 149.579 20.2545 149.531 20.2622ZM2.05838 40.4375C1.87589 40.4631 1.68647 40.4272 1.51322 40.3223C1.07662 40.0588 0.917232 39.4524 1.15516 38.9688C1.54325 38.1833 2.03298 37.3978 2.61279 36.6327C2.93158 36.2105 3.49984 36.1568 3.881 36.5099C4.26215 36.863 4.31066 37.4924 3.99188 37.9146C3.48829 38.5799 3.06555 39.2554 2.73522 39.9232C2.592 40.2174 2.33558 40.3991 2.05838 40.4375ZM154.135 18.7372C153.705 18.7986 153.287 18.5095 153.16 18.0362C153.017 17.5091 153.287 16.9538 153.763 16.7952C154.534 16.5393 155.301 16.2834 156.061 16.0276C156.537 15.8689 157.038 16.1658 157.184 16.6928C157.327 17.2199 157.057 17.7777 156.581 17.9364C155.819 18.1897 155.052 18.4455 154.28 18.704C154.232 18.7168 154.183 18.7296 154.135 18.7372ZM158.734 17.1995C158.307 17.2609 157.888 16.9717 157.759 16.4984C157.616 15.9713 157.884 15.4161 158.36 15.2549C159.134 14.9964 159.898 14.738 160.658 14.4821C161.134 14.3235 161.635 14.6203 161.781 15.1474C161.926 15.6745 161.656 16.2297 161.183 16.3909C160.423 16.6468 159.656 16.9052 158.882 17.1636C158.831 17.1815 158.782 17.1918 158.734 17.1995ZM163.331 15.6515C162.904 15.7129 162.488 15.4237 162.356 14.9529C162.211 14.4258 162.479 13.8706 162.954 13.7094C163.728 13.4484 164.493 13.19 165.251 12.9316C165.724 12.7704 166.23 13.0672 166.376 13.5917C166.521 14.1188 166.253 14.6766 165.78 14.8378C165.022 15.0962 164.255 15.3546 163.481 15.6156C163.43 15.6335 163.379 15.6438 163.331 15.6515ZM167.926 14.0932C167.498 14.1546 167.082 13.868 166.953 13.3972C166.808 12.8702 167.073 12.3124 167.549 12.1512C168.323 11.8876 169.09 11.6266 169.845 11.3682C170.321 11.207 170.825 11.5013 170.97 12.0258C171.116 12.5529 170.85 13.1107 170.374 13.2719C169.619 13.5303 168.852 13.7913 168.078 14.0548C168.025 14.0753 167.974 14.0855 167.926 14.0932ZM5.08914 36.364C4.80732 36.405 4.51163 36.295 4.30604 36.0416C3.97339 35.6323 4.00343 35.0028 4.37304 34.6344C4.95516 34.0535 5.60659 33.4676 6.30653 32.897C6.70617 32.5695 7.26982 32.6642 7.5655 33.1094C7.86119 33.552 7.77571 34.1764 7.37377 34.5039C6.72234 35.0361 6.1171 35.5785 5.57887 36.1158C5.43564 36.2566 5.2647 36.3385 5.08914 36.364ZM172.516 12.5247C172.091 12.5861 171.675 12.2996 171.543 11.8313C171.395 11.3068 171.663 10.7464 172.137 10.5852C172.913 10.3191 173.678 10.0556 174.431 9.79717C174.904 9.63597 175.41 9.92766 175.558 10.4522C175.706 10.9793 175.44 11.5371 174.964 11.7008C174.211 11.9593 173.444 12.2228 172.668 12.4889C172.62 12.5043 172.569 12.5171 172.516 12.5247ZM177.106 10.946C176.681 11.0074 176.265 10.7234 176.133 10.2526C175.985 9.72809 176.251 9.16774 176.724 9.00398C177.503 8.73532 178.268 8.47176 179.018 8.21078C179.494 8.04702 179.998 8.33871 180.146 8.86324C180.294 9.38777 180.03 9.94813 179.554 10.1119C178.804 10.3729 178.039 10.6364 177.26 10.9051C177.21 10.9256 177.159 10.9383 177.106 10.946ZM181.693 9.35708C181.268 9.41849 180.855 9.13447 180.721 8.66623C180.571 8.1417 180.836 7.58135 181.31 7.41759C182.093 7.14637 182.858 6.88027 183.601 6.61928C184.075 6.45296 184.581 6.74465 184.731 7.27174C184.881 7.79627 184.618 8.35663 184.142 8.52294C183.396 8.78393 182.631 9.05003 181.848 9.32125C181.797 9.33661 181.746 9.3494 181.693 9.35708ZM8.93997 33.1964C8.60271 33.245 8.2562 33.0787 8.06446 32.7384C7.79881 32.2727 7.92587 31.656 8.34629 31.3644C9.00927 30.9038 9.72076 30.4381 10.4623 29.9852C10.8966 29.7191 11.444 29.8931 11.6866 30.3767C11.9268 30.8577 11.7698 31.4642 11.3332 31.7303C10.6217 32.1652 9.94021 32.6104 9.30495 33.0505C9.18945 33.1299 9.06472 33.1785 8.93997 33.1964ZM186.279 7.75534C185.856 7.81419 185.44 7.53273 185.309 7.06705C185.158 6.54252 185.422 5.98216 185.895 5.81585C186.685 5.53951 187.448 5.27084 188.187 5.01241C188.66 4.8461 189.166 5.13524 189.316 5.65977C189.467 6.1843 189.206 6.74466 188.732 6.91097C187.993 7.17196 187.228 7.44061 186.438 7.71695C186.385 7.73486 186.332 7.74766 186.279 7.75534ZM190.864 6.14337C190.441 6.20222 190.028 5.92331 189.894 5.45762C189.744 4.93309 190.005 4.37275 190.478 4.20388C191.28 3.91986 192.045 3.6512 192.77 3.39278C193.244 3.2239 193.749 3.51302 193.902 4.03755C194.054 4.56209 193.793 5.12245 193.32 5.29132C192.594 5.54975 191.83 5.8184 191.026 6.10242C190.97 6.12289 190.917 6.13569 190.864 6.14337ZM13.1419 30.6121C12.7723 30.6658 12.3958 30.456 12.2202 30.0646C12.0008 29.5707 12.1832 28.972 12.6268 28.7289C13.329 28.3425 14.0705 27.9562 14.8329 27.5775C15.2856 27.3523 15.8192 27.5749 16.0225 28.0764C16.2258 28.578 16.0248 29.169 15.5721 29.3942C14.8305 29.7626 14.1098 30.1413 13.4261 30.5149C13.336 30.5661 13.2389 30.5993 13.1419 30.6121ZM195.45 4.51603C195.027 4.57488 194.613 4.29599 194.479 3.83286C194.327 3.30833 194.588 2.74797 195.062 2.5791C195.898 2.28229 196.662 2.00852 197.353 1.76033C197.827 1.59146 198.333 1.87802 198.487 2.40255C198.64 2.92708 198.381 3.48744 197.907 3.65887C197.217 3.90707 196.45 4.18085 195.611 4.47766C195.558 4.49557 195.503 4.50835 195.45 4.51603ZM200.04 2.87335C199.619 2.9322 199.206 2.65587 199.069 2.19275C198.915 1.66822 199.173 1.1053 199.647 0.936424C201.063 0.427245 201.818 0.150904 201.818 0.150904C202.29 -0.0205279 202.8 0.263497 202.955 0.78547C203.11 1.30744 202.853 1.87291 202.382 2.04434C202.382 2.04434 201.624 2.32068 200.204 2.83242C200.151 2.85289 200.095 2.86568 200.04 2.87335ZM17.5264 28.4219C17.1337 28.4782 16.7386 28.2377 16.5815 27.8129C16.3921 27.3037 16.6116 26.7203 17.069 26.5105C17.7943 26.1779 18.5543 25.8453 19.3259 25.5178C19.7902 25.3207 20.3099 25.5792 20.4878 26.0935C20.6657 26.6078 20.4324 27.1835 19.9681 27.3805C19.2104 27.7003 18.4665 28.0278 17.755 28.3554C17.6811 28.3886 17.6026 28.4116 17.5264 28.4219ZM22.0171 26.5157C21.6059 26.5745 21.2016 26.311 21.0561 25.8606C20.8898 25.3412 21.1323 24.7732 21.6013 24.5864C22.3451 24.2921 23.1143 23.9979 23.8928 23.7113C24.3664 23.5348 24.8746 23.8188 25.0316 24.3408C25.1887 24.8627 24.9346 25.4282 24.4634 25.6022C23.6964 25.8862 22.9365 26.1753 22.2065 26.4645C22.1441 26.4901 22.0794 26.5054 22.0171 26.5157ZM26.5817 24.8269C26.1566 24.8858 25.7431 24.6043 25.6092 24.1361C25.4613 23.6115 25.7247 23.0512 26.1982 22.8874C26.9513 22.6264 27.7298 22.3629 28.5152 22.107C28.991 21.9509 29.4923 22.2529 29.6332 22.78C29.7741 23.307 29.5016 23.8623 29.0257 24.0184C28.2518 24.2717 27.4826 24.5327 26.7388 24.7911C26.6856 24.8064 26.6325 24.8192 26.5817 24.8269ZM31.1948 23.3147C30.7582 23.3761 30.3355 23.0768 30.2154 22.5932C30.0814 22.0635 30.3609 21.5134 30.8391 21.365C31.606 21.1271 32.3914 20.8917 33.1745 20.6614C33.655 20.5206 34.147 20.8379 34.2741 21.3701C34.4011 21.9023 34.1147 22.4473 33.6342 22.5881C32.8603 22.8158 32.0842 23.0486 31.3242 23.284C31.2803 23.2994 31.2364 23.3096 31.1948 23.3147ZM35.8495 21.9509C35.4037 22.0149 34.974 21.7002 34.8631 21.2038C34.743 20.669 35.0364 20.1292 35.5169 19.9935C36.2884 19.7786 37.0808 19.5662 37.8662 19.359C38.3513 19.2336 38.8341 19.5637 38.9496 20.0985C39.0651 20.6332 38.7648 21.1705 38.282 21.2985C37.5035 21.5032 36.7181 21.7156 35.9535 21.9254C35.9188 21.9382 35.8842 21.9458 35.8495 21.9509ZM40.5343 20.7202C40.0792 20.7842 39.6449 20.4567 39.5433 19.95C39.4347 19.4127 39.7396 18.8805 40.2247 18.7603C41.0124 18.5632 41.8094 18.3739 42.5902 18.1897C43.0776 18.0745 43.5535 18.42 43.6574 18.9598C43.7591 19.4997 43.4495 20.0268 42.9621 20.1419C42.1882 20.3236 41.4005 20.513 40.6174 20.7074C40.592 20.7125 40.562 20.7177 40.5343 20.7202ZM45.2537 19.62C44.787 19.6865 44.3481 19.3411 44.258 18.8242C44.1633 18.2843 44.4798 17.7598 44.9672 17.6549C46.471 17.3274 47.3373 17.1636 47.372 17.156C47.8548 17.0613 48.326 17.4272 48.4115 17.9722C48.4946 18.5146 48.1666 19.0289 47.6769 19.1236C47.6676 19.1262 46.7945 19.2899 45.316 19.6123C45.2929 19.6149 45.2744 19.6174 45.2537 19.62Z" fill="#1F65E6"/>
<path d="M29.594 52.7908C29.1551 52.8522 28.7185 52.9136 28.2888 52.9699C27.7944 53.0365 27.3463 52.6475 27.2862 52.1C27.2262 51.555 27.575 51.0612 28.0647 50.9921C28.067 50.9921 28.0693 50.9921 28.0716 50.9921C28.8478 50.8872 29.6378 50.7771 30.4417 50.6569C30.444 50.6569 30.4441 50.6569 30.4464 50.6569C30.9361 50.5878 31.3865 50.969 31.4535 51.514C31.5182 52.059 31.174 52.5605 30.6797 52.6347C30.3147 52.6885 29.952 52.7397 29.594 52.7908ZM33.0544 52.2689C32.5693 52.3379 32.1211 51.9618 32.0495 51.4219C31.9779 50.8769 32.3198 50.3729 32.8118 50.2936C33.5903 50.1682 34.3803 50.0377 35.1796 49.9021C35.6786 49.8151 36.1313 50.1912 36.2076 50.7362C36.2838 51.2812 35.9465 51.7904 35.4568 51.8723C34.6506 52.0104 33.856 52.1435 33.0729 52.2689C33.0636 52.2663 33.059 52.2663 33.0544 52.2689ZM25.9095 53.2719C25.9025 53.2719 25.8956 53.2744 25.891 53.2744C25.0755 53.3716 24.267 53.4586 23.4885 53.5354C22.9942 53.584 22.5553 53.1798 22.5114 52.6322C22.4675 52.0846 22.8348 51.6062 23.3268 51.5499C24.0961 51.4731 24.8954 51.3861 25.7016 51.2914C26.1959 51.2326 26.6394 51.6292 26.6926 52.1767C26.7411 52.7166 26.3923 53.2028 25.9095 53.2719ZM37.8015 51.4552C37.3233 51.5243 36.8775 51.1584 36.7989 50.6262C36.7181 50.0837 37.0507 49.5694 37.5428 49.4824C38.3213 49.3417 39.109 49.1959 39.9059 49.0449C40.3887 48.9502 40.8623 49.3161 40.9455 49.8586C41.0286 50.401 40.7006 50.9179 40.2109 51.01C39.4093 51.1609 38.6169 51.3093 37.8338 51.4501C37.8223 51.4526 37.813 51.4552 37.8015 51.4552ZM21.1277 53.7452C21.1115 53.7478 21.093 53.7503 21.0746 53.7503C20.2453 53.8143 19.4321 53.868 18.6583 53.9064C18.1616 53.932 17.7412 53.5073 17.7181 52.9571C17.695 52.407 18.0785 51.9413 18.5751 51.9158C19.3351 51.8774 20.1344 51.8262 20.9498 51.7622C21.4465 51.7239 21.8761 52.1384 21.9108 52.6859C21.9431 53.2156 21.5966 53.6787 21.1277 53.7452ZM42.5371 50.5571C42.0635 50.6236 41.6223 50.268 41.5368 49.7434C41.449 49.201 41.7747 48.6841 42.2645 48.5869C43.043 48.4334 43.8284 48.2747 44.623 48.111C45.1127 48.0086 45.5817 48.3669 45.6718 48.9093C45.7619 49.4517 45.4408 49.9712 44.951 50.0709C44.1541 50.2347 43.364 50.3933 42.5809 50.5494C42.5671 50.552 42.5532 50.5545 42.5371 50.5571ZM16.3321 53.9832C16.2997 53.9883 16.2651 53.9909 16.2304 53.9909C15.3873 54.0062 14.5672 54.0037 13.7957 53.9857C13.299 53.9729 12.904 53.5175 12.9155 52.9674C12.9271 52.4173 13.3383 51.9797 13.8349 51.9925C14.5834 52.0104 15.3803 52.013 16.2004 51.9976C16.6971 51.9874 17.1059 52.4275 17.1152 52.9776C17.1244 53.4919 16.7825 53.9218 16.3321 53.9832ZM47.2611 49.5874C46.7944 49.6539 46.3532 49.3059 46.2631 48.7865C46.1684 48.2466 46.4895 47.7246 46.9769 47.6197C47.7554 47.4534 48.5385 47.2845 49.3309 47.1131C49.8229 47.0056 50.2918 47.3587 50.3889 47.8986C50.4859 48.4385 50.1671 48.963 49.6797 49.0705C48.885 49.2445 48.0973 49.4134 47.3165 49.5797C47.3003 49.5822 47.2796 49.5848 47.2611 49.5874ZM51.9759 48.5562C51.5115 48.6227 51.0749 48.2799 50.9802 47.7656C50.8809 47.2257 51.1974 46.7011 51.6825 46.5911C52.461 46.4171 53.2441 46.238 54.0318 46.0564C54.5215 45.9438 54.9951 46.2918 55.0967 46.8291C55.1984 47.369 54.8842 47.8961 54.3991 48.0086C53.609 48.1903 52.8213 48.3694 52.0428 48.546C52.0197 48.5485 51.9966 48.5536 51.9759 48.5562ZM56.6791 47.4739C56.2194 47.5378 55.7828 47.2027 55.6858 46.6909C55.5818 46.1536 55.8937 45.6239 56.3788 45.5088C57.1573 45.3271 57.938 45.1404 58.7234 44.951C59.2062 44.8333 59.689 45.1762 59.793 45.7135C59.8993 46.2508 59.5897 46.783 59.1046 46.8982C58.3169 47.0875 57.5315 47.2743 56.753 47.456C56.7276 47.4662 56.7022 47.4713 56.6791 47.4739ZM11.5364 53.8552C11.4764 53.8629 11.4163 53.8655 11.3539 53.8604C10.4831 53.7887 9.65838 53.6889 8.90069 53.5636C8.40866 53.4817 8.0714 52.9751 8.14532 52.4301C8.21924 51.8851 8.67663 51.5089 9.16866 51.5908C9.88015 51.7085 10.6609 51.8032 11.4879 51.8697C11.9846 51.9106 12.3565 52.3891 12.3195 52.9367C12.2849 53.4203 11.9499 53.7964 11.5364 53.8552ZM61.3731 46.348C60.9157 46.412 60.4814 46.0819 60.3821 45.5753C60.2758 45.038 60.5807 44.5058 61.0658 44.3881C61.842 44.1988 62.6228 44.0043 63.4059 43.8098C63.8933 43.6896 64.3715 44.0273 64.4824 44.5646C64.5909 45.102 64.286 45.6342 63.8009 45.7544C63.0155 45.9515 62.2324 46.1433 61.4539 46.3327C61.4285 46.3404 61.4008 46.3429 61.3731 46.348ZM66.0601 45.1813C65.605 45.2452 65.1731 44.9177 65.0691 44.4137C64.9582 43.8763 65.2608 43.3416 65.746 43.2188C66.5221 43.0218 67.3006 42.8247 68.0837 42.6226C68.5688 42.4972 69.0516 42.8324 69.1625 43.3697C69.2757 43.9071 68.9731 44.4418 68.488 44.5672C67.7025 44.7693 66.9218 44.9664 66.1433 45.1634C66.1179 45.1736 66.0901 45.1787 66.0601 45.1813ZM70.7402 43.9813C70.2898 44.0452 69.8578 43.7228 69.7516 43.2213C69.6384 42.6866 69.9387 42.1492 70.4215 42.0239C71.1976 41.8217 71.9761 41.617 72.7569 41.4123C73.242 41.2844 73.7248 41.617 73.8403 42.1518C73.9558 42.6866 73.6578 43.2239 73.1727 43.3518C72.3896 43.5591 71.6088 43.7638 70.8326 43.9659C70.8026 43.971 70.7703 43.9761 70.7402 43.9813ZM6.80088 53.0314C6.68538 53.0467 6.56756 53.039 6.44975 53.0032C5.52805 52.7217 4.71493 52.3763 4.03116 51.9746C3.59225 51.7162 3.42592 51.1123 3.65692 50.6262C3.89023 50.14 4.4354 49.9558 4.87431 50.2117C5.44258 50.5443 6.13097 50.836 6.92562 51.0791C7.40611 51.2249 7.68792 51.7725 7.55625 52.3047C7.45461 52.7064 7.1497 52.9827 6.80088 53.0314ZM75.4134 42.748C74.963 42.8119 74.5333 42.4921 74.4247 41.9932C74.3069 41.4584 74.6049 40.9185 75.0877 40.7906C75.8616 40.5833 76.6401 40.3735 77.4208 40.1637C77.9036 40.0332 78.3911 40.3607 78.5089 40.8955C78.6267 41.4302 78.331 41.9701 77.8482 42.1006C77.0674 42.3104 76.2889 42.5203 75.5128 42.7275C75.4781 42.7377 75.4458 42.7429 75.4134 42.748ZM80.0797 41.4865C79.6315 41.5505 79.2042 41.2332 79.0933 40.7368C78.9732 40.2021 79.2689 39.6622 79.7517 39.5291C80.5255 39.3168 81.3017 39.1044 82.0802 38.8895C82.5607 38.7564 83.0504 39.0814 83.1705 39.6161C83.2906 40.1509 82.9973 40.6908 82.5145 40.8238C81.736 41.0388 80.9575 41.2537 80.1813 41.4661C80.1467 41.4738 80.1143 41.4814 80.0797 41.4865ZM84.739 40.1995C84.2932 40.2635 83.8658 39.9488 83.7526 39.4549C83.6302 38.9202 83.9236 38.3803 84.4064 38.2447C85.1802 38.0297 85.9564 37.8123 86.7326 37.5922C87.2154 37.4566 87.7051 37.779 87.8275 38.3112C87.95 38.846 87.6589 39.3884 87.1761 39.524C86.3976 39.7441 85.6215 39.9616 84.8453 40.1765C84.8106 40.1867 84.776 40.1944 84.739 40.1995ZM89.3961 38.8869C88.9525 38.9509 88.5252 38.6387 88.412 38.1449C88.2895 37.6127 88.5783 37.0677 89.0611 36.9321C89.835 36.712 90.6088 36.4894 91.385 36.2694C91.8655 36.1312 92.3575 36.451 92.4823 36.9858C92.607 37.518 92.3182 38.063 91.8354 38.2012C91.0593 38.4238 90.2831 38.6464 89.5069 38.8664C89.4677 38.8741 89.4307 38.8818 89.3961 38.8869ZM94.0369 37.5564C93.5957 37.6204 93.1683 37.3108 93.0528 36.8195C92.9281 36.2873 93.2145 35.7423 93.6973 35.6041C94.4689 35.3815 95.2427 35.1563 96.0143 34.9312C96.4948 34.793 96.9868 35.1103 97.1139 35.6425C97.2409 36.1747 96.9522 36.7197 96.4717 36.8604C95.6978 37.0856 94.924 37.3108 94.1501 37.5334C94.1131 37.5436 94.0762 37.5513 94.0369 37.5564ZM2.73291 50.4138C2.41643 50.4573 2.09073 50.3166 1.88975 50.0095C1.83662 49.9277 1.78579 49.8458 1.73728 49.7613C1.29376 48.9912 0.931084 48.2133 0.65619 47.4457C0.473698 46.934 0.700081 46.3557 1.16209 46.1536C1.62409 45.9515 2.14616 46.2022 2.32865 46.7139C2.55965 47.3613 2.87151 48.0265 3.25266 48.6867C3.28269 48.7379 3.31273 48.7865 3.34507 48.8351C3.63613 49.2803 3.54835 49.9046 3.1441 50.227C3.02167 50.3319 2.87844 50.3933 2.73291 50.4138ZM98.6778 36.2054C98.2365 36.2668 97.8115 35.9598 97.6937 35.4711C97.5666 34.9389 97.8531 34.3939 98.3336 34.2531C99.1074 34.0254 99.8813 33.7977 100.655 33.57C101.138 33.4267 101.628 33.7439 101.757 34.2761C101.886 34.8084 101.6 35.3534 101.119 35.4966C100.346 35.7269 99.5694 35.9547 98.7956 36.1824C98.7563 36.19 98.717 36.1977 98.6778 36.2054ZM103.326 34.8288C102.887 34.8902 102.462 34.5857 102.344 34.0996C102.214 33.5674 102.499 33.0198 102.979 32.8766C103.755 32.6463 104.529 32.4134 105.305 32.1806C105.788 32.0373 106.28 32.352 106.409 32.8817C106.539 33.4139 106.255 33.9614 105.776 34.1047C105 34.3376 104.224 34.5704 103.448 34.8007C103.406 34.816 103.365 34.8237 103.326 34.8288ZM107.969 33.4369C107.53 33.4983 107.107 33.1964 106.987 32.7102C106.855 32.178 107.139 31.6305 107.618 31.4872C108.389 31.2543 109.161 31.0215 109.932 30.7861C110.41 30.6403 110.907 30.9524 111.039 31.4846C111.17 32.0168 110.889 32.5644 110.408 32.7102C109.637 32.9456 108.863 33.1785 108.091 33.4113C108.052 33.4215 108.01 33.4318 107.969 33.4369ZM112.603 32.0296C112.166 32.091 111.743 31.7891 111.621 31.3055C111.489 30.7759 111.769 30.2258 112.249 30.0799C113.021 29.8445 113.792 29.6065 114.562 29.3711C115.04 29.2253 115.536 29.5349 115.67 30.0646C115.802 30.5942 115.523 31.1443 115.044 31.2927C114.273 31.5307 113.501 31.7661 112.73 32.004C112.686 32.0143 112.644 32.022 112.603 32.0296ZM117.23 30.607C116.793 30.6684 116.37 30.369 116.25 29.8854C116.116 29.3558 116.396 28.8057 116.876 28.6573C117.648 28.4193 118.419 28.1788 119.189 27.9408C119.667 27.7924 120.163 28.102 120.297 28.6317C120.431 29.1613 120.152 29.7115 119.674 29.8599C118.904 30.1004 118.133 30.3383 117.359 30.5763C117.315 30.5891 117.274 30.5993 117.23 30.607ZM121.854 29.169C121.42 29.2304 120.997 28.9311 120.875 28.45C120.741 27.9204 121.018 27.3703 121.496 27.2193C122.268 26.9788 123.037 26.7357 123.806 26.4952C124.284 26.3442 124.781 26.6538 124.917 27.1809C125.054 27.7106 124.777 28.2607 124.298 28.4116C123.529 28.6522 122.758 28.8952 121.986 29.1357C121.942 29.1511 121.898 29.1613 121.854 29.169ZM126.474 27.7157C126.04 27.7771 125.62 27.4803 125.495 26.9992C125.359 26.4696 125.636 25.9195 126.114 25.766C126.886 25.5229 127.655 25.2798 128.422 25.0342C128.898 24.8832 129.399 25.1877 129.535 25.7173C129.671 26.247 129.397 26.7997 128.918 26.9506C128.149 27.1937 127.38 27.4393 126.608 27.6824C126.564 27.7003 126.521 27.7106 126.474 27.7157ZM1.04427 45.496C1.03272 45.4986 1.02118 45.4986 1.01194 45.5011C0.517597 45.5497 0.0786817 45.148 0.0347911 44.5979C-0.04606 43.6179 0.0140076 42.6354 0.21498 41.6708C0.325862 41.1334 0.808655 40.7983 1.29376 40.9236C1.77887 41.0465 2.08148 41.5812 1.96829 42.1185C1.8112 42.8759 1.76269 43.6486 1.82507 44.4162C1.86896 44.9536 1.52014 45.4295 1.04427 45.496ZM131.092 26.2495C130.66 26.3109 130.24 26.0167 130.115 25.5357C129.976 25.006 130.254 24.4533 130.732 24.3024C131.503 24.0567 132.273 23.8111 133.037 23.5655C133.518 23.412 134.014 23.7164 134.153 24.2461C134.292 24.7757 134.017 25.3284 133.538 25.4819C132.772 25.7276 132.002 25.9732 131.231 26.2188C131.182 26.2342 131.138 26.2419 131.092 26.2495ZM135.708 24.7706C135.276 24.832 134.855 24.5378 134.73 24.0593C134.592 23.5297 134.867 22.977 135.343 22.8235C136.114 22.5753 136.883 22.3271 137.648 22.0789C138.126 21.9254 138.625 22.2273 138.764 22.7569C138.902 23.2866 138.63 23.8393 138.152 23.9928C137.385 24.241 136.615 24.4892 135.844 24.7374C135.8 24.7527 135.754 24.7655 135.708 24.7706ZM140.318 23.2789C139.886 23.3403 139.468 23.0461 139.341 22.5701C139.203 22.0405 139.475 21.4878 139.951 21.3343C140.723 21.0836 141.49 20.8328 142.254 20.5846C142.732 20.4285 143.231 20.7304 143.372 21.2601C143.513 21.7897 143.241 22.3424 142.762 22.4985C141.998 22.7493 141.229 22.9975 140.457 23.2482C140.411 23.2636 140.365 23.2738 140.318 23.2789ZM144.927 21.777C144.497 21.8384 144.077 21.5467 143.95 21.0708C143.809 20.5437 144.081 19.9884 144.557 19.8324C145.329 19.579 146.096 19.3283 146.86 19.0775C147.336 18.9215 147.838 19.2208 147.978 19.7505C148.119 20.2776 147.849 20.8328 147.371 20.9889C146.606 21.2396 145.839 21.4929 145.068 21.7463C145.022 21.759 144.973 21.7693 144.927 21.777ZM149.531 20.2622C149.101 20.3236 148.683 20.0319 148.556 19.5586C148.415 19.0315 148.685 18.4762 149.161 18.3176C149.933 18.0617 150.7 17.8084 151.462 17.5551C151.938 17.3965 152.439 17.6958 152.582 18.2255C152.726 18.7526 152.455 19.3078 151.977 19.4665C151.215 19.7198 150.448 19.9731 149.674 20.229C149.628 20.2443 149.579 20.2545 149.531 20.2622ZM2.05838 40.4375C1.87589 40.4631 1.68647 40.4272 1.51322 40.3223C1.07662 40.0588 0.917232 39.4524 1.15516 38.9688C1.54325 38.1833 2.03298 37.3978 2.61279 36.6327C2.93158 36.2105 3.49984 36.1568 3.881 36.5099C4.26215 36.863 4.31066 37.4924 3.99188 37.9146C3.48829 38.5799 3.06555 39.2554 2.73522 39.9232C2.592 40.2174 2.33558 40.3991 2.05838 40.4375ZM154.135 18.7372C153.705 18.7986 153.287 18.5095 153.16 18.0362C153.017 17.5091 153.287 16.9538 153.763 16.7952C154.534 16.5393 155.301 16.2834 156.061 16.0276C156.537 15.8689 157.038 16.1658 157.184 16.6928C157.327 17.2199 157.057 17.7777 156.581 17.9364C155.819 18.1897 155.052 18.4455 154.28 18.704C154.232 18.7168 154.183 18.7296 154.135 18.7372ZM158.734 17.1995C158.307 17.2609 157.888 16.9717 157.759 16.4984C157.616 15.9713 157.884 15.4161 158.36 15.2549C159.134 14.9964 159.898 14.738 160.658 14.4821C161.134 14.3235 161.635 14.6203 161.781 15.1474C161.926 15.6745 161.656 16.2297 161.183 16.3909C160.423 16.6468 159.656 16.9052 158.882 17.1636C158.831 17.1815 158.782 17.1918 158.734 17.1995ZM163.331 15.6515C162.904 15.7129 162.488 15.4237 162.356 14.9529C162.211 14.4258 162.479 13.8706 162.954 13.7094C163.728 13.4484 164.493 13.19 165.251 12.9316C165.724 12.7704 166.23 13.0672 166.376 13.5917C166.521 14.1188 166.253 14.6766 165.78 14.8378C165.022 15.0962 164.255 15.3546 163.481 15.6156C163.43 15.6335 163.379 15.6438 163.331 15.6515ZM167.926 14.0932C167.498 14.1546 167.082 13.868 166.953 13.3972C166.808 12.8702 167.073 12.3124 167.549 12.1512C168.323 11.8876 169.09 11.6266 169.845 11.3682C170.321 11.207 170.825 11.5013 170.97 12.0258C171.116 12.5529 170.85 13.1107 170.374 13.2719C169.619 13.5303 168.852 13.7913 168.078 14.0548C168.025 14.0753 167.974 14.0855 167.926 14.0932ZM5.08914 36.364C4.80732 36.405 4.51163 36.295 4.30604 36.0416C3.97339 35.6323 4.00343 35.0028 4.37304 34.6344C4.95516 34.0535 5.60659 33.4676 6.30653 32.897C6.70617 32.5695 7.26982 32.6642 7.5655 33.1094C7.86119 33.552 7.77571 34.1764 7.37377 34.5039C6.72234 35.0361 6.1171 35.5785 5.57887 36.1158C5.43564 36.2566 5.2647 36.3385 5.08914 36.364ZM172.516 12.5247C172.091 12.5861 171.675 12.2996 171.543 11.8313C171.395 11.3068 171.663 10.7464 172.137 10.5852C172.913 10.3191 173.678 10.0556 174.431 9.79717C174.904 9.63597 175.41 9.92766 175.558 10.4522C175.706 10.9793 175.44 11.5371 174.964 11.7008C174.211 11.9593 173.444 12.2228 172.668 12.4889C172.62 12.5043 172.569 12.5171 172.516 12.5247ZM177.106 10.946C176.681 11.0074 176.265 10.7234 176.133 10.2526C175.985 9.72809 176.251 9.16774 176.724 9.00398C177.503 8.73532 178.268 8.47176 179.018 8.21078C179.494 8.04702 179.998 8.33871 180.146 8.86324C180.294 9.38777 180.03 9.94813 179.554 10.1119C178.804 10.3729 178.039 10.6364 177.26 10.9051C177.21 10.9256 177.159 10.9383 177.106 10.946ZM181.693 9.35708C181.268 9.41849 180.855 9.13447 180.721 8.66623C180.571 8.1417 180.836 7.58135 181.31 7.41759C182.093 7.14637 182.858 6.88027 183.601 6.61928C184.075 6.45296 184.581 6.74465 184.731 7.27174C184.881 7.79627 184.618 8.35663 184.142 8.52294C183.396 8.78393 182.631 9.05003 181.848 9.32125C181.797 9.33661 181.746 9.3494 181.693 9.35708ZM8.93997 33.1964C8.60271 33.245 8.2562 33.0787 8.06446 32.7384C7.79881 32.2727 7.92587 31.656 8.34629 31.3644C9.00927 30.9038 9.72076 30.4381 10.4623 29.9852C10.8966 29.7191 11.444 29.8931 11.6866 30.3767C11.9268 30.8577 11.7698 31.4642 11.3332 31.7303C10.6217 32.1652 9.94021 32.6104 9.30495 33.0505C9.18945 33.1299 9.06472 33.1785 8.93997 33.1964ZM186.279 7.75534C185.856 7.81419 185.44 7.53273 185.309 7.06705C185.158 6.54252 185.422 5.98216 185.895 5.81585C186.685 5.53951 187.448 5.27084 188.187 5.01241C188.66 4.8461 189.166 5.13524 189.316 5.65977C189.467 6.1843 189.206 6.74466 188.732 6.91097C187.993 7.17196 187.228 7.44061 186.438 7.71695C186.385 7.73486 186.332 7.74766 186.279 7.75534ZM190.864 6.14337C190.441 6.20222 190.028 5.92331 189.894 5.45762C189.744 4.93309 190.005 4.37275 190.478 4.20388C191.28 3.91986 192.045 3.6512 192.77 3.39278C193.244 3.2239 193.749 3.51302 193.902 4.03755C194.054 4.56209 193.793 5.12245 193.32 5.29132C192.594 5.54975 191.83 5.8184 191.026 6.10242C190.97 6.12289 190.917 6.13569 190.864 6.14337ZM13.1419 30.6121C12.7723 30.6658 12.3958 30.456 12.2202 30.0646C12.0008 29.5707 12.1832 28.972 12.6268 28.7289C13.329 28.3425 14.0705 27.9562 14.8329 27.5775C15.2856 27.3523 15.8192 27.5749 16.0225 28.0764C16.2258 28.578 16.0248 29.169 15.5721 29.3942C14.8305 29.7626 14.1098 30.1413 13.4261 30.5149C13.336 30.5661 13.2389 30.5993 13.1419 30.6121ZM195.45 4.51603C195.027 4.57488 194.613 4.29599 194.479 3.83286C194.327 3.30833 194.588 2.74797 195.062 2.5791C195.898 2.28229 196.662 2.00852 197.353 1.76033C197.827 1.59146 198.333 1.87802 198.487 2.40255C198.64 2.92708 198.381 3.48744 197.907 3.65887C197.217 3.90707 196.45 4.18085 195.611 4.47766C195.558 4.49557 195.503 4.50835 195.45 4.51603ZM200.04 2.87335C199.619 2.9322 199.206 2.65587 199.069 2.19275C198.915 1.66822 199.173 1.1053 199.647 0.936424C201.063 0.427245 201.818 0.150904 201.818 0.150904C202.29 -0.0205279 202.8 0.263497 202.955 0.78547C203.11 1.30744 202.853 1.87291 202.382 2.04434C202.382 2.04434 201.624 2.32068 200.204 2.83242C200.151 2.85289 200.095 2.86568 200.04 2.87335ZM17.5264 28.4219C17.1337 28.4782 16.7386 28.2377 16.5815 27.8129C16.3921 27.3037 16.6116 26.7203 17.069 26.5105C17.7943 26.1779 18.5543 25.8453 19.3259 25.5178C19.7902 25.3207 20.3099 25.5792 20.4878 26.0935C20.6657 26.6078 20.4324 27.1835 19.9681 27.3805C19.2104 27.7003 18.4665 28.0278 17.755 28.3554C17.6811 28.3886 17.6026 28.4116 17.5264 28.4219ZM22.0171 26.5157C21.6059 26.5745 21.2016 26.311 21.0561 25.8606C20.8898 25.3412 21.1323 24.7732 21.6013 24.5864C22.3451 24.2921 23.1143 23.9979 23.8928 23.7113C24.3664 23.5348 24.8746 23.8188 25.0316 24.3408C25.1887 24.8627 24.9346 25.4282 24.4634 25.6022C23.6964 25.8862 22.9365 26.1753 22.2065 26.4645C22.1441 26.4901 22.0794 26.5054 22.0171 26.5157ZM26.5817 24.8269C26.1566 24.8858 25.7431 24.6043 25.6092 24.1361C25.4613 23.6115 25.7247 23.0512 26.1982 22.8874C26.9513 22.6264 27.7298 22.3629 28.5152 22.107C28.991 21.9509 29.4923 22.2529 29.6332 22.78C29.7741 23.307 29.5016 23.8623 29.0257 24.0184C28.2518 24.2717 27.4826 24.5327 26.7388 24.7911C26.6856 24.8064 26.6325 24.8192 26.5817 24.8269ZM31.1948 23.3147C30.7582 23.3761 30.3355 23.0768 30.2154 22.5932C30.0814 22.0635 30.3609 21.5134 30.8391 21.365C31.606 21.1271 32.3914 20.8917 33.1745 20.6614C33.655 20.5206 34.147 20.8379 34.2741 21.3701C34.4011 21.9023 34.1147 22.4473 33.6342 22.5881C32.8603 22.8158 32.0842 23.0486 31.3242 23.284C31.2803 23.2994 31.2364 23.3096 31.1948 23.3147ZM35.8495 21.9509C35.4037 22.0149 34.974 21.7002 34.8631 21.2038C34.743 20.669 35.0364 20.1292 35.5169 19.9935C36.2884 19.7786 37.0808 19.5662 37.8662 19.359C38.3513 19.2336 38.8341 19.5637 38.9496 20.0985C39.0651 20.6332 38.7648 21.1705 38.282 21.2985C37.5035 21.5032 36.7181 21.7156 35.9535 21.9254C35.9188 21.9382 35.8842 21.9458 35.8495 21.9509ZM40.5343 20.7202C40.0792 20.7842 39.6449 20.4567 39.5433 19.95C39.4347 19.4127 39.7396 18.8805 40.2247 18.7603C41.0124 18.5632 41.8094 18.3739 42.5902 18.1897C43.0776 18.0745 43.5535 18.42 43.6574 18.9598C43.7591 19.4997 43.4495 20.0268 42.9621 20.1419C42.1882 20.3236 41.4005 20.513 40.6174 20.7074C40.592 20.7125 40.562 20.7177 40.5343 20.7202ZM45.2537 19.62C44.787 19.6865 44.3481 19.3411 44.258 18.8242C44.1633 18.2843 44.4798 17.7598 44.9672 17.6549C46.471 17.3274 47.3373 17.1636 47.372 17.156C47.8548 17.0613 48.326 17.4272 48.4115 17.9722C48.4946 18.5146 48.1666 19.0289 47.6769 19.1236C47.6676 19.1262 46.7945 19.2899 45.316 19.6123C45.2929 19.6149 45.2744 19.6174 45.2537 19.62Z" fill="white" fill-opacity="0.5"/>
</svg>
