<svg width="160" height="156" viewBox="0 0 160 156" fill="none" xmlns="http://www.w3.org/2000/svg">
<g clip-path="url(#clip0_1072_969)">
<path fill-rule="evenodd" clip-rule="evenodd" d="M90.2938 79.4318C76.3762 79.4318 65.0938 90.4321 65.0938 104.002V104.064C65.0938 117.634 76.3762 128.634 90.2938 128.634H127.456C128.844 128.634 130.206 128.525 131.534 128.314L138.734 135.095C138.929 135.279 139.191 135.382 139.463 135.382C140.043 135.382 140.513 134.924 140.513 134.359L140.513 125.083C147.793 120.775 152.656 112.974 152.656 104.064V104.002C152.656 90.4321 141.374 79.4318 127.456 79.4318H90.2938Z" fill="#1443BD"/>
<path fill-rule="evenodd" clip-rule="evenodd" d="M90.2938 79.4318C76.3762 79.4318 65.0938 90.4321 65.0938 104.002V104.064C65.0938 117.634 76.3762 128.634 90.2938 128.634H127.456C128.844 128.634 130.206 128.525 131.534 128.314L138.734 135.095C138.929 135.279 139.191 135.382 139.463 135.382C140.043 135.382 140.513 134.924 140.513 134.359L140.513 125.083C147.793 120.775 152.656 112.974 152.656 104.064V104.002C152.656 90.4321 141.374 79.4318 127.456 79.4318H90.2938Z" fill="white" fill-opacity="0.65"/>
<g filter="url(#filter0_ddddd_1072_969)">
<path d="M96.4062 20.5667H43.3438C23.4615 20.5667 7.34375 36.2815 7.34375 55.6666C7.34375 75.0518 23.4615 90.7666 43.3438 90.7666H96.4062C116.288 90.7666 132.406 75.0518 132.406 55.6666C132.406 36.2815 116.288 20.5667 96.4062 20.5667Z" fill="white"/>
</g>
<g filter="url(#filter1_ddddd_1072_969)">
<path fill-rule="evenodd" clip-rule="evenodd" d="M24.6875 80.5566V98.9318C24.6875 99.7396 25.3591 100.394 26.1875 100.394C26.576 100.394 26.9494 100.247 27.229 99.9843L41.0782 86.9556L24.6875 80.5566Z" fill="white"/>
</g>
<path d="M45.7812 60.0531C48.9914 60.0531 51.5937 57.5158 51.5937 54.3859C51.5937 51.256 48.9914 48.7188 45.7812 48.7188C42.5711 48.7188 39.9688 51.256 39.9688 54.3859C39.9688 57.5158 42.5711 60.0531 45.7812 60.0531Z" fill="#1443BD"/>
<path d="M45.7812 60.0531C48.9914 60.0531 51.5937 57.5158 51.5937 54.3859C51.5937 51.256 48.9914 48.7188 45.7812 48.7188C42.5711 48.7188 39.9688 51.256 39.9688 54.3859C39.9688 57.5158 42.5711 60.0531 45.7812 60.0531Z" fill="black" fill-opacity="0.5"/>
<path d="M69.5938 60.0531C72.8039 60.0531 75.4062 57.5158 75.4062 54.3859C75.4062 51.256 72.8039 48.7188 69.5938 48.7188C66.3836 48.7188 63.7812 51.256 63.7812 54.3859C63.7812 57.5158 66.3836 60.0531 69.5938 60.0531Z" fill="#1443BD"/>
<path d="M69.5938 60.0531C72.8039 60.0531 75.4062 57.5158 75.4062 54.3859C75.4062 51.256 72.8039 48.7188 69.5938 48.7188C66.3836 48.7188 63.7812 51.256 63.7812 54.3859C63.7812 57.5158 66.3836 60.0531 69.5938 60.0531Z" fill="black" fill-opacity="0.5"/>
<path d="M93.9687 60.0531C97.1789 60.0531 99.7812 57.5158 99.7812 54.3859C99.7812 51.256 97.1789 48.7188 93.9687 48.7188C90.7586 48.7188 88.1562 51.256 88.1562 54.3859C88.1562 57.5158 90.7586 60.0531 93.9687 60.0531Z" fill="#1443BD"/>
<path d="M93.9687 60.0531C97.1789 60.0531 99.7812 57.5158 99.7812 54.3859C99.7812 51.256 97.1789 48.7188 93.9687 48.7188C90.7586 48.7188 88.1562 51.256 88.1562 54.3859C88.1562 57.5158 90.7586 60.0531 93.9687 60.0531Z" fill="black" fill-opacity="0.5"/>
</g>
<defs>
<filter id="filter0_ddddd_1072_969" x="-62.6562" y="-9.43335" width="265.062" height="210.2" filterUnits="userSpaceOnUse" color-interpolation-filters="sRGB">
<feFlood flood-opacity="0" result="BackgroundImageFix"/>
<feColorMatrix in="SourceAlpha" type="matrix" values="0 0 0 0 0 0 0 0 0 0 0 0 0 0 0 0 0 0 127 0" result="hardAlpha"/>
<feOffset dy="6"/>
<feGaussianBlur stdDeviation="4"/>
<feColorMatrix type="matrix" values="0 0 0 0 0.705882 0 0 0 0 0.831373 0 0 0 0 0.921569 0 0 0 0.12 0"/>
<feBlend mode="normal" in2="BackgroundImageFix" result="effect1_dropShadow_1072_969"/>
<feColorMatrix in="SourceAlpha" type="matrix" values="0 0 0 0 0 0 0 0 0 0 0 0 0 0 0 0 0 0 127 0" result="hardAlpha"/>
<feOffset dy="8"/>
<feGaussianBlur stdDeviation="12"/>
<feColorMatrix type="matrix" values="0 0 0 0 0.705882 0 0 0 0 0.831373 0 0 0 0 0.921569 0 0 0 0.08 0"/>
<feBlend mode="normal" in2="effect1_dropShadow_1072_969" result="effect2_dropShadow_1072_969"/>
<feColorMatrix in="SourceAlpha" type="matrix" values="0 0 0 0 0 0 0 0 0 0 0 0 0 0 0 0 0 0 127 0" result="hardAlpha"/>
<feOffset dy="16"/>
<feGaussianBlur stdDeviation="18"/>
<feColorMatrix type="matrix" values="0 0 0 0 0.705882 0 0 0 0 0.831373 0 0 0 0 0.921569 0 0 0 0.04 0"/>
<feBlend mode="normal" in2="effect2_dropShadow_1072_969" result="effect3_dropShadow_1072_969"/>
<feColorMatrix in="SourceAlpha" type="matrix" values="0 0 0 0 0 0 0 0 0 0 0 0 0 0 0 0 0 0 127 0" result="hardAlpha"/>
<feOffset dy="40"/>
<feGaussianBlur stdDeviation="35"/>
<feColorMatrix type="matrix" values="0 0 0 0 0.705882 0 0 0 0 0.831373 0 0 0 0 0.921569 0 0 0 0.04 0"/>
<feBlend mode="normal" in2="effect3_dropShadow_1072_969" result="effect4_dropShadow_1072_969"/>
<feColorMatrix in="SourceAlpha" type="matrix" values="0 0 0 0 0 0 0 0 0 0 0 0 0 0 0 0 0 0 127 0" result="hardAlpha"/>
<feOffset dy="2"/>
<feGaussianBlur stdDeviation="2"/>
<feColorMatrix type="matrix" values="0 0 0 0 0.87451 0 0 0 0 0.929412 0 0 0 0 0.964706 0 0 0 0.4 0"/>
<feBlend mode="normal" in2="effect4_dropShadow_1072_969" result="effect5_dropShadow_1072_969"/>
<feBlend mode="normal" in="SourceGraphic" in2="effect5_dropShadow_1072_969" result="shape"/>
</filter>
<filter id="filter1_ddddd_1072_969" x="-45.3125" y="50.5566" width="156.391" height="159.838" filterUnits="userSpaceOnUse" color-interpolation-filters="sRGB">
<feFlood flood-opacity="0" result="BackgroundImageFix"/>
<feColorMatrix in="SourceAlpha" type="matrix" values="0 0 0 0 0 0 0 0 0 0 0 0 0 0 0 0 0 0 127 0" result="hardAlpha"/>
<feOffset dy="6"/>
<feGaussianBlur stdDeviation="4"/>
<feColorMatrix type="matrix" values="0 0 0 0 0.705882 0 0 0 0 0.831373 0 0 0 0 0.921569 0 0 0 0.12 0"/>
<feBlend mode="normal" in2="BackgroundImageFix" result="effect1_dropShadow_1072_969"/>
<feColorMatrix in="SourceAlpha" type="matrix" values="0 0 0 0 0 0 0 0 0 0 0 0 0 0 0 0 0 0 127 0" result="hardAlpha"/>
<feOffset dy="8"/>
<feGaussianBlur stdDeviation="12"/>
<feColorMatrix type="matrix" values="0 0 0 0 0.705882 0 0 0 0 0.831373 0 0 0 0 0.921569 0 0 0 0.08 0"/>
<feBlend mode="normal" in2="effect1_dropShadow_1072_969" result="effect2_dropShadow_1072_969"/>
<feColorMatrix in="SourceAlpha" type="matrix" values="0 0 0 0 0 0 0 0 0 0 0 0 0 0 0 0 0 0 127 0" result="hardAlpha"/>
<feOffset dy="16"/>
<feGaussianBlur stdDeviation="18"/>
<feColorMatrix type="matrix" values="0 0 0 0 0.705882 0 0 0 0 0.831373 0 0 0 0 0.921569 0 0 0 0.04 0"/>
<feBlend mode="normal" in2="effect2_dropShadow_1072_969" result="effect3_dropShadow_1072_969"/>
<feColorMatrix in="SourceAlpha" type="matrix" values="0 0 0 0 0 0 0 0 0 0 0 0 0 0 0 0 0 0 127 0" result="hardAlpha"/>
<feOffset dy="40"/>
<feGaussianBlur stdDeviation="35"/>
<feColorMatrix type="matrix" values="0 0 0 0 0.705882 0 0 0 0 0.831373 0 0 0 0 0.921569 0 0 0 0.04 0"/>
<feBlend mode="normal" in2="effect3_dropShadow_1072_969" result="effect4_dropShadow_1072_969"/>
<feColorMatrix in="SourceAlpha" type="matrix" values="0 0 0 0 0 0 0 0 0 0 0 0 0 0 0 0 0 0 127 0" result="hardAlpha"/>
<feOffset dy="2"/>
<feGaussianBlur stdDeviation="2"/>
<feColorMatrix type="matrix" values="0 0 0 0 0.87451 0 0 0 0 0.929412 0 0 0 0 0.964706 0 0 0 0.4 0"/>
<feBlend mode="normal" in2="effect4_dropShadow_1072_969" result="effect5_dropShadow_1072_969"/>
<feBlend mode="normal" in="SourceGraphic" in2="effect5_dropShadow_1072_969" result="shape"/>
</filter>
<clipPath id="clip0_1072_969">
<rect width="160" height="156" fill="white"/>
</clipPath>
</defs>
</svg>
