<svg width="378" height="357" viewBox="0 0 378 357" fill="none" xmlns="http://www.w3.org/2000/svg">
<mask id="mask0_1058_2486" style="mask-type:alpha" maskUnits="userSpaceOnUse" x="-4" y="16" width="334" height="325">
<ellipse rx="166.675" ry="162.133" transform="matrix(-1 0 0 1 162.953 178.5)" fill="#C4C4C4"/>
</mask>
<g mask="url(#mask0_1058_2486)">
<path fill-rule="evenodd" clip-rule="evenodd" d="M287.816 194.241C292.686 183.422 287.618 170.811 276.494 166.074L212.791 138.943C201.667 134.207 188.704 139.137 183.833 149.957C178.964 160.776 184.034 173.387 195.156 178.124L258.862 205.253C269.983 209.991 282.947 205.06 287.816 194.241Z" fill="#E4EBF7"/>
<path fill-rule="evenodd" clip-rule="evenodd" d="M21.3744 226.474C12.4118 218.504 11.7904 204.977 19.9832 196.262L71.1687 141.8C79.3615 133.085 93.2675 132.479 102.229 140.448C111.188 148.416 111.811 161.944 103.62 170.66L52.4327 225.12C44.2399 233.837 30.3354 234.443 21.3744 226.474Z" fill="#E4EBF7"/>
<path fill-rule="evenodd" clip-rule="evenodd" d="M114.001 294.165C114.001 294.165 106.051 278.022 113.49 270.34C120.225 263.381 128.172 269.08 128.172 269.08C128.172 269.08 136.994 273.528 144.103 281.751C148.788 287.169 156.623 298.351 154.028 301.13C150.648 304.751 142.539 291.595 139.374 293.383C136.127 295.218 137.595 298.057 138.75 305.581C139.472 310.284 142.086 314.643 141.916 318.745C141.584 326.759 123.85 319.348 114.001 294.165Z" fill="#FFC999"/>
<path d="M131.511 298.884C131.2 298.852 130.922 299.071 130.889 299.372L130.877 299.503C130.873 299.559 130.868 299.628 130.864 299.708C130.762 301.473 130.926 303.846 131.567 306.65C132.528 310.858 134.389 315.133 137.36 319.289C137.538 319.538 137.89 319.6 138.146 319.426C138.402 319.253 138.465 318.911 138.287 318.662C135.403 314.627 133.6 310.485 132.669 306.412C132.089 303.871 131.915 301.707 131.977 300.07L131.991 299.77C131.999 299.627 132.007 299.533 132.012 299.489C132.045 299.187 131.821 298.916 131.511 298.884Z" fill="#DD936F"/>
<path d="M124.799 298.898L124.707 298.9C124.397 298.929 124.17 299.198 124.2 299.5C124.576 303.284 125.703 306.977 127.346 310.467C128.062 311.989 128.83 313.371 129.598 314.587L129.912 315.075C130.014 315.229 130.112 315.375 130.206 315.513L130.49 315.918C130.553 316.006 130.602 316.072 130.635 316.115C130.821 316.359 131.174 316.41 131.425 316.229C131.675 316.048 131.728 315.704 131.542 315.461L131.278 315.094C131.062 314.786 130.821 314.424 130.56 314.012C129.815 312.832 129.069 311.489 128.373 310.01C126.779 306.624 125.687 303.046 125.324 299.394C125.297 299.122 125.071 298.916 124.799 298.898Z" fill="#DD936F"/>
<path d="M118.856 295.697C118.575 295.695 118.341 295.893 118.295 296.153L118.287 296.242C118.284 296.99 118.439 298.339 118.901 300.241C119.657 303.358 121.021 306.924 123.141 310.889C123.285 311.159 123.626 311.263 123.903 311.123C124.179 310.983 124.287 310.652 124.143 310.383C122.066 306.498 120.735 303.016 120 299.988C119.742 298.929 119.578 298.001 119.488 297.212L119.441 296.743C119.426 296.563 119.419 296.422 119.417 296.319L119.416 296.25L119.41 296.161C119.368 295.9 119.137 295.699 118.856 295.697Z" fill="#DD936F"/>
<path fill-rule="evenodd" clip-rule="evenodd" d="M129.199 258.549L106.097 287.479L23.1588 228.697C13.57 221.451 11.8365 208.016 19.2832 198.689C26.7331 189.361 40.5445 187.675 50.1317 194.919L129.199 258.549Z" fill="#E4EBF7"/>
<path d="M62.4197 204.783C62.0816 204.516 61.5849 204.566 61.3102 204.895C61.0606 205.194 61.0804 205.62 61.3401 205.896L61.4252 205.974L128.541 259.004L105.912 287.341C105.669 287.645 105.699 288.071 105.964 288.342L106.051 288.418C106.364 288.654 106.802 288.625 107.08 288.367L107.158 288.282L130.26 259.353C130.499 259.054 130.475 258.635 130.218 258.364L130.134 258.287L62.4197 204.783Z" fill="#1443BD"/>
<path d="M62.4197 204.783C62.0816 204.516 61.5849 204.566 61.3102 204.895C61.0606 205.194 61.0804 205.62 61.3401 205.896L61.4252 205.974L128.541 259.004L105.912 287.341C105.669 287.645 105.699 288.071 105.964 288.342L106.051 288.418C106.364 288.654 106.802 288.625 107.08 288.367L107.158 288.282L130.26 259.353C130.499 259.054 130.475 258.635 130.218 258.364L130.134 258.287L62.4197 204.783Z" fill="white" fill-opacity="0.2"/>
<path d="M115.39 250.714C115.077 250.478 114.639 250.506 114.362 250.765L114.283 250.849L94.6656 275.413C94.3984 275.748 94.4606 276.23 94.8046 276.49C95.1173 276.726 95.5552 276.698 95.833 276.439L95.9113 276.355L115.529 251.791C115.796 251.456 115.734 250.974 115.39 250.714Z" fill="#1443BD"/>
<path d="M115.39 250.714C115.077 250.478 114.639 250.506 114.362 250.765L114.283 250.849L94.6656 275.413C94.3984 275.748 94.4606 276.23 94.8046 276.49C95.1173 276.726 95.5552 276.698 95.833 276.439L95.9113 276.355L115.529 251.791C115.796 251.456 115.734 250.974 115.39 250.714Z" fill="white" fill-opacity="0.2"/>
<path fill-rule="evenodd" clip-rule="evenodd" d="M231.778 69.7014C231.778 69.7014 242.216 84.4423 236.1 93.1606C230.561 101.055 221.798 96.6283 221.798 96.6283C221.798 96.6283 212.372 93.5719 204.031 86.526C198.537 81.8845 189.008 72.026 191.125 68.8898C193.884 64.7991 204.001 76.5663 206.84 74.3199C209.755 72.0153 207.848 69.4344 205.503 62.1753C204.036 57.6396 200.756 53.73 200.266 49.6547C199.31 41.6867 218.016 46.3205 231.778 69.7014Z" fill="#FFC999"/>
<path d="M204.643 48.4586C204.447 48.2595 204.122 48.2527 203.917 48.4435C203.712 48.6343 203.705 48.9504 203.901 49.1496C204.06 49.311 204.217 49.4731 204.372 49.6359C208.034 53.4868 210.472 57.6092 211.921 61.7288C212.426 63.1675 212.772 64.5019 212.988 65.6971C213.044 66.0092 213.088 66.2944 213.122 66.5509L213.172 66.9918C213.179 67.074 213.184 67.1336 213.186 67.1698C213.2 67.4453 213.441 67.6573 213.724 67.6434C214.008 67.6296 214.226 67.395 214.211 67.1195L214.195 66.9071L214.172 66.6898C214.135 66.3523 214.078 65.9624 213.999 65.5245C213.775 64.2796 213.416 62.8949 212.892 61.4055C211.399 57.1589 208.89 52.9151 205.126 48.9576C204.967 48.7905 204.806 48.6242 204.643 48.4586Z" fill="#1443BD"/>
<path d="M204.643 48.4586C204.447 48.2595 204.122 48.2527 203.917 48.4435C203.712 48.6343 203.705 48.9504 203.901 49.1496C204.06 49.311 204.217 49.4731 204.372 49.6359C208.034 53.4868 210.472 57.6092 211.921 61.7288C212.426 63.1675 212.772 64.5019 212.988 65.6971C213.044 66.0092 213.088 66.2944 213.122 66.5509L213.172 66.9918C213.179 67.074 213.184 67.1336 213.186 67.1698C213.2 67.4453 213.441 67.6573 213.724 67.6434C214.008 67.6296 214.226 67.395 214.211 67.1195L214.195 66.9071L214.172 66.6898C214.135 66.3523 214.078 65.9624 213.999 65.5245C213.775 64.2796 213.416 62.8949 212.892 61.4055C211.399 57.1589 208.89 52.9151 205.126 48.9576C204.967 48.7905 204.806 48.6242 204.643 48.4586Z" fill="white" fill-opacity="0.2"/>
<path d="M211.814 50.5566C211.601 50.3536 211.26 50.3565 211.051 50.5633C210.842 50.77 210.845 51.1023 211.058 51.3054L211.285 51.5315C211.336 51.5843 211.395 51.6446 211.459 51.7123L211.869 52.1507C212.082 52.3842 212.307 52.6389 212.543 52.9142C213.668 54.2276 214.794 55.7326 215.845 57.4042C217.597 60.1922 218.959 63.1566 219.78 66.2466C219.854 66.5272 220.149 66.6959 220.437 66.6234C220.726 66.5508 220.899 66.2646 220.825 65.984C219.975 62.7862 218.57 59.7282 216.765 56.8567C215.686 55.1392 214.529 53.5932 213.372 52.2423C213.047 51.8633 212.741 51.5214 212.457 51.218L212.063 50.8052C212.008 50.7485 211.959 50.6994 211.917 50.6579L211.814 50.5566Z" fill="#DD936F"/>
<path fill-rule="evenodd" clip-rule="evenodd" d="M208.32 102.221L242.657 87.1777L287.651 176.892C292.638 187.661 287.705 200.323 276.635 205.172C265.564 210.022 252.547 205.224 247.561 194.454L208.32 102.221Z" fill="#E4EBF7"/>
<path d="M243.148 86.3723C242.984 86.0181 242.578 85.844 242.205 85.9514L242.105 85.9878L207.767 101.031C207.415 101.185 207.234 101.561 207.326 101.915L207.361 102.021L237.082 172.673C237.247 173.065 237.707 173.253 238.11 173.093C238.48 172.946 238.673 172.557 238.576 172.191L238.542 172.092L209.11 102.126L242.753 87.3868C243.117 87.2273 243.296 86.8324 243.185 86.4701L243.148 86.3723Z" fill="#1443BD"/>
<path d="M243.148 86.3723C242.984 86.0181 242.578 85.844 242.205 85.9514L242.105 85.9878L207.767 101.031C207.415 101.185 207.234 101.561 207.326 101.915L207.361 102.021L237.082 172.673C237.247 173.065 237.707 173.253 238.11 173.093C238.48 172.946 238.673 172.557 238.576 172.191L238.542 172.092L209.11 102.126L242.753 87.3868C243.117 87.2273 243.296 86.8324 243.185 86.4701L243.148 86.3723Z" fill="white" fill-opacity="0.2"/>
<path d="M248.315 99.9493C248.167 99.5886 247.769 99.3978 247.392 99.4897L247.29 99.5219L216.202 111.619C215.797 111.776 215.601 112.223 215.762 112.616C215.911 112.977 216.309 113.168 216.686 113.076L216.788 113.044L247.876 100.947C248.28 100.789 248.477 100.343 248.315 99.9493Z" fill="#1443BD"/>
<path d="M248.315 99.9493C248.167 99.5886 247.769 99.3978 247.392 99.4897L247.29 99.5219L216.202 111.619C215.797 111.776 215.601 112.223 215.762 112.616C215.911 112.977 216.309 113.168 216.686 113.076L216.788 113.044L247.876 100.947C248.28 100.789 248.477 100.343 248.315 99.9493Z" fill="white" fill-opacity="0.2"/>
<path fill-rule="evenodd" clip-rule="evenodd" d="M204.665 99.7093L227.405 84.9532C229.287 83.7318 229.797 81.2583 228.541 79.4263L195.896 31.8205C194.642 29.99 192.096 29.4959 190.214 30.7173L167.473 45.4719C165.592 46.6933 165.082 49.1682 166.338 50.9988L198.981 98.6046C200.237 100.437 202.783 100.931 204.665 99.7093Z" fill="#1443BD"/>
<path fill-rule="evenodd" clip-rule="evenodd" d="M204.665 99.7093L227.405 84.9532C229.287 83.7318 229.797 81.2583 228.541 79.4263L195.896 31.8205C194.642 29.99 192.096 29.4959 190.214 30.7173L167.473 45.4719C165.592 46.6933 165.082 49.1682 166.338 50.9988L198.981 98.6046C200.237 100.437 202.783 100.931 204.665 99.7093Z" fill="black" fill-opacity="0.5"/>
<path fill-rule="evenodd" clip-rule="evenodd" d="M146.24 420.217L160.889 336.492C163.691 319.139 150.1 303.375 132.049 303.033C116.424 302.737 103.221 314.239 101.808 329.378L93.8704 414.458C93.8704 414.458 90.2425 438.574 116.397 441.218C141.833 443.79 146.24 420.217 146.24 420.217Z" fill="#1443BD"/>
<path fill-rule="evenodd" clip-rule="evenodd" d="M146.24 420.217L160.889 336.492C163.691 319.139 150.1 303.375 132.049 303.033C116.424 302.737 103.221 314.239 101.808 329.378L93.8704 414.458C93.8704 414.458 90.2425 438.574 116.397 441.218C141.833 443.79 146.24 420.217 146.24 420.217Z" fill="black" fill-opacity="0.5"/>
<path fill-rule="evenodd" clip-rule="evenodd" d="M167.784 415.412L157.197 331.11C155.238 313.649 169.574 298.523 187.624 299.007C203.246 299.426 215.878 311.52 216.558 326.708L220.373 412.055C220.373 412.055 222.832 436.31 196.579 437.756C171.046 439.161 167.784 415.412 167.784 415.412Z" fill="#1443BD"/>
<path fill-rule="evenodd" clip-rule="evenodd" d="M167.784 415.412L157.197 331.11C155.238 313.649 169.574 298.523 187.624 299.007C203.246 299.426 215.878 311.52 216.558 326.708L220.373 412.055C220.373 412.055 222.832 436.31 196.579 437.756C171.046 439.161 167.784 415.412 167.784 415.412Z" fill="black" fill-opacity="0.5"/>
<path fill-rule="evenodd" clip-rule="evenodd" d="M152.805 346.893L107.115 312.388C103.942 309.991 102.317 306.134 102.85 302.26L108.951 257.844L216.745 261.195L216.536 307.147C216.525 310.004 215.365 312.732 213.315 314.779C207.03 321.056 191.328 333.483 164.151 346.701C160.463 348.495 155.962 349.474 152.805 346.893Z" fill="#1443BD"/>
<path fill-rule="evenodd" clip-rule="evenodd" d="M152.805 346.893L107.115 312.388C103.942 309.991 102.317 306.134 102.85 302.26L108.951 257.844L216.745 261.195L216.536 307.147C216.525 310.004 215.365 312.732 213.315 314.779C207.03 321.056 191.328 333.483 164.151 346.701C160.463 348.495 155.962 349.474 152.805 346.893Z" fill="black" fill-opacity="0.5"/>
<path d="M111.388 270.633C111.054 270.621 110.773 270.875 110.761 271.2C110.75 271.492 110.96 271.742 111.246 271.798L111.343 271.809L208.984 275.288C209.318 275.3 209.598 275.046 209.611 274.721C209.621 274.429 209.411 274.179 209.126 274.123L209.028 274.112L111.388 270.633Z" fill="#1443BD"/>
<path d="M111.388 270.633C111.054 270.621 110.773 270.875 110.761 271.2C110.75 271.492 110.96 271.742 111.246 271.798L111.343 271.809L208.984 275.288C209.318 275.3 209.598 275.046 209.611 274.721C209.621 274.429 209.411 274.179 209.126 274.123L209.028 274.112L111.388 270.633Z" fill="black" fill-opacity="0.5"/>
<path d="M167.797 259.672C167.497 259.662 167.239 259.866 167.182 260.144L167.17 260.239L166.683 273.191C166.671 273.515 166.932 273.788 167.265 273.8C167.566 273.811 167.823 273.606 167.881 273.329L167.892 273.234L168.379 260.282C168.392 259.957 168.131 259.684 167.797 259.672Z" fill="#1443BD"/>
<path d="M167.797 259.672C167.497 259.662 167.239 259.866 167.182 260.144L167.17 260.239L166.683 273.191C166.671 273.515 166.932 273.788 167.265 273.8C167.566 273.811 167.823 273.606 167.881 273.329L167.892 273.234L168.379 260.282C168.392 259.957 168.131 259.684 167.797 259.672Z" fill="black" fill-opacity="0.5"/>
<path fill-rule="evenodd" clip-rule="evenodd" d="M127.993 69.6537C127.993 69.6537 124.374 37.8981 165.294 40.3608C188.079 43.2332 186.663 80.1443 186.663 80.1443C186.663 80.1443 188.073 87.9328 184.887 95.8441C181.32 104.705 172.531 107.499 161.027 108.245C139.714 107.03 131.389 95.4252 131.389 95.4252C131.389 95.4252 116.674 96.1617 118.336 78.2125C119.994 61.5644 127.993 69.6537 127.993 69.6537Z" fill="#FFC999"/>
<path fill-rule="evenodd" clip-rule="evenodd" d="M131.918 47.8893C131.891 56.0461 125.074 62.6377 116.69 62.6133C108.303 62.5886 101.527 55.9555 101.552 47.7987C101.579 39.642 108.396 33.0502 116.781 33.0762C125.167 33.1009 131.943 39.7325 131.918 47.8893Z" fill="#1443BD"/>
<path fill-rule="evenodd" clip-rule="evenodd" d="M131.918 47.8893C131.891 56.0461 125.074 62.6377 116.69 62.6133C108.303 62.5886 101.527 55.9555 101.552 47.7987C101.579 39.642 108.396 33.0502 116.781 33.0762C125.167 33.1009 131.943 39.7325 131.918 47.8893Z" fill="black" fill-opacity="0.5"/>
<path fill-rule="evenodd" clip-rule="evenodd" d="M186.461 81.2904C186.461 81.2904 191.476 72.8958 194.5 62.8778C197.523 52.8598 177.969 32.7486 175.314 31.1237C172.658 29.4988 171.333 27.877 153.026 34.2922C98.73 36.244 111.456 84.6676 111.456 84.6676C111.456 84.6676 105.121 89.0989 108.742 101.078C113.024 113.057 130.02 113.525 130.02 113.525L130.67 94.8053C130.67 94.8053 124.924 95.2088 120.622 88.7276C116.319 82.2463 120.08 74.3964 122.742 73.7566C125.116 72.0366 131.034 72.9173 131.014 79.8297C131.003 83.3097 137.838 75.5303 140.544 62.2886C159.506 58.7871 164.293 45.9689 164.293 45.9689C164.293 45.9689 164.921 58.2624 161.913 63.4287C171.896 60.5471 177.232 55.3885 175.587 49.8846C186.878 54.7686 186.461 81.2904 186.461 81.2904Z" fill="#1443BD"/>
<path fill-rule="evenodd" clip-rule="evenodd" d="M186.461 81.2904C186.461 81.2904 191.476 72.8958 194.5 62.8778C197.523 52.8598 177.969 32.7486 175.314 31.1237C172.658 29.4988 171.333 27.877 153.026 34.2922C98.73 36.244 111.456 84.6676 111.456 84.6676C111.456 84.6676 105.121 89.0989 108.742 101.078C113.024 113.057 130.02 113.525 130.02 113.525L130.67 94.8053C130.67 94.8053 124.924 95.2088 120.622 88.7276C116.319 82.2463 120.08 74.3964 122.742 73.7566C125.116 72.0366 131.034 72.9173 131.014 79.8297C131.003 83.3097 137.838 75.5303 140.544 62.2886C159.506 58.7871 164.293 45.9689 164.293 45.9689C164.293 45.9689 164.921 58.2624 161.913 63.4287C171.896 60.5471 177.232 55.3885 175.587 49.8846C186.878 54.7686 186.461 81.2904 186.461 81.2904Z" fill="black" fill-opacity="0.5"/>
<path fill-rule="evenodd" clip-rule="evenodd" d="M130.012 115.83L130.58 87.918L167.99 88.8693C167.99 88.8693 167.787 107.928 168.503 115.661C192.818 128.763 137.718 138.392 125.033 123.665C121.113 119.117 130.012 115.83 130.012 115.83Z" fill="#FFC999"/>
<path fill-rule="evenodd" clip-rule="evenodd" d="M165.051 75.2287C164.327 82.3007 158.639 87.5406 152.341 86.9315C146.046 86.3223 141.528 80.0958 142.251 73.0238C142.975 65.9503 148.664 60.7104 154.961 61.3195C161.256 61.9287 165.774 68.1567 165.051 75.2287Z" fill="white"/>
<path d="M155.039 60.556C161.795 61.2097 166.6 67.8332 165.836 75.3045C165.071 82.7768 159.021 88.3484 152.263 87.6948C145.507 87.0411 140.703 80.419 141.466 72.9479C142.219 65.5864 148.103 60.0691 154.737 60.5309L155.039 60.556ZM143.036 73.0998C142.354 79.7724 146.584 85.6034 152.419 86.168C158.256 86.7325 163.583 81.8266 164.267 75.1526C164.948 68.4797 160.718 62.6475 154.883 62.0829C149.047 61.5183 143.719 66.4251 143.036 73.0998Z" fill="#1443BD"/>
<path d="M155.039 60.556C161.795 61.2097 166.6 67.8332 165.836 75.3045C165.071 82.7768 159.021 88.3484 152.263 87.6948C145.507 87.0411 140.703 80.419 141.466 72.9479C142.219 65.5864 148.103 60.0691 154.737 60.5309L155.039 60.556ZM143.036 73.0998C142.354 79.7724 146.584 85.6034 152.419 86.168C158.256 86.7325 163.583 81.8266 164.267 75.1526C164.948 68.4797 160.718 62.6475 154.883 62.0829C149.047 61.5183 143.719 66.4251 143.036 73.0998Z" fill="black" fill-opacity="0.5"/>
<path fill-rule="evenodd" clip-rule="evenodd" d="M190.52 74.3536C189.798 81.4256 184.433 86.6962 178.539 86.1269C172.644 85.5561 168.451 79.3603 169.174 72.2883C169.898 65.2163 175.261 59.9442 181.155 60.515C187.052 61.0858 191.244 67.2816 190.52 74.3536Z" fill="white"/>
<path d="M181.234 59.7516C187.604 60.3683 192.069 66.9671 191.305 74.4297C190.543 81.8917 184.83 87.5055 178.461 86.8904C172.092 86.2737 167.627 79.675 168.389 72.2125C169.142 64.8621 174.694 59.3056 180.945 59.7279L181.234 59.7516ZM169.959 72.3644C169.276 79.0459 173.196 84.8387 178.617 85.3636C184.038 85.8871 189.053 80.959 189.736 74.2778C190.42 67.5961 186.5 61.8034 181.078 61.2785C175.658 60.7537 170.643 65.682 169.959 72.3644Z" fill="#1443BD"/>
<path d="M181.234 59.7516C187.604 60.3683 192.069 66.9671 191.305 74.4297C190.543 81.8917 184.83 87.5055 178.461 86.8904C172.092 86.2737 167.627 79.675 168.389 72.2125C169.142 64.8621 174.694 59.3056 180.945 59.7279L181.234 59.7516ZM169.959 72.3644C169.276 79.0459 173.196 84.8387 178.617 85.3636C184.038 85.8871 189.053 80.959 189.736 74.2778C190.42 67.5961 186.5 61.8034 181.078 61.2785C175.658 60.7537 170.643 65.682 169.959 72.3644Z" fill="black" fill-opacity="0.5"/>
<path d="M167.835 76.9882C167.632 76.7757 167.291 76.7632 167.072 76.9603C166.878 77.1355 166.847 77.4173 166.984 77.627L167.044 77.7019L170.797 81.638L166.697 85.1139C166.497 85.2832 166.457 85.5639 166.587 85.7777L166.645 85.8543C166.819 86.0485 167.107 86.0881 167.327 85.9607L167.406 85.9051L171.925 82.0738C172.129 81.9008 172.166 81.6124 172.027 81.3979L171.966 81.3214L167.835 76.9882Z" fill="#DD936F"/>
<path d="M157.905 87.9935C157.787 88.4014 158.032 88.8249 158.451 88.9396L159.211 89.133C159.801 89.2763 160.442 89.4195 161.114 89.5532C162.165 89.7625 163.193 89.929 164.163 90.0364C165.809 90.2189 167.193 90.2228 168.255 89.9969C168.68 89.9064 168.95 89.4975 168.857 89.0836C168.764 88.6696 168.343 88.4074 167.918 88.498C167.06 88.6804 165.83 88.6769 164.341 88.5119C163.422 88.41 162.439 88.2509 161.43 88.05C160.944 87.9532 160.474 87.8512 160.029 87.7479L158.878 87.4624C158.459 87.3478 158.023 87.5855 157.905 87.9935Z" fill="#F56D7E"/>
<path fill-rule="evenodd" clip-rule="evenodd" d="M165.236 71.8671C165.236 71.8671 167.239 70.5767 169.011 71.8778L165.236 71.8671Z" fill="white"/>
<path d="M165.236 71.8671C165.236 71.8671 167.239 70.5767 169.011 71.8778" stroke="#1443BD" stroke-width="1.5" stroke-linecap="round" stroke-linejoin="round"/>
<path d="M165.236 71.8671C165.236 71.8671 167.239 70.5767 169.011 71.8778" stroke="black" stroke-opacity="0.5" stroke-width="1.5" stroke-linecap="round" stroke-linejoin="round"/>
<path d="M148.527 105.581C148.238 105.513 147.946 105.686 147.876 105.967C147.805 106.249 147.983 106.533 148.272 106.601C149.928 106.993 151.817 107.304 153.896 107.542C157.833 107.992 161.91 108.143 165.347 108.124L166.469 108.11C166.767 108.103 167.003 107.863 166.995 107.573C166.988 107.283 166.741 107.054 166.443 107.061L166.059 107.068C162.521 107.114 158.185 106.976 154.022 106.5C151.983 106.266 150.136 105.962 148.527 105.581Z" fill="#DD936F"/>
<path fill-rule="evenodd" clip-rule="evenodd" d="M158.57 73.3841C158.563 75.1333 157.764 76.5495 156.783 76.548C155.801 76.5449 155.011 75.1225 155.016 73.3733C155.022 71.6241 155.822 70.2079 156.803 70.2109C157.784 70.214 158.575 71.6349 158.57 73.3841Z" fill="#1443BD"/>
<path fill-rule="evenodd" clip-rule="evenodd" d="M158.57 73.3841C158.563 75.1333 157.764 76.5495 156.783 76.548C155.801 76.5449 155.011 75.1225 155.016 73.3733C155.022 71.6241 155.822 70.2079 156.803 70.2109C157.784 70.214 158.575 71.6349 158.57 73.3841Z" fill="black" fill-opacity="0.5"/>
<path fill-rule="evenodd" clip-rule="evenodd" d="M181.664 73.7395C181.657 75.4887 180.857 76.905 179.876 76.9034C178.895 76.9004 178.105 75.478 178.11 73.7288C178.116 71.9796 178.916 70.5633 179.897 70.5664C180.878 70.5695 181.668 71.9903 181.664 73.7395Z" fill="#1443BD"/>
<path fill-rule="evenodd" clip-rule="evenodd" d="M181.664 73.7395C181.657 75.4887 180.857 76.905 179.876 76.9034C178.895 76.9004 178.105 75.478 178.11 73.7288C178.116 71.9796 178.916 70.5633 179.897 70.5664C180.878 70.5695 181.668 71.9903 181.664 73.7395Z" fill="black" fill-opacity="0.5"/>
<path d="M142.236 72.2561L131.908 72.4418C131.472 72.4496 131.126 72.7994 131.134 73.223C131.141 73.6114 131.444 73.927 131.83 73.9708L131.937 73.9759L142.265 73.7902C142.701 73.7824 143.047 73.4326 143.039 73.009C143.032 72.6207 142.729 72.3051 142.343 72.2612L142.236 72.2561Z" fill="#1443BD"/>
<path d="M142.236 72.2561L131.908 72.4418C131.472 72.4496 131.126 72.7994 131.134 73.223C131.141 73.6114 131.444 73.927 131.83 73.9708L131.937 73.9759L142.265 73.7902C142.701 73.7824 143.047 73.4326 143.039 73.009C143.032 72.6207 142.729 72.3051 142.343 72.2612L142.236 72.2561Z" fill="black" fill-opacity="0.5"/>
<path fill-rule="evenodd" clip-rule="evenodd" d="M175.194 121.319L173.411 121.279C174.727 131.695 134.346 133.212 128.108 121.124C127.95 120.816 127.825 120.527 127.72 120.251L122.801 120.141L120.708 301.591C120.708 301.591 155.901 316.21 189.66 303.906C204.358 159.039 175.194 121.319 175.194 121.319Z" fill="#B8C8FF"/>
<path d="M170.317 135.002C170.174 134.708 169.814 134.582 169.512 134.72C168.684 135.1 167.845 135.448 166.995 135.766C157.786 139.21 147.929 138.987 138.608 136.537C137.113 136.143 135.764 135.723 134.585 135.302L134.007 135.091L133.507 134.898C133.326 134.826 133.203 134.775 133.144 134.749C132.839 134.617 132.481 134.75 132.345 135.047C132.209 135.343 132.346 135.691 132.651 135.824L133.05 135.987L133.57 136.188C133.756 136.258 133.956 136.331 134.169 136.407C135.38 136.839 136.762 137.27 138.292 137.673C147.84 140.183 157.945 140.411 167.429 136.865C168.307 136.536 169.173 136.177 170.028 135.785C170.33 135.646 170.459 135.296 170.317 135.002Z" fill="#1443BD"/>
<path d="M170.317 135.002C170.174 134.708 169.814 134.582 169.512 134.72C168.684 135.1 167.845 135.448 166.995 135.766C157.786 139.21 147.929 138.987 138.608 136.537C137.113 136.143 135.764 135.723 134.585 135.302L134.007 135.091L133.507 134.898C133.326 134.826 133.203 134.775 133.144 134.749C132.839 134.617 132.481 134.75 132.345 135.047C132.209 135.343 132.346 135.691 132.651 135.824L133.05 135.987L133.57 136.188C133.756 136.258 133.956 136.331 134.169 136.407C135.38 136.839 136.762 137.27 138.292 137.673C147.84 140.183 157.945 140.411 167.429 136.865C168.307 136.536 169.173 136.177 170.028 135.785C170.33 135.646 170.459 135.296 170.317 135.002Z" fill="white" fill-opacity="0.2"/>
<path fill-rule="evenodd" clip-rule="evenodd" d="M169.121 114.924C169.121 114.924 178.289 139.629 180.608 229.746C182.456 301.522 185.406 424.251 185.406 424.251C185.406 424.251 220.616 423.128 223.6 407.581C225.376 398.331 223.726 160.134 216.469 141.533C208.387 137.157 195.604 130.736 183.114 124.362C180.079 122.814 174.784 118.603 172.855 117.606C167.615 114.893 169.121 114.924 169.121 114.924Z" fill="#E4EBF7"/>
<path d="M220.918 164.27C220.519 164.279 220.195 164.575 220.152 164.95L220.148 165.078L220.722 190.933L221.177 212.349C221.428 224.408 221.676 236.694 221.915 249.005L222.344 271.768C222.458 278.019 222.567 284.158 222.671 290.169L222.997 309.803C223.732 356.067 224.011 389.431 223.701 405.226C223.692 405.65 224.039 406 224.474 406.008C224.91 406.016 225.269 405.679 225.278 405.255L225.317 402.99C225.598 384.004 225.183 344.377 224.248 290.143L223.97 274.413C223.841 267.306 223.705 260.051 223.563 252.67L223.128 230.552C222.98 223.211 222.829 215.915 222.678 208.707L221.724 165.02C221.714 164.597 221.353 164.261 220.918 164.27Z" fill="#1443BD"/>
<path d="M220.918 164.27C220.519 164.279 220.195 164.575 220.152 164.95L220.148 165.078L220.722 190.933L221.177 212.349C221.428 224.408 221.676 236.694 221.915 249.005L222.344 271.768C222.458 278.019 222.567 284.158 222.671 290.169L222.997 309.803C223.732 356.067 224.011 389.431 223.701 405.226C223.692 405.65 224.039 406 224.474 406.008C224.91 406.016 225.269 405.679 225.278 405.255L225.317 402.99C225.598 384.004 225.183 344.377 224.248 290.143L223.97 274.413C223.841 267.306 223.705 260.051 223.563 252.67L223.128 230.552C222.98 223.211 222.829 215.915 222.678 208.707L221.724 165.02C221.714 164.597 221.353 164.261 220.918 164.27Z" fill="white" fill-opacity="0.2"/>
<path fill-rule="evenodd" clip-rule="evenodd" d="M81.5728 135.039C94.1492 129.272 107.907 126.979 115.871 122.659C120.974 119.893 125.08 116.153 129.088 114.891C154.897 227.438 138.981 363.61 133.888 428.316C103.593 431.956 81.4813 400.056 81.4813 400.056C81.4813 400.056 82.6092 310.62 85.9043 251.813C88.6457 202.9 78.3582 136.513 81.5728 135.039Z" fill="#E4EBF7"/>
<path d="M129.403 114.07C129.18 113.752 128.755 113.648 128.409 113.81L128.307 113.867L115.819 122.13C115.646 122.244 115.527 122.421 115.488 122.621L115.421 123.02L115.398 123.172C115.333 123.614 115.268 124.141 115.208 124.754C114.181 135.23 115.589 150.67 121.329 171.016L121.898 172.997C123.978 180.096 132.374 208.083 134.387 215.751C137.558 227.83 139.653 238.71 141.107 251.43C141.155 251.852 141.545 252.155 141.978 252.108C142.41 252.061 142.722 251.682 142.674 251.261C141.271 238.979 139.272 228.396 136.293 216.824L135.916 215.372C133.809 207.347 124.765 177.245 123.187 171.794L123.1 171.492C117.286 151.181 115.797 135.785 116.736 125.351L116.779 124.9C116.825 124.429 116.874 124.012 116.923 123.65L116.987 123.213L129.195 115.136C129.522 114.919 129.629 114.505 129.462 114.169L129.403 114.07Z" fill="#1443BD"/>
<path d="M129.403 114.07C129.18 113.752 128.755 113.648 128.409 113.81L128.307 113.867L115.819 122.13C115.646 122.244 115.527 122.421 115.488 122.621L115.421 123.02L115.398 123.172C115.333 123.614 115.268 124.141 115.208 124.754C114.181 135.23 115.589 150.67 121.329 171.016L121.898 172.997C123.978 180.096 132.374 208.083 134.387 215.751C137.558 227.83 139.653 238.71 141.107 251.43C141.155 251.852 141.545 252.155 141.978 252.108C142.41 252.061 142.722 251.682 142.674 251.261C141.271 238.979 139.272 228.396 136.293 216.824L135.916 215.372C133.809 207.347 124.765 177.245 123.187 171.794L123.1 171.492C117.286 151.181 115.797 135.785 116.736 125.351L116.779 124.9C116.825 124.429 116.874 124.012 116.923 123.65L116.987 123.213L129.195 115.136C129.522 114.919 129.629 114.505 129.462 114.169L129.403 114.07Z" fill="white" fill-opacity="0.2"/>
<path d="M169.553 114.281C169.189 114.05 168.7 114.149 168.462 114.504C168.245 114.826 168.31 115.249 168.598 115.497L168.69 115.566L183.29 124.844L183.361 125.243C183.437 125.677 183.519 126.178 183.607 126.747L183.715 127.463C184.083 129.964 184.451 133.034 184.795 136.696L184.939 138.28C187.245 164.386 187.065 202.01 182.778 252.61C182.742 253.032 183.065 253.403 183.499 253.437C183.933 253.472 184.314 253.158 184.35 252.736L184.608 249.649C188.735 199.494 188.781 162.283 186.365 136.557L186.234 135.202C185.948 132.325 185.648 129.837 185.346 127.726L185.167 126.518C185.113 126.171 185.062 125.848 185.012 125.549L184.864 124.693C184.824 124.476 184.795 124.322 184.776 124.231C184.743 124.07 184.657 123.924 184.534 123.814L184.434 123.739L169.553 114.281Z" fill="#1443BD"/>
<path d="M169.553 114.281C169.189 114.05 168.7 114.149 168.462 114.504C168.245 114.826 168.31 115.249 168.598 115.497L168.69 115.566L183.29 124.844L183.361 125.243C183.437 125.677 183.519 126.178 183.607 126.747L183.715 127.463C184.083 129.964 184.451 133.034 184.795 136.696L184.939 138.28C187.245 164.386 187.065 202.01 182.778 252.61C182.742 253.032 183.065 253.403 183.499 253.437C183.933 253.472 184.314 253.158 184.35 252.736L184.608 249.649C188.735 199.494 188.781 162.283 186.365 136.557L186.234 135.202C185.948 132.325 185.648 129.837 185.346 127.726L185.167 126.518C185.113 126.171 185.062 125.848 185.012 125.549L184.864 124.693C184.824 124.476 184.795 124.322 184.776 124.231C184.743 124.07 184.657 123.924 184.534 123.814L184.434 123.739L169.553 114.281Z" fill="white" fill-opacity="0.2"/>
<path d="M85.1441 290.125C84.7141 290.058 84.3092 290.342 84.2398 290.76C84.1762 291.144 84.4166 291.507 84.7883 291.616L84.8928 291.64L111.366 295.794L110.074 350.106C109.973 354.298 106.17 357.465 101.928 356.954L101.687 356.921L82.7337 354.027C82.3034 353.961 81.8998 354.248 81.8323 354.666C81.7703 355.05 82.0123 355.412 82.3845 355.52L82.4891 355.543L101.443 358.437C106.634 359.23 111.363 355.472 111.64 350.405L111.65 350.141L112.958 295.161C112.966 294.813 112.733 294.508 112.399 294.409L112.295 294.386L85.1441 290.125Z" fill="#1443BD"/>
<path d="M85.1441 290.125C84.7141 290.058 84.3092 290.342 84.2398 290.76C84.1762 291.144 84.4166 291.507 84.7883 291.616L84.8928 291.64L111.366 295.794L110.074 350.106C109.973 354.298 106.17 357.465 101.928 356.954L101.687 356.921L82.7337 354.027C82.3034 353.961 81.8998 354.248 81.8323 354.666C81.7703 355.05 82.0123 355.412 82.3845 355.52L82.4891 355.543L101.443 358.437C106.634 359.23 111.363 355.472 111.64 350.405L111.65 350.141L112.958 295.161C112.966 294.813 112.733 294.508 112.399 294.409L112.295 294.386L85.1441 290.125Z" fill="white" fill-opacity="0.2"/>
<path d="M222.493 290.68C222.372 290.31 221.99 290.091 221.607 290.156L221.503 290.18L207.573 294.477C207.283 294.566 207.076 294.807 207.031 295.094L207.023 295.203L206.606 353.865C206.589 356.384 209.188 358.098 211.566 357.202L211.74 357.132L224.742 351.495C225.14 351.322 225.319 350.869 225.141 350.482C224.979 350.127 224.573 349.951 224.201 350.057L224.1 350.093L211.098 355.731C209.77 356.306 208.28 355.406 208.188 354.026L208.183 353.876L208.596 295.77L221.979 291.643C222.36 291.526 222.585 291.153 222.518 290.781L222.493 290.68Z" fill="#1443BD"/>
<path d="M222.493 290.68C222.372 290.31 221.99 290.091 221.607 290.156L221.503 290.18L207.573 294.477C207.283 294.566 207.076 294.807 207.031 295.094L207.023 295.203L206.606 353.865C206.589 356.384 209.188 358.098 211.566 357.202L211.74 357.132L224.742 351.495C225.14 351.322 225.319 350.869 225.141 350.482C224.979 350.127 224.573 349.951 224.201 350.057L224.1 350.093L211.098 355.731C209.77 356.306 208.28 355.406 208.188 354.026L208.183 353.876L208.596 295.77L221.979 291.643C222.36 291.526 222.585 291.153 222.518 290.781L222.493 290.68Z" fill="white" fill-opacity="0.2"/>
<path d="M85.937 186.734C85.5378 186.728 85.2025 187.01 85.1434 187.384L85.1342 187.488L83.0616 299.272C83.0537 299.696 83.4004 300.046 83.8359 300.053C84.2351 300.06 84.5704 299.777 84.6295 299.404L84.6387 299.3L86.7113 187.516C86.7192 187.092 86.3725 186.742 85.937 186.734Z" fill="#1443BD"/>
<path d="M85.937 186.734C85.5378 186.728 85.2025 187.01 85.1434 187.384L85.1342 187.488L83.0616 299.272C83.0537 299.696 83.4004 300.046 83.8359 300.053C84.2351 300.06 84.5704 299.777 84.6295 299.404L84.6387 299.3L86.7113 187.516C86.7192 187.092 86.3725 186.742 85.937 186.734Z" fill="white" fill-opacity="0.2"/>
<rect width="9.44657" height="5.12464" rx="2.56232" transform="matrix(-0.966613 0.256243 0.269766 0.962926 158.941 94.1094)" fill="#1443BD"/>
<rect width="9.44657" height="5.12464" rx="2.56232" transform="matrix(-0.966613 0.256243 0.269766 0.962926 158.941 94.1094)" fill="black" fill-opacity="0.65"/>
<path d="M151.385 99.2228C145.952 101.439 131.826 101.78 129.302 95.6426" stroke="#1443BD" stroke-linecap="round" stroke-linejoin="round"/>
<path d="M151.385 99.2228C145.952 101.439 131.826 101.78 129.302 95.6426" stroke="black" stroke-opacity="0.65" stroke-linecap="round" stroke-linejoin="round"/>
<path d="M152.963 34.2678C138.241 34.2678 122.362 46.6452 124.044 73.6503" stroke="#1443BD" stroke-width="2" stroke-linecap="round" stroke-linejoin="round"/>
<path d="M152.963 34.2678C138.241 34.2678 122.362 46.6452 124.044 73.6503" stroke="white" stroke-opacity="0.85" stroke-width="2" stroke-linecap="round" stroke-linejoin="round"/>
<rect width="12.6189" height="17.3897" rx="6.30946" transform="matrix(-1 0 0 1 131.931 72.627)" fill="#2A84C6"/>
<rect width="12.6189" height="17.3897" rx="6.30946" transform="matrix(-1 0 0 1 129.828 72.627)" fill="#2A84C6"/>
<rect width="12.6189" height="17.3897" rx="6.30946" transform="matrix(-1 0 0 1 129.828 72.627)" fill="white" fill-opacity="0.65"/>
</g>
</svg>
