<svg width="51" height="51" viewBox="0 0 51 51" fill="none" xmlns="http://www.w3.org/2000/svg">
<path d="M14.5648 5.85096C13.4899 6.43733 12.8342 7.56706 12.8474 8.79535L13.1326 37.4314C13.1299 38.7227 13.8476 39.8394 14.9974 40.4081C16.1673 40.9877 17.9641 40.6106 18.9185 39.7278L26.3258 32.8731C27.0852 32.17 27.2613 31.0373 26.7494 30.1361L19.8643 17.9836C19.5011 17.3672 19.7224 16.5773 20.3528 16.2392C20.9667 15.8964 21.745 16.1143 22.1081 16.7307L28.9902 28.9001C29.5001 29.8025 30.5644 30.2425 31.5641 29.9634L41.3434 27.2462C42.5029 26.932 43.3516 26.0693 43.665 24.9502C43.7019 24.8186 43.7434 24.6705 43.7637 24.5342C43.9575 23.2041 43.3656 21.938 42.2296 21.2117L17.9821 5.956C16.9528 5.29506 15.6398 5.2646 14.5648 5.85096Z" fill="#2D91C5"/>
</svg>
