<svg width="82" height="108" viewBox="0 0 82 108" fill="none" xmlns="http://www.w3.org/2000/svg">
<path d="M14.0512 26.9543L1.65693 39.3487C-4.17208 45.1777 5.89063 64.6895 24.1753 82.9128C42.3986 101.136 61.9105 111.199 67.7395 105.431L80.1338 93.0369L14.0512 26.9543Z" fill="url(#paint0_linear_1058_2111)"/>
<path d="M80.0725 93.0369C74.2435 98.8659 54.7317 88.8032 36.5084 70.5185C18.285 52.2952 8.22233 32.7834 13.99 26.9544C19.819 21.1253 39.3308 31.1881 57.5541 49.4727C75.8388 67.696 85.9015 87.2079 80.0725 93.0369Z" fill="url(#paint1_linear_1058_2111)"/>
<path d="M80.0725 93.0369C74.2435 98.8659 54.7317 88.8032 36.5084 70.5185C18.285 52.2952 8.22233 32.7834 13.99 26.9544C19.819 21.1253 39.3308 31.1881 57.5541 49.4727C75.8388 67.696 85.9015 87.2079 80.0725 93.0369Z" fill="url(#paint2_radial_1058_2111)"/>
<path d="M12.0263 2.10449L3.62029 10.5105C-0.30662 14.4374 6.50412 27.6908 18.8371 40.0237C31.17 52.3567 44.4233 59.2288 48.3503 55.2405L56.7563 46.8344L12.0263 2.10449Z" fill="url(#paint3_linear_1058_2111)"/>
<path d="M56.7563 46.8958C52.8294 50.8227 39.5761 44.012 27.2432 31.679C14.9102 19.2847 8.03811 6.03139 12.0264 2.10448C15.9533 -1.82243 29.2066 4.98831 41.5396 17.3213C53.8725 29.7156 60.6833 42.9075 56.7563 46.8958Z" fill="url(#paint4_linear_1058_2111)"/>
<defs>
<linearGradient id="paint0_linear_1058_2111" x1="2.264" y1="38.472" x2="69.3691" y2="104.215" gradientUnits="userSpaceOnUse">
<stop stop-color="#97AFDE"/>
<stop offset="0.4147" stop-color="#BDCEF7"/>
<stop offset="1" stop-color="#575CB0"/>
</linearGradient>
<linearGradient id="paint1_linear_1058_2111" x1="58.0377" y1="63.2545" x2="-109.794" y2="13.6053" gradientUnits="userSpaceOnUse">
<stop stop-color="#BDCEF7"/>
<stop offset="1" stop-color="#5792B0"/>
</linearGradient>
<radialGradient id="paint2_radial_1058_2111" cx="0" cy="0" r="1" gradientUnits="userSpaceOnUse" gradientTransform="translate(27.4928 42.1822) rotate(45) scale(49.0777 21.4746)">
<stop stop-color="#413655"/>
<stop offset="0.6461" stop-color="#BFBBC5" stop-opacity="0.3539"/>
<stop offset="1" stop-color="white" stop-opacity="0"/>
</radialGradient>
<linearGradient id="paint3_linear_1058_2111" x1="4.02259" y1="9.90377" x2="49.493" y2="54.451" gradientUnits="userSpaceOnUse">
<stop stop-color="#97AFDE"/>
<stop offset="0.4147" stop-color="#BDCEF7"/>
<stop offset="1" stop-color="#5777B0"/>
</linearGradient>
<linearGradient id="paint4_linear_1058_2111" x1="41.8149" y1="26.6963" x2="-71.9083" y2="-6.94598" gradientUnits="userSpaceOnUse">
<stop stop-color="#BDBDF7"/>
<stop offset="1" stop-color="#5777B0"/>
</linearGradient>
</defs>
</svg>
