<svg width="400" height="434" viewBox="0 0 400 434" fill="none" xmlns="http://www.w3.org/2000/svg">
<path opacity="0.5" d="M395.715 363.434L278.32 431.28C273.008 434.364 265.124 434.707 260.668 431.966L3.08479 283.422C-1.54246 280.852 -0.856943 276.227 4.28444 273.143L121.679 205.296C126.992 202.212 134.876 201.869 139.332 204.611L396.744 353.154C401.542 355.895 401.028 360.521 395.715 363.434Z" fill="black"/>
<path d="M400 313.576L375.835 309.293L139.503 172.914C134.876 170.344 126.992 170.687 121.851 173.599L12.3393 236.992L-6.10352e-05 234.764V247.271C-6.10352e-05 248.985 1.02822 250.527 3.08477 251.726L260.497 400.44C265.124 403.01 273.008 402.668 278.149 399.755L395.544 331.908C398.458 330.195 400 328.139 399.829 326.083V313.576H400Z" fill="url(#paint0_linear_1058_1741)"/>
<path d="M395.715 319.401L278.32 387.248C273.008 390.332 265.124 390.675 260.668 387.933L3.08479 239.39C-1.54246 236.82 -0.856943 232.194 4.28444 229.11L121.679 161.264C126.992 158.18 134.876 157.837 139.332 160.578L396.744 309.122C401.542 311.863 401.028 316.317 395.715 319.401Z" fill="url(#paint1_linear_1058_1741)"/>
<path d="M395.715 317.859L278.32 385.706C273.008 388.79 265.124 389.133 260.668 386.391L3.08475 237.677C1.37095 236.649 0.342675 235.449 0.171296 234.079C-0.171464 235.963 0.856814 237.848 3.08475 239.219L260.497 387.933C265.124 390.503 273.008 390.16 278.149 387.248L395.544 319.401C398.8 317.517 400.343 315.118 399.829 312.719C399.657 314.604 398.286 316.317 395.715 317.859Z" fill="white"/>
<path d="M395.887 308.607L259.469 387.248L4.1131 239.904L140.703 161.264L395.887 308.607Z" fill="#0F65B2"/>
<path d="M80.7198 192.103L62.5536 202.554C61.6967 203.068 60.497 203.068 59.8115 202.726L59.6401 202.554C58.9546 202.212 59.126 201.526 59.8115 201.012L77.9778 190.561C78.8347 190.047 80.0343 190.047 80.7198 190.39L80.8912 190.561C81.5767 190.904 81.4053 191.589 80.7198 192.103Z" fill="#0063AD"/>
<path d="M314.31 213.691H83.462V337.392H314.31V213.691Z" fill="white"/>
<path d="M282.502 314.828C288.997 301.152 256.766 272.267 210.512 250.312C164.258 228.356 121.496 221.643 115.001 235.319C108.505 248.995 140.736 277.88 186.991 299.835C233.245 321.791 276.007 328.504 282.502 314.828Z" fill="white"/>
<path d="M282.192 314.682C288.647 301.092 256.521 272.342 210.438 250.467C164.355 228.593 121.765 221.877 115.31 235.467C108.855 249.057 140.98 277.807 187.064 299.682C233.147 321.556 275.737 328.272 282.192 314.682Z" fill="white"/>
<path d="M281.883 314.535C288.338 300.944 256.351 272.26 210.439 250.467C164.526 228.673 122.075 222.023 115.62 235.613C109.165 249.204 141.152 277.888 187.064 299.681C232.976 321.475 275.428 328.125 281.883 314.535Z" fill="white"/>
<path d="M281.573 314.388C287.987 300.883 256.106 272.334 210.365 250.621C164.624 228.909 122.343 222.256 115.929 235.76C109.515 249.265 141.396 277.814 187.137 299.526C232.879 321.239 275.159 327.892 281.573 314.388Z" fill="white"/>
<path d="M281.263 314.241C287.637 300.821 255.862 272.407 210.292 250.776C164.721 229.145 122.613 222.488 116.239 235.907C109.866 249.327 141.641 277.74 187.211 299.372C232.781 321.003 274.89 327.66 281.263 314.241Z" fill="#FEFFFF"/>
<path d="M280.799 314.02C287.173 300.601 255.605 272.286 210.291 250.777C164.978 229.267 123.077 222.709 116.703 236.128C110.33 249.547 141.897 277.862 187.211 299.372C232.525 320.881 274.426 327.44 280.799 314.02Z" fill="#FEFEFF"/>
<path d="M280.49 313.873C286.822 300.54 255.361 272.359 210.218 250.931C165.075 229.503 123.346 222.941 117.013 236.275C110.68 249.609 142.142 277.789 187.285 299.217C232.427 320.645 274.157 327.207 280.49 313.873Z" fill="#FEFEFF"/>
<path d="M280.18 313.726C286.513 300.392 255.19 272.278 210.218 250.931C165.246 229.584 123.656 223.088 117.323 236.421C110.99 249.755 142.313 277.87 187.285 299.217C232.256 320.564 273.847 327.06 280.18 313.726Z" fill="#FEFEFE"/>
<path d="M279.87 313.579C286.162 300.331 254.945 272.351 210.144 251.085C165.343 229.82 123.924 223.32 117.632 236.568C111.34 249.817 142.557 277.796 187.358 299.062C232.159 320.328 273.578 326.827 279.87 313.579Z" fill="#FDFEFE"/>
<path d="M279.561 313.432C285.812 300.269 254.701 272.425 210.071 251.24C165.441 230.056 124.194 223.552 117.942 236.715C111.69 249.878 142.802 277.722 187.431 298.907C232.061 320.092 273.309 326.595 279.561 313.432Z" fill="#FDFDFE"/>
<path d="M279.251 313.286C285.503 300.123 254.53 272.344 210.071 251.241C165.612 230.137 124.503 223.7 118.251 236.863C112 250.026 142.973 277.804 187.431 298.908C231.89 320.011 272.999 326.448 279.251 313.286Z" fill="#FDFDFE"/>
<path d="M278.941 313.139C285.153 300.061 254.285 272.418 209.998 251.395C165.71 230.373 124.772 223.932 118.561 237.01C112.35 250.087 143.217 277.73 187.505 298.753C231.793 319.775 272.73 326.216 278.941 313.139Z" fill="#FCFDFE"/>
<path d="M278.663 312.891C272.494 325.912 231.705 319.573 187.661 298.671C143.616 277.769 112.939 250.184 119.109 237.163C125.279 224.142 166.067 230.481 210.112 251.384C254.156 272.457 284.833 299.87 278.663 312.891Z" fill="#FCFDFE"/>
<path d="M278.167 312.771C284.338 299.78 253.784 272.37 209.924 251.55C166.063 230.731 125.505 224.385 119.335 237.377C113.164 250.369 143.718 277.779 187.578 298.598C231.439 319.418 271.997 325.763 278.167 312.771Z" fill="#FBFCFE"/>
<path d="M277.858 312.624C283.988 299.718 253.54 272.444 209.85 251.705C166.161 230.967 125.775 224.618 119.645 237.524C113.515 250.431 143.963 277.705 187.652 298.443C231.341 319.182 271.728 325.531 277.858 312.624Z" fill="#FBFCFD"/>
<path d="M277.548 312.477C283.678 299.571 253.369 272.362 209.85 251.705C166.332 231.048 126.084 224.764 119.954 237.671C113.824 250.577 144.134 277.786 187.652 298.443C231.17 319.1 271.418 325.383 277.548 312.477Z" fill="#FBFCFD"/>
<path d="M277.239 312.33C283.328 299.509 253.124 272.435 209.777 251.859C166.43 231.284 126.353 224.997 120.264 237.818C114.175 250.639 144.378 277.712 187.726 298.288C231.073 318.864 271.149 325.151 277.239 312.33Z" fill="#FAFBFD"/>
<path d="M276.929 312.183C282.977 299.448 252.88 272.509 209.703 252.014C166.527 231.519 126.622 225.229 120.573 237.965C114.525 250.7 144.622 277.639 187.799 298.133C230.975 318.628 270.88 324.918 276.929 312.183Z" fill="#FAFBFD"/>
<path d="M276.619 312.036C282.668 299.301 252.708 272.428 209.703 252.015C166.698 231.601 126.932 225.377 120.883 238.112C114.834 250.848 144.793 277.72 187.799 298.134C230.804 318.548 270.57 324.772 276.619 312.036Z" fill="#F9FBFD"/>
<path d="M276.31 311.89C282.318 299.24 252.464 272.502 209.63 252.169C166.796 231.837 127.201 225.609 121.193 238.259C115.185 250.909 145.038 277.647 187.872 297.979C230.707 318.312 270.301 324.54 276.31 311.89Z" fill="#F9FAFC"/>
<path d="M276 311.742C281.968 299.177 252.22 272.575 209.556 252.323C166.893 232.072 127.47 225.841 121.503 238.405C115.535 250.97 145.283 277.572 187.946 297.823C230.609 318.075 270.033 324.306 276 311.742Z" fill="#F8FAFC"/>
<path d="M275.69 311.595C281.658 299.031 252.049 272.494 209.556 252.324C167.064 232.154 127.78 225.988 121.812 238.553C115.845 251.117 145.454 277.654 187.946 297.824C230.438 317.994 269.723 324.16 275.69 311.595Z" fill="#F8FAFC"/>
<path d="M275.226 311.374C281.153 298.895 251.718 272.527 209.483 252.478C167.247 232.43 128.203 226.294 122.276 238.773C116.349 251.252 145.783 277.62 188.019 297.669C230.255 317.717 269.299 323.853 275.226 311.374Z" fill="#F7F9FC"/>
<path d="M274.916 311.228C280.843 298.749 251.548 272.446 209.483 252.479C167.418 232.511 128.513 226.441 122.586 238.92C116.659 251.399 145.955 277.702 188.02 297.669C230.085 317.637 268.99 323.707 274.916 311.228Z" fill="#F7F9FC"/>
<path d="M274.607 311.081C280.493 298.687 251.303 272.52 209.409 252.633C167.515 232.747 128.782 226.674 122.896 239.067C117.009 251.461 146.199 277.629 188.093 297.515C229.987 317.401 268.72 323.474 274.607 311.081Z" fill="#F6F9FB"/>
<path d="M274.297 310.934C280.143 298.626 251.059 272.593 209.336 252.788C167.613 232.983 129.051 226.906 123.205 239.214C117.36 251.522 146.444 277.555 188.167 297.36C229.889 317.165 268.451 323.242 274.297 310.934Z" fill="#F6F8FB"/>
<path d="M273.988 310.787C279.833 298.479 250.888 272.512 209.336 252.789C167.784 233.065 129.361 227.053 123.515 239.362C117.669 251.67 146.615 277.637 188.167 297.36C229.718 317.084 268.142 323.096 273.988 310.787Z" fill="#F5F8FB"/>
<path d="M273.678 310.639C279.483 298.417 250.643 272.585 209.262 252.942C167.881 233.3 129.629 227.285 123.824 239.508C118.019 251.73 146.859 277.562 188.24 297.205C229.621 316.847 267.872 322.862 273.678 310.639Z" fill="#F5F7FB"/>
<path d="M273.368 310.493C279.133 298.356 250.399 272.66 209.189 253.098C167.979 233.537 129.899 227.518 124.134 239.655C118.369 251.793 147.104 277.489 188.313 297.051C229.523 316.612 267.604 322.631 273.368 310.493Z" fill="#F4F7FB"/>
<path d="M273.058 310.346C278.823 298.209 250.228 272.578 209.189 253.098C168.15 233.618 130.208 227.665 124.444 239.802C118.679 251.939 147.275 277.57 188.313 297.05C229.352 316.53 267.294 322.483 273.058 310.346Z" fill="#F4F7FA"/>
<path d="M272.594 310.125C278.318 298.074 249.898 272.611 209.115 253.252C168.333 233.894 130.632 227.97 124.908 240.022C119.184 252.074 147.605 277.537 188.387 296.895C229.169 316.254 266.87 322.177 272.594 310.125Z" fill="#F3F6FA"/>
<path d="M272.285 309.979C278.009 297.927 249.727 272.53 209.115 253.253C168.504 233.975 130.942 228.118 125.218 240.17C119.494 252.221 147.776 277.618 188.387 296.896C228.998 316.173 266.561 322.031 272.285 309.979Z" fill="#F2F6FA"/>
<path d="M271.975 309.832C277.659 297.866 249.482 272.604 209.042 253.407C168.602 234.211 131.211 228.35 125.528 240.317C119.844 252.283 148.02 277.545 188.461 296.741C228.901 315.937 266.292 321.798 271.975 309.832Z" fill="#F2F5FA"/>
<path d="M271.665 309.685C277.308 297.804 249.238 272.677 208.968 253.562C168.699 234.447 131.48 228.583 125.837 240.463C120.194 252.344 148.264 277.471 188.534 296.586C228.803 315.701 266.022 321.566 271.665 309.685Z" fill="#F1F5F9"/>
<path d="M271.356 309.537C276.998 297.657 249.067 272.596 208.968 253.562C168.87 234.528 131.789 228.729 126.146 240.61C120.504 252.491 148.435 277.552 188.534 296.586C228.632 315.619 265.713 321.418 271.356 309.537Z" fill="#F1F4F9"/>
<path d="M271.046 309.39C276.648 297.595 248.822 272.669 208.895 253.716C168.967 234.764 132.058 228.962 126.456 240.757C120.854 252.552 148.68 277.478 188.608 296.431C228.535 315.384 265.444 321.186 271.046 309.39Z" fill="#F0F4F9"/>
<path d="M270.737 309.243C276.298 297.534 248.578 272.743 208.821 253.871C169.065 235 132.328 229.194 126.766 240.904C121.204 252.614 148.925 277.405 188.681 296.276C228.438 315.148 265.175 320.953 270.737 309.243Z" fill="#EFF4F9"/>
<path d="M270.427 309.097C275.989 297.387 248.407 272.662 208.821 253.872C169.236 235.081 132.637 229.342 127.076 241.051C121.514 252.761 149.096 277.486 188.681 296.277C228.267 315.067 264.865 320.807 270.427 309.097Z" fill="#EFF3F8"/>
<path d="M269.962 308.876C275.483 297.252 248.077 272.695 208.748 254.026C169.419 235.358 133.061 229.647 127.54 241.272C122.019 252.896 149.425 277.453 188.754 296.122C228.083 314.79 264.441 320.501 269.962 308.876Z" fill="#EEF3F8"/>
<path d="M269.653 308.729C275.133 297.19 247.832 272.768 208.674 254.181C169.516 235.594 133.33 229.88 127.849 241.418C122.369 252.957 149.67 277.379 188.828 295.967C227.986 314.554 264.172 320.268 269.653 308.729Z" fill="#EEF2F8"/>
<path d="M269.409 308.608C263.925 320.087 227.935 314.433 188.86 295.93C149.786 277.426 122.708 253.097 128.192 241.618C133.676 230.139 169.666 235.793 208.74 254.296C247.815 272.8 274.893 297.129 269.409 308.608Z" fill="#EDF2F8"/>
<path d="M269.034 308.436C274.474 296.982 247.417 272.761 208.601 254.336C169.785 235.911 133.909 230.26 128.469 241.713C123.029 253.166 150.086 277.387 188.902 295.813C227.718 314.238 263.594 319.889 269.034 308.436Z" fill="#ECF1F7"/>
<path d="M268.724 308.288C274.164 296.835 247.246 272.68 208.601 254.336C169.956 235.992 134.218 230.406 128.778 241.859C123.339 253.313 150.257 277.468 188.902 295.812C227.547 314.156 263.284 319.742 268.724 308.288Z" fill="#ECF1F7"/>
<path d="M268.414 308.141C273.813 296.774 247.001 272.753 208.527 254.49C170.053 236.228 134.487 230.638 129.088 242.006C123.689 253.374 150.501 277.395 188.975 295.657C227.449 313.92 263.015 319.509 268.414 308.141Z" fill="#EBF0F7"/>
<path d="M268.105 307.994C273.463 296.712 246.757 272.827 208.454 254.645C170.151 236.464 134.756 230.871 129.398 242.153C124.039 253.436 150.746 277.321 189.049 295.502C227.351 313.684 262.746 319.277 268.105 307.994Z" fill="#EAF0F6"/>
<path d="M267.795 307.847C273.154 296.565 246.586 272.745 208.454 254.645C170.322 236.544 135.066 231.017 129.707 242.3C124.348 253.582 150.917 277.402 189.048 295.502C227.18 313.602 262.436 319.129 267.795 307.847Z" fill="#EAEFF6"/>
<path d="M267.331 307.626C272.649 296.429 246.256 272.778 208.38 254.799C170.505 236.821 135.49 231.323 130.172 242.52C124.854 253.717 151.247 277.368 189.122 295.347C226.998 313.326 262.013 318.823 267.331 307.626Z" fill="#E9EFF6"/>
<path d="M267.021 307.48C272.298 296.369 246.011 272.852 208.307 254.955C170.602 237.058 135.758 231.556 130.481 242.668C125.204 253.779 151.491 277.296 189.195 295.193C226.9 313.091 261.743 318.592 267.021 307.48Z" fill="#E8EEF6"/>
<path d="M266.712 307.333C271.989 296.221 245.84 272.771 208.307 254.954C170.774 237.138 136.068 231.703 130.791 242.814C125.514 253.926 151.662 277.376 189.196 295.193C226.729 313.009 261.434 318.444 266.712 307.333Z" fill="#E7EEF5"/>
<path d="M266.495 307.238C261.182 318.203 226.735 312.892 189.374 295.074C152.014 277.255 125.964 253.954 131.277 242.989C136.589 232.024 171.037 237.335 208.397 255.154C245.758 272.801 271.808 296.102 266.495 307.238Z" fill="#E7EDF5"/>
<path d="M266.093 307.039C271.329 296.013 245.425 272.764 208.234 255.11C171.042 237.456 136.647 232.083 131.41 243.109C126.174 254.135 152.078 277.384 189.269 295.038C226.461 312.692 260.856 318.065 266.093 307.039Z" fill="#E6EDF5"/>
<path d="M265.783 306.892C270.979 295.952 245.18 272.837 208.16 255.264C171.139 237.692 136.916 232.315 131.72 243.256C126.523 254.196 152.322 277.311 189.343 294.884C226.363 312.456 260.587 317.833 265.783 306.892Z" fill="#E5ECF4"/>
<path d="M265.473 306.745C270.628 295.89 244.935 272.911 208.086 255.419C171.237 237.928 137.185 232.548 132.029 243.403C126.873 254.258 152.566 277.237 189.416 294.729C226.265 312.22 260.317 317.6 265.473 306.745Z" fill="#E5ECF4"/>
<path d="M265.164 306.599C270.319 295.744 244.765 272.83 208.086 255.42C171.408 238.009 137.495 232.695 132.339 243.55C127.183 254.405 152.738 277.319 189.416 294.729C226.095 312.14 260.008 317.454 265.164 306.599Z" fill="#E4EBF4"/>
<path d="M264.699 306.378C269.814 295.609 244.435 272.863 208.013 255.574C171.591 238.286 137.918 233.001 132.803 243.77C127.688 254.54 153.067 277.286 189.489 294.574C225.911 311.863 259.584 317.148 264.699 306.378Z" fill="#E3EBF4"/>
<path d="M264.389 306.231C269.464 295.547 244.19 272.936 207.939 255.729C171.688 238.521 138.187 233.233 133.113 243.917C128.039 254.601 153.312 277.212 189.563 294.42C225.814 311.627 259.315 316.915 264.389 306.231Z" fill="#E2EAF3"/>
<path d="M264.08 306.084C269.154 295.4 244.019 272.855 207.939 255.728C171.859 238.602 138.497 233.38 133.423 244.064C128.348 254.748 153.483 277.293 189.563 294.419C225.643 311.545 259.005 316.768 264.08 306.084Z" fill="#E2EAF3"/>
<path d="M263.77 305.937C268.804 295.338 243.775 272.928 207.866 255.883C171.957 238.838 138.766 233.612 133.732 244.211C128.698 254.809 153.728 277.219 189.637 294.264C225.546 311.309 258.737 316.535 263.77 305.937Z" fill="#E1E9F3"/>
<path d="M263.461 305.79C268.495 295.192 243.604 272.848 207.866 255.884C172.128 238.92 139.076 233.76 134.042 244.358C129.008 254.957 153.899 277.301 189.637 294.265C225.375 311.229 258.427 316.389 263.461 305.79Z" fill="#E0E8F2"/>
<path d="M263.151 305.643C268.144 295.13 243.359 272.921 207.792 256.038C172.225 239.156 139.344 233.992 134.351 244.505C129.358 255.018 154.143 277.227 189.71 294.11C225.277 310.993 258.158 316.157 263.151 305.643Z" fill="#DFE8F2"/>
<path d="M262.896 305.524C257.926 315.975 225.193 310.835 189.889 294.045C154.585 277.255 129.906 255.153 134.876 244.702C139.846 234.251 172.579 239.391 207.884 256.181C243.188 272.971 267.866 295.073 262.896 305.524Z" fill="#DFE7F2"/>
<path d="M262.532 305.349C267.484 294.921 242.944 272.913 207.719 256.193C172.494 239.472 139.923 234.371 134.971 244.799C130.018 255.226 154.559 277.234 189.784 293.955C225.009 310.675 257.579 315.777 262.532 305.349Z" fill="#DEE7F1"/>
<path d="M262.211 305.181C257.241 315.461 224.85 310.493 189.889 293.874C154.927 277.255 130.42 255.324 135.39 245.044C140.36 234.765 172.751 239.733 207.712 256.352C242.674 272.971 267.181 294.902 262.211 305.181Z" fill="#DDE6F1"/>
<path d="M261.757 304.981C266.629 294.724 242.369 273.02 207.572 256.502C172.774 239.984 140.616 234.909 135.744 245.166C130.873 255.422 155.133 277.127 189.93 293.645C224.728 310.163 256.886 315.238 261.757 304.981Z" fill="#DCE6F1"/>
<path d="M261.448 304.835C266.32 294.578 242.199 272.939 207.572 256.502C172.945 240.066 140.926 235.056 136.055 245.313C131.183 255.57 155.304 277.209 189.931 293.645C224.557 310.082 256.577 315.091 261.448 304.835Z" fill="#DCE5F0"/>
<path d="M261.138 304.688C265.969 294.516 241.954 273.012 207.498 256.657C173.043 240.302 141.195 235.289 136.364 245.46C131.533 255.631 155.548 277.135 190.004 293.491C224.46 309.846 256.308 314.859 261.138 304.688Z" fill="#DBE4F0"/>
<path d="M260.84 304.496C256.041 314.605 224.336 309.636 190.06 293.36C155.784 277.084 131.962 255.667 136.761 245.559C141.56 235.45 173.265 240.419 207.541 256.695C241.817 272.972 265.639 294.388 260.84 304.496Z" fill="#DAE4F0"/>
<path d="M260.519 304.394C265.31 294.308 241.538 273.005 207.425 256.812C173.311 240.62 141.773 235.669 136.983 245.755C132.193 255.84 155.964 277.143 190.078 293.336C224.191 309.529 255.729 314.48 260.519 304.394Z" fill="#D9E3EF"/>
<path d="M260.326 304.153C255.527 314.262 224.165 309.293 190.232 293.188C156.298 277.083 132.648 255.838 137.447 245.901C142.245 235.793 173.608 240.761 207.541 256.866C241.303 272.971 264.953 294.216 260.326 304.153Z" fill="#D8E3EF"/>
<path d="M259.9 304.1C264.65 294.1 241.123 272.997 207.351 256.967C173.58 240.936 142.352 236.048 137.603 246.048C132.853 256.048 156.38 277.151 190.151 293.181C223.923 309.212 255.151 314.1 259.9 304.1Z" fill="#D7E2EF"/>
<path d="M259.59 303.952C264.299 294.037 240.878 273.07 207.278 257.12C173.677 241.171 142.621 236.279 137.912 246.194C133.203 256.109 156.624 277.076 190.225 293.025C223.825 308.975 254.881 313.867 259.59 303.952Z" fill="#D7E1EE"/>
<path d="M259.126 303.732C263.795 293.903 240.548 273.104 207.204 257.276C173.86 241.448 143.045 236.586 138.376 246.415C133.708 256.244 156.954 277.044 190.298 292.871C223.642 308.699 254.458 313.562 259.126 303.732Z" fill="#D6E1EE"/>
<path d="M258.816 303.586C263.485 293.756 240.377 273.023 207.204 257.276C174.031 241.53 143.354 236.733 138.686 246.563C134.018 256.392 157.125 277.125 190.298 292.872C223.471 308.618 254.148 313.415 258.816 303.586Z" fill="#D5E0EE"/>
<path d="M258.612 303.468C253.985 313.234 223.479 308.437 190.403 292.674C157.326 277.083 134.362 256.352 138.989 246.587C143.616 236.821 174.122 241.618 207.198 257.38C240.274 273.143 263.239 293.702 258.612 303.468Z" fill="#D4E0ED"/>
<path d="M258.197 303.291C262.825 293.547 239.962 273.015 207.131 257.431C174.3 241.847 143.933 237.112 139.305 246.856C134.677 256.6 157.541 277.132 190.372 292.717C223.203 308.301 253.569 313.035 258.197 303.291Z" fill="#D3DFED"/>
<path d="M257.887 303.144C262.475 293.486 239.717 273.088 207.057 257.585C174.397 242.082 144.202 237.344 139.615 247.003C135.027 256.661 157.785 277.059 190.445 292.562C223.105 308.065 253.3 312.803 257.887 303.144Z" fill="#D2DEED"/>
<path d="M257.584 302.954C252.956 312.549 222.965 307.751 190.574 292.503C158.184 277.255 135.39 256.695 140.017 247.101C144.645 237.506 174.636 242.303 207.027 257.552C239.589 273.143 262.211 293.36 257.584 302.954Z" fill="#D2DEEC"/>
<path d="M257.268 302.851C261.815 293.278 239.302 273.081 206.984 257.741C174.666 242.4 144.781 237.724 140.234 247.297C135.687 256.87 158.201 277.067 190.519 292.407C222.837 307.748 252.722 312.424 257.268 302.851Z" fill="#D1DDEC"/>
<path d="M256.898 302.612C252.442 312.035 222.622 307.409 190.574 292.161C158.526 276.912 136.076 256.867 140.532 247.444C144.987 238.02 174.807 242.646 206.855 257.895C239.075 273.143 261.526 293.189 256.898 302.612Z" fill="#D0DCEC"/>
<path d="M256.555 302.441C252.099 311.864 222.622 307.238 190.574 292.161C158.526 277.084 136.418 257.038 140.874 247.615C145.33 238.192 174.807 242.818 206.855 257.895C238.903 273.143 261.183 293.017 256.555 302.441Z" fill="#CFDCEB"/>
<path d="M256.184 302.337C260.65 292.935 238.556 273.107 206.836 258.05C175.117 242.994 145.783 238.41 141.318 247.812C136.852 257.214 158.946 277.042 190.665 292.098C222.385 307.155 251.719 311.739 256.184 302.337Z" fill="#CEDBEB"/>
<path d="M255.875 302.19C260.3 292.873 238.312 273.181 206.763 258.205C175.215 243.23 146.052 238.642 141.627 247.959C137.202 257.275 159.191 276.968 190.739 291.943C222.288 306.919 251.45 311.506 255.875 302.19Z" fill="#CDDBEB"/>
<path d="M255.699 302.098C251.243 311.35 222.28 306.895 190.917 291.99C159.555 277.084 137.618 257.552 142.074 248.3C146.53 239.049 175.493 243.503 206.855 258.409C238.218 273.143 259.983 292.846 255.699 302.098Z" fill="#CCDAEA"/>
<path d="M255.256 301.895C259.64 292.664 237.896 273.173 206.69 258.359C175.483 243.546 146.631 239.021 142.247 248.252C137.862 257.483 159.606 276.975 190.813 291.788C222.019 306.601 250.872 311.126 255.256 301.895Z" fill="#CCD9EA"/>
<path d="M254.946 301.748C259.29 292.603 237.652 273.246 206.616 258.514C175.58 243.782 146.9 239.254 142.556 248.399C138.212 257.545 159.85 276.901 190.886 291.633C221.922 306.365 250.602 310.894 254.946 301.748Z" fill="#CBD9E9"/>
<path d="M254.637 301.602C258.981 292.456 237.481 273.165 206.616 258.515C175.752 243.864 147.21 239.401 142.866 248.547C138.522 257.692 160.022 276.983 190.886 291.634C221.751 306.285 250.293 310.747 254.637 301.602Z" fill="#CAD8E9"/>
<path d="M254.327 301.455C258.63 292.395 237.236 273.239 206.543 258.669C175.849 244.1 147.478 239.634 143.175 248.694C138.872 257.754 160.266 276.909 190.96 291.479C221.653 306.049 250.024 310.515 254.327 301.455Z" fill="#C9D7E9"/>
<path d="M253.985 301.241C249.7 310.321 221.594 305.867 191.088 291.304C160.583 276.912 139.332 257.723 143.616 248.814C147.901 239.733 176.007 244.188 206.512 258.751C237.018 273.314 258.269 292.331 253.985 301.241Z" fill="#C8D7E8"/>
<path d="M253.553 301.087C257.816 292.112 236.735 273.19 206.469 258.823C176.203 244.457 148.212 240.086 143.95 249.06C139.687 258.035 160.767 276.957 191.033 291.324C221.299 305.69 249.29 310.061 253.553 301.087Z" fill="#C7D6E8"/>
<path d="M253.243 300.94C257.465 292.05 236.491 273.264 206.395 258.978C176.3 244.693 148.481 240.318 144.259 249.207C140.037 258.097 161.011 276.883 191.106 291.169C221.202 305.454 249.021 309.829 253.243 300.94Z" fill="#C6D5E8"/>
<path d="M252.934 300.793C257.115 291.989 236.246 273.337 206.322 259.133C176.398 244.929 148.75 240.551 144.569 249.354C140.387 258.158 161.256 276.81 191.18 291.014C221.104 305.218 248.752 309.596 252.934 300.793Z" fill="#C5D5E7"/>
<path d="M252.613 300.727C248.5 309.465 220.908 305.181 191.259 291.132C161.439 277.083 140.703 258.408 144.987 249.671C149.1 240.933 176.692 245.216 206.341 259.265C236.161 273.314 256.898 291.818 252.613 300.727Z" fill="#C4D4E7"/>
<path d="M252.315 300.499C256.455 291.781 235.831 273.33 206.249 259.288C176.667 245.246 149.329 240.93 145.188 249.649C141.047 258.367 161.672 276.818 191.254 290.86C220.836 304.902 248.174 309.217 252.315 300.499Z" fill="#C3D3E6"/>
<path d="M252.099 300.384C247.986 309.122 220.737 304.838 191.431 290.789C162.125 276.912 141.56 258.408 145.673 249.841C149.786 241.104 177.035 245.387 206.341 259.436C235.647 273.314 256.213 291.646 252.099 300.384Z" fill="#C2D3E6"/>
<path d="M251.695 300.206C255.796 291.573 235.416 273.323 206.175 259.443C176.935 245.564 149.907 241.31 145.807 249.943C141.707 258.576 162.087 276.826 191.327 290.705C220.568 304.585 247.595 308.839 251.695 300.206Z" fill="#C1D2E6"/>
<path d="M251.414 300.042C247.301 308.609 220.565 304.325 191.431 290.619C162.296 276.912 142.245 258.751 146.187 250.185C150.3 241.618 177.035 245.902 206.17 259.608C235.304 273.315 255.527 291.476 251.414 300.042Z" fill="#C1D1E5"/>
<path d="M250.921 299.838C254.981 291.29 234.914 273.274 206.101 259.597C177.289 245.921 150.641 241.762 146.581 250.31C142.521 258.857 162.588 276.873 191.401 290.55C220.213 304.227 246.861 308.385 250.921 299.838Z" fill="#C0D1E5"/>
<path d="M250.612 299.691C254.631 291.229 234.67 273.348 206.028 259.752C177.386 246.157 150.91 241.995 146.891 250.457C142.872 258.919 162.833 276.8 191.474 290.395C220.116 303.991 246.593 308.152 250.612 299.691Z" fill="#BFD0E5"/>
<path d="M250.302 299.545C254.28 291.168 234.425 273.422 205.954 259.908C177.484 246.394 151.178 242.228 147.2 250.605C143.222 258.981 163.077 276.727 191.547 290.241C220.018 303.756 246.323 307.921 250.302 299.545Z" fill="#BECFE4"/>
<path d="M249.993 299.397C253.971 291.021 234.255 273.341 205.955 259.907C177.655 246.474 151.489 242.375 147.51 250.751C143.532 259.127 163.248 276.808 191.548 290.241C219.848 303.674 246.014 307.774 249.993 299.397Z" fill="#BDCEE4"/>
<path d="M249.683 299.25C253.62 290.959 234.01 273.414 205.881 260.062C177.752 246.71 151.757 242.607 147.819 250.898C143.882 259.189 163.492 276.734 191.621 290.086C219.75 303.438 245.745 307.541 249.683 299.25Z" fill="#BCCEE3"/>
<path d="M249.357 299.013C245.416 307.237 219.537 303.297 191.603 289.933C163.668 276.74 144.13 259.265 148.072 251.041C152.014 242.817 177.892 246.758 205.827 260.121C233.933 273.314 253.299 290.789 249.357 299.013Z" fill="#BBCDE3"/>
<path d="M249.064 298.956C252.961 290.75 233.594 273.406 205.808 260.216C178.021 247.027 152.336 242.986 148.439 251.192C144.542 259.397 163.908 276.741 191.695 289.931C219.481 303.121 245.166 307.161 249.064 298.956Z" fill="#BACCE3"/>
<path d="M248.754 298.809C252.61 290.689 233.35 273.48 205.734 260.371C178.118 247.263 152.605 243.219 148.748 251.338C144.892 259.458 164.152 276.667 191.768 289.776C219.384 302.885 244.897 306.929 248.754 298.809Z" fill="#B9CCE2"/>
<path d="M248.501 298.671C244.73 306.724 219.366 302.783 191.945 289.762C164.524 276.741 145.501 259.608 149.272 251.555C153.042 243.503 178.406 247.443 205.827 260.464C233.248 273.485 252.271 290.447 248.501 298.671Z" fill="#B8CBE2"/>
<path d="M247.98 298.442C251.796 290.407 232.849 273.432 205.66 260.526C178.472 247.621 153.338 243.672 149.522 251.706C145.706 259.741 164.653 276.716 191.842 289.622C219.03 302.527 244.164 306.476 247.98 298.442Z" fill="#B7CAE1"/>
<path d="M247.815 298.328C244.044 306.381 219.023 302.44 191.945 289.59C164.867 276.74 146.015 259.95 149.786 251.898C153.556 243.845 178.577 247.786 205.655 260.635C232.733 273.485 251.585 290.276 247.815 298.328Z" fill="#B6C9E1"/>
<path d="M247.361 298.148C251.136 290.199 232.433 273.425 205.587 260.681C178.741 247.938 153.917 244.052 150.142 252.001C146.366 259.95 165.069 276.724 191.915 289.467C218.761 302.211 243.585 306.097 247.361 298.148Z" fill="#B5C9E1"/>
<path d="M247.051 298.001C250.786 290.138 232.189 273.498 205.514 260.836C178.838 248.174 154.186 244.284 150.451 252.147C146.717 260.011 165.314 276.65 191.989 289.312C218.664 301.975 243.316 305.865 247.051 298.001Z" fill="#B4C8E0"/>
<path d="M246.741 297.854C250.476 289.99 232.018 273.417 205.514 260.836C179.009 248.255 154.496 244.43 150.761 252.294C147.026 260.157 165.485 276.731 191.989 289.312C218.493 301.893 243.007 305.717 246.741 297.854Z" fill="#B3C7E0"/>
<path d="M246.444 297.643C242.674 305.353 218.509 301.584 192.117 289.077C165.896 276.57 147.558 260.122 151.157 252.412C154.927 244.702 179.092 248.472 205.484 260.979C231.877 273.486 250.214 289.933 246.444 297.643Z" fill="#B2C7DF"/>
<path d="M246.122 297.561C249.776 289.868 231.529 273.565 205.367 261.146C179.204 248.728 155.034 244.896 151.38 252.589C147.727 260.281 165.973 276.585 192.136 289.003C218.298 301.422 242.469 305.253 246.122 297.561Z" fill="#B1C6DF"/>
<path d="M245.658 297.339C249.311 289.646 231.272 273.441 205.366 261.144C179.461 248.848 155.498 245.115 151.844 252.808C148.191 260.5 166.23 276.705 192.136 289.002C218.041 301.299 242.004 305.031 245.658 297.339Z" fill="#B0C5DE"/>
<path d="M245.348 297.193C248.961 289.585 231.028 273.516 205.293 261.3C179.558 249.084 155.767 245.348 152.154 252.956C148.541 260.563 166.475 276.632 192.209 288.848C217.944 301.064 241.735 304.8 245.348 297.193Z" fill="#AFC4DE"/>
<path d="M245.038 297.046C248.611 289.524 230.783 273.589 205.219 261.455C179.656 249.32 156.036 245.581 152.464 253.102C148.891 260.624 166.719 276.559 192.283 288.693C217.846 300.828 241.466 304.567 245.038 297.046Z" fill="#AEC4DE"/>
<path d="M244.73 296.958C241.131 304.497 217.652 300.727 192.288 288.734C166.924 276.741 149.272 260.807 152.699 253.269C156.298 245.73 179.777 249.5 205.142 261.493C230.677 273.486 248.329 289.42 244.73 296.958Z" fill="#ADC3DD"/>
<path d="M244.559 296.786C240.96 304.154 217.652 300.556 192.459 288.563C167.267 276.57 149.614 260.807 153.213 253.44C156.812 246.073 180.12 249.671 205.313 261.664C230.506 273.486 247.986 289.248 244.559 296.786Z" fill="#ACC2DD"/>
<path d="M244.11 296.605C247.641 289.169 230.197 273.501 205.146 261.61C180.095 249.719 156.924 246.107 153.393 253.543C149.861 260.98 167.305 276.647 192.356 288.538C217.407 300.429 240.578 304.041 244.11 296.605Z" fill="#ABC1DC"/>
<path d="M243.8 296.458C247.291 289.107 229.952 273.574 205.073 261.764C180.193 249.955 157.194 246.34 153.702 253.69C150.211 261.041 167.55 276.574 192.43 288.384C217.31 300.193 240.309 303.808 243.8 296.458Z" fill="#AAC1DC"/>
<path d="M243.491 296.311C246.941 289.045 229.708 273.648 204.999 261.919C180.29 250.19 157.463 246.572 154.012 253.837C150.562 261.102 167.795 276.5 192.503 288.229C217.212 299.957 240.04 303.576 243.491 296.311Z" fill="#A9C0DC"/>
<path d="M243.026 296.09C246.477 288.825 229.452 273.526 204.999 261.919C180.547 250.312 157.927 246.793 154.476 254.058C151.026 261.323 168.051 276.622 192.503 288.229C216.956 299.836 239.576 303.356 243.026 296.09Z" fill="#A8BFDB"/>
<path d="M242.845 295.93C239.417 303.126 216.966 299.528 192.63 288.049C168.295 276.57 151.328 261.322 154.756 254.126C158.183 246.93 180.634 250.528 204.97 262.007C229.306 273.657 246.272 288.734 242.845 295.93Z" fill="#A7BEDB"/>
<path d="M242.407 295.797C245.776 288.702 228.962 273.674 204.852 262.229C180.742 250.784 158.465 247.258 155.096 254.352C151.726 261.446 168.54 276.475 192.65 287.919C216.761 299.364 239.037 302.891 242.407 295.797Z" fill="#A6BEDA"/>
<path d="M242.16 295.588C238.732 302.612 216.624 299.185 192.631 287.878C168.638 276.57 152.014 261.493 155.441 254.468C158.869 247.444 180.977 250.87 204.97 262.178C228.792 273.657 245.587 288.563 242.16 295.588Z" fill="#A5BDDA"/>
<path d="M241.788 295.502C245.117 288.493 228.547 273.665 204.779 262.383C181.01 251.101 159.044 247.637 155.715 254.645C152.386 261.654 168.956 276.482 192.724 287.764C216.492 299.047 238.459 302.511 241.788 295.502Z" fill="#A4BCD9"/>
<path d="M241.478 295.356C244.807 288.347 228.376 273.585 204.779 262.384C181.181 251.183 159.353 247.784 156.025 254.793C152.696 261.802 169.127 276.564 192.724 287.765C216.321 298.966 238.149 302.364 241.478 295.356Z" fill="#A3BBD9"/>
<path d="M241.131 295.244C237.875 302.097 216.281 298.842 192.802 287.705C169.323 276.569 153.042 262.006 156.298 255.153C159.555 248.3 181.148 251.555 204.627 262.691C228.106 273.656 244.559 288.219 241.131 295.244Z" fill="#A1BAD8"/>
<path d="M240.788 295.073C237.532 301.927 216.11 298.5 192.802 287.535C169.666 276.57 153.385 262.007 156.641 255.154C159.897 248.3 181.319 251.727 204.627 262.692C227.935 273.657 244.044 288.22 240.788 295.073Z" fill="#A0BAD8"/>
<path d="M240.394 294.84C243.642 288.003 227.63 273.609 204.631 262.692C181.633 251.775 160.356 248.469 157.108 255.306C153.86 262.144 169.872 276.537 192.871 287.454C215.87 298.371 237.147 301.678 240.394 294.84Z" fill="#9FB9D8"/>
<path d="M240.274 294.731C237.018 301.413 215.938 298.157 193.145 287.363C170.18 276.398 154.242 262.178 157.498 255.496C160.754 248.814 181.834 252.07 204.627 262.863C227.421 273.657 243.359 288.049 240.274 294.731Z" fill="#9EB8D7"/>
<path d="M239.775 294.547C242.941 287.88 227.141 273.757 204.484 263.002C181.827 252.247 160.894 248.933 157.727 255.6C154.561 262.267 170.361 276.39 193.018 287.145C215.674 297.9 236.608 301.213 239.775 294.547Z" fill="#9DB7D7"/>
<path d="M239.589 294.388C236.504 301.069 215.596 297.814 193.145 287.02C170.694 276.227 154.927 262.349 158.183 255.667C161.268 248.985 182.177 252.24 204.627 263.034C227.078 273.657 242.674 287.706 239.589 294.388Z" fill="#9CB6D6"/>
<path d="M239.246 294.217C236.161 300.727 215.424 297.643 193.145 287.021C170.866 276.398 155.27 262.521 158.355 255.839C161.44 249.328 182.177 252.412 204.456 263.035C226.735 273.657 242.331 287.706 239.246 294.217Z" fill="#9BB6D6"/>
<path d="M238.903 294.046C235.818 300.556 215.253 297.301 193.145 286.85C171.037 276.399 155.613 262.521 158.697 256.011C161.782 249.5 182.348 252.755 204.456 263.206C226.564 273.658 241.988 287.535 238.903 294.046Z" fill="#9AB5D5"/>
<path d="M238.537 293.96C241.622 287.464 226.311 273.742 204.338 263.312C182.365 252.882 162.051 249.693 158.966 256.189C155.881 262.685 171.192 276.406 193.165 286.836C215.138 297.266 235.451 300.456 238.537 293.96Z" fill="#99B4D5"/>
<path d="M238.218 293.703C235.133 300.213 215.081 296.958 193.316 286.678C171.551 276.398 156.298 262.692 159.383 256.353C162.468 249.842 182.519 253.098 204.284 263.377C226.05 273.657 241.302 287.364 238.218 293.703Z" fill="#98B3D4"/>
<path d="M237.763 293.592C240.807 287.182 225.81 273.695 204.264 263.467C182.719 253.24 162.785 250.146 159.74 256.557C156.695 262.967 171.693 276.455 193.239 286.682C214.784 296.909 234.718 300.003 237.763 293.592Z" fill="#97B2D4"/>
<path d="M237.532 293.531C234.448 299.87 214.739 296.786 193.316 286.506C171.894 276.398 156.984 263.034 160.069 256.695C163.154 250.356 182.862 253.44 204.285 263.719C225.707 273.828 240.617 287.192 237.532 293.531Z" fill="#96B2D4"/>
<path d="M237.189 293.36C234.276 299.699 214.567 296.615 193.316 286.506C172.065 276.398 157.326 263.206 160.24 256.866C163.153 250.527 182.862 253.611 204.113 263.72C225.364 273.828 240.274 287.02 237.189 293.36Z" fill="#94B1D3"/>
<path d="M236.834 293.151C239.797 286.911 225.149 273.76 204.117 263.776C183.085 253.793 163.632 250.758 160.669 256.997C157.705 263.237 172.353 276.388 193.385 286.372C214.418 296.355 233.87 299.391 236.834 293.151Z" fill="#93B0D3"/>
<path d="M236.675 293.017C233.762 299.185 214.396 296.101 193.659 286.335C172.751 276.398 158.183 263.377 161.268 257.209C164.182 251.041 183.548 254.125 204.284 263.891C225.021 273.828 239.589 286.849 236.675 293.017Z" fill="#92AFD2"/>
<path d="M236.215 292.857C239.138 286.703 224.734 273.752 204.044 263.931C183.353 254.109 164.211 251.137 161.288 257.291C158.365 263.445 172.769 276.395 193.459 286.216C214.149 296.038 233.292 299.011 236.215 292.857Z" fill="#91AED2"/>
<path d="M235.905 292.71C238.787 286.641 224.489 273.826 203.97 264.085C183.45 254.345 164.48 251.369 161.597 257.438C158.715 263.506 173.013 276.322 193.532 286.062C214.052 295.802 233.022 298.778 235.905 292.71Z" fill="#90AED1"/>
<path d="M235.595 292.563C238.437 286.579 224.245 273.899 203.897 264.24C183.548 254.581 164.749 251.601 161.907 257.584C159.065 263.568 173.257 276.248 193.606 285.907C213.954 295.566 232.754 298.546 235.595 292.563Z" fill="#8FADD1"/>
<path d="M235.286 292.416C238.127 286.433 224.074 273.818 203.896 264.241C183.719 254.663 165.058 251.749 162.217 257.732C159.375 263.715 173.428 276.33 193.606 285.907C213.783 295.485 232.444 298.399 235.286 292.416Z" fill="#8EACD0"/>
<path d="M234.962 292.16C232.22 297.986 213.711 295.244 193.831 285.65C173.951 276.227 159.897 263.72 162.811 257.894C165.553 252.069 184.062 254.81 203.942 264.405C223.822 273.828 237.704 286.335 234.962 292.16Z" fill="#8DABD0"/>
<path d="M234.512 292.049C237.272 286.237 223.5 273.926 203.75 264.551C184 255.176 165.752 252.288 162.991 258.1C160.231 263.912 174.003 276.224 193.753 285.599C213.503 294.973 231.751 297.862 234.512 292.049Z" fill="#8CAACF"/>
<path d="M234.202 291.902C236.962 286.09 223.328 273.844 203.749 264.55C184.17 255.257 166.061 252.434 163.3 258.247C160.54 264.059 174.174 276.304 193.753 285.598C213.332 294.892 231.441 297.714 234.202 291.902Z" fill="#8AA9CF"/>
<path d="M233.933 291.818C231.191 297.472 213.196 294.731 193.83 285.479C174.464 276.227 160.925 264.063 163.667 258.409C166.409 252.755 184.404 255.496 203.77 264.748C223.136 273.828 236.675 285.993 233.933 291.818Z" fill="#89A9CF"/>
<path d="M233.591 291.647C230.848 297.301 213.196 294.559 193.83 285.479C174.636 276.398 161.268 264.405 163.839 258.58C166.581 252.926 184.233 255.667 203.599 264.748C222.965 273.828 236.333 285.993 233.591 291.647Z" fill="#88A8CE"/>
<path d="M233.273 291.462C235.953 285.82 222.669 273.911 203.603 264.86C184.537 255.81 166.909 253.047 164.229 258.688C161.55 264.329 174.834 276.239 193.9 285.289C212.966 294.339 230.594 297.103 233.273 291.462Z" fill="#87A7CE"/>
<path d="M232.963 291.314C235.602 285.758 222.424 273.983 203.529 265.014C184.634 256.045 167.177 253.278 164.539 258.834C161.9 264.39 175.078 276.164 193.973 285.133C212.868 294.102 230.325 296.869 232.963 291.314Z" fill="#86A6CD"/>
<path d="M232.733 291.132C230.163 296.615 212.853 293.873 194.173 285.136C175.493 276.226 162.468 264.576 165.039 259.093C167.609 253.611 184.919 256.352 203.599 265.09C222.279 273.999 235.304 285.65 232.733 291.132Z" fill="#85A5CD"/>
<path d="M232.391 290.961C229.82 296.443 212.682 293.702 194.173 284.964C175.664 276.226 162.811 264.576 165.381 259.093C167.952 253.611 185.09 256.352 203.599 265.09C222.108 273.999 234.962 285.478 232.391 290.961Z" fill="#84A4CC"/>
<path d="M231.88 290.799C234.438 285.415 221.679 274.009 203.382 265.324C185.086 256.639 168.18 253.964 165.623 259.348C163.065 264.733 175.824 276.139 194.12 284.824C212.417 293.509 229.323 296.184 231.88 290.799Z" fill="#82A4CC"/>
<path d="M231.705 290.619C229.135 295.93 212.339 293.36 194.173 284.794C176.007 276.227 163.325 264.92 165.896 259.437C168.466 254.126 185.261 256.696 203.428 265.262C221.594 273.829 234.276 285.308 231.705 290.619Z" fill="#81A3CB"/>
<path d="M231.26 290.505C233.777 285.206 221.263 274.001 203.308 265.478C185.354 256.956 168.758 254.343 166.241 259.642C163.725 264.941 176.239 276.146 194.194 284.669C212.148 293.191 228.744 295.804 231.26 290.505Z" fill="#80A2CB"/>
<path d="M231.02 290.276C228.449 295.587 212.168 293.017 194.344 284.451C176.521 276.056 164.182 264.919 166.752 259.608C169.323 254.297 185.604 256.867 203.428 265.433C221.251 274 233.419 285.136 231.02 290.276Z" fill="#7FA1CA"/>
<path d="M230.677 290.275C228.278 295.415 211.997 292.845 194.345 284.621C176.692 276.226 164.524 265.261 166.924 260.121C169.323 254.981 185.604 257.551 203.256 265.775C220.908 273.999 233.076 284.964 230.677 290.275Z" fill="#7EA0CA"/>
<path d="M230.332 290.065C232.768 284.936 220.603 274.067 203.162 265.788C185.72 257.509 169.606 254.955 167.171 260.083C164.735 265.212 176.899 276.081 194.341 284.36C211.783 292.639 227.896 295.193 230.332 290.065Z" fill="#7D9FC9"/>
<path d="M229.991 289.933C227.592 295.073 211.654 292.503 194.344 284.279C177.035 276.056 165.038 265.262 167.438 260.293C169.837 255.153 185.775 257.723 203.085 265.947C220.394 274 232.391 284.793 229.991 289.933Z" fill="#7B9EC9"/>
<path d="M229.649 289.762C227.25 294.731 211.483 292.332 194.516 284.28C177.378 276.227 165.553 265.605 167.952 260.465C170.352 255.496 186.118 257.895 203.085 265.947C220.223 274 232.048 284.622 229.649 289.762Z" fill="#7A9EC8"/>
<path d="M229.306 289.59C226.907 294.559 211.311 292.16 194.516 284.108C177.721 276.055 165.895 265.604 168.295 260.636C170.694 255.667 186.29 258.066 203.085 266.118C220.051 273.999 231.705 284.622 229.306 289.59Z" fill="#799DC8"/>
<path d="M228.963 289.419C226.564 294.388 211.14 291.989 194.516 283.937C177.892 276.055 166.238 265.604 168.466 260.636C170.866 255.667 186.29 258.066 202.914 266.118C219.709 273.999 231.363 284.451 228.963 289.419Z" fill="#789CC7"/>
<path d="M228.629 289.257C230.943 284.385 219.442 274.086 202.941 266.253C186.44 258.42 171.187 256.02 168.873 260.892C166.559 265.764 178.06 276.063 194.561 283.896C211.062 291.729 226.315 294.129 228.629 289.257Z" fill="#779BC7"/>
<path d="M228.449 289.076C226.221 293.874 211.14 291.475 194.687 283.765C178.406 276.055 166.924 265.775 169.323 260.978C171.551 256.181 186.632 258.58 203.085 266.289C219.366 274.171 230.677 284.279 228.449 289.076Z" fill="#759AC6"/>
<path d="M228.106 288.906C225.878 293.703 210.968 291.304 194.687 283.594C178.406 275.884 167.267 265.776 169.494 261.15C171.722 256.353 186.632 258.751 202.913 266.461C219.023 274.171 230.334 284.108 228.106 288.906Z" fill="#7499C6"/>
<path d="M227.7 288.815C229.933 284.114 218.782 274.151 202.794 266.562C186.806 258.973 172.035 256.632 169.802 261.333C167.569 266.034 178.72 275.997 194.708 283.586C210.696 291.175 225.467 293.516 227.7 288.815Z" fill="#7398C5"/>
<path d="M227.421 288.563C225.193 293.189 210.626 290.961 194.859 283.423C179.092 275.884 168.123 266.118 170.351 261.493C172.579 256.867 187.147 259.094 202.914 266.632C218.68 274.171 229.649 283.937 227.421 288.563Z" fill="#7297C5"/>
<path d="M227.078 288.562C224.85 293.188 210.454 290.961 194.859 283.422C179.263 276.055 168.466 266.289 170.523 261.663C172.579 257.038 187.146 259.265 202.742 266.803C218.338 274.171 229.306 283.936 227.078 288.562Z" fill="#7197C4"/>
<path d="M226.735 288.391C224.507 293.017 210.283 290.79 194.859 283.423C179.435 276.055 168.638 266.461 170.866 261.835C173.094 257.209 187.318 259.436 202.742 266.804C218.166 274.171 228.963 283.765 226.735 288.391Z" fill="#6F96C4"/>
<path d="M226.393 288.219C224.336 292.674 210.112 290.447 194.859 283.251C179.606 276.055 168.98 266.461 171.208 262.006C173.265 257.551 187.489 259.779 202.742 266.975C217.995 274.17 228.621 283.594 226.393 288.219Z" fill="#6E95C3"/>
<path d="M226.05 288.048C223.993 292.503 209.94 290.275 195.03 283.08C179.949 275.884 169.495 266.461 171.551 262.006C173.608 257.551 187.661 259.779 202.571 266.975C217.652 274.17 228.278 283.594 226.05 288.048Z" fill="#6D94C3"/>
<path d="M225.707 287.877C223.65 292.332 209.94 290.105 195.03 283.08C180.12 276.056 169.837 266.804 171.894 262.349C173.95 257.895 187.661 260.122 202.571 267.147C217.481 274.171 227.763 283.423 225.707 287.877Z" fill="#6C93C2"/>
<path d="M225.364 287.706C223.308 291.99 209.769 289.934 195.03 282.909C180.292 275.885 170.18 266.804 172.237 262.349C174.293 258.066 187.832 260.122 202.571 267.147C217.31 274.171 227.421 283.423 225.364 287.706Z" fill="#6B92C2"/>
<path d="M225.069 287.567C227.098 283.294 216.961 274.236 202.427 267.337C187.892 260.438 174.464 258.309 172.434 262.583C170.404 266.857 180.541 275.914 195.076 282.813C209.611 289.713 223.039 291.841 225.069 287.567Z" fill="#6991C1"/>
<path d="M224.85 287.363C222.794 291.647 209.597 289.591 195.202 282.738C180.806 275.884 170.866 266.975 172.922 262.692C174.979 258.409 188.175 260.465 202.571 267.318C216.967 274.171 226.735 283.08 224.85 287.363Z" fill="#6890C1"/>
<path d="M224.507 287.192C222.451 291.304 209.426 289.248 195.373 282.566C181.148 275.884 171.38 266.975 173.265 262.863C175.322 258.751 188.346 260.807 202.399 267.489C216.624 274.171 226.393 283.08 224.507 287.192Z" fill="#678FC0"/>
<path d="M224.165 287.021C222.28 291.132 209.255 289.076 195.373 282.566C181.32 275.884 171.723 267.146 173.608 263.034C175.493 258.922 188.518 260.978 202.4 267.489C216.281 274.171 226.05 282.909 224.165 287.021Z" fill="#668FC0"/>
<path d="M223.822 286.849C221.937 290.961 209.083 288.905 195.373 282.394C181.663 275.884 171.894 267.317 173.95 263.205C175.836 259.093 188.689 261.149 202.399 267.66C216.11 274.17 225.707 282.908 223.822 286.849Z" fill="#648EBF"/>
<path d="M223.366 286.758C225.274 282.741 215.8 274.253 202.206 267.8C188.612 261.347 176.045 259.373 174.137 263.39C172.229 267.407 181.702 275.895 195.297 282.348C208.891 288.801 221.458 290.775 223.366 286.758Z" fill="#638DBF"/>
<path d="M223.137 286.678C221.251 290.618 208.912 288.734 195.373 282.395C182.005 276.055 172.58 267.66 174.465 263.72C176.35 259.779 188.689 261.664 202.228 268.003C215.596 274.342 225.022 282.566 223.137 286.678Z" fill="#628CBE"/>
<path d="M222.794 286.507C220.908 290.447 208.741 288.563 195.373 282.223C182.177 275.884 172.922 267.66 174.807 263.72C176.693 259.779 188.86 261.664 202.228 268.003C215.596 274.342 224.679 282.566 222.794 286.507Z" fill="#618BBE"/>
<path d="M222.451 286.335C220.566 290.275 208.569 288.22 195.544 282.052C182.519 275.884 173.436 267.66 175.15 263.891C177.035 259.95 189.032 262.006 202.057 268.174C215.253 274.342 224.336 282.394 222.451 286.335Z" fill="#5F8ABD"/>
<path d="M222.127 286.169C223.954 282.323 214.969 274.237 202.059 268.109C189.149 261.981 177.202 260.131 175.375 263.977C173.548 267.823 182.533 275.909 195.443 282.037C208.353 288.165 220.3 290.015 222.127 286.169Z" fill="#5E89BD"/>
<path d="M221.765 285.993C220.051 289.762 208.226 287.878 195.544 281.881C182.862 275.884 173.95 268.003 175.835 264.234C177.549 260.465 189.374 262.349 202.056 268.346C214.738 274.342 223.65 282.224 221.765 285.993Z" fill="#5D88BC"/>
<path d="M221.423 285.822C219.709 289.591 208.055 287.706 195.544 281.71C183.034 275.713 174.293 268.003 176.007 264.234C177.721 260.465 189.375 262.349 201.885 268.346C214.568 274.342 223.308 282.052 221.423 285.822Z" fill="#5C87BC"/>
<path d="M221.08 285.65C219.366 289.248 207.883 287.535 195.544 281.71C183.205 275.884 174.636 268.175 176.35 264.577C178.063 260.979 189.546 262.692 201.885 268.517C214.224 274.342 222.965 282.052 221.08 285.65Z" fill="#5A86BB"/>
<path d="M220.909 285.479C219.195 289.077 207.884 287.363 195.887 281.538C183.719 275.713 175.322 268.175 177.035 264.577C178.749 260.979 190.06 262.692 202.057 268.517C214.053 274.342 222.451 281.881 220.909 285.479Z" fill="#5985BB"/>
<path d="M220.565 285.307C218.852 288.905 207.883 287.192 195.887 281.366C183.89 275.713 175.493 268.174 177.206 264.747C178.92 261.15 189.889 262.863 201.885 268.688C213.882 274.342 222.108 281.88 220.565 285.307Z" fill="#5884BA"/>
<path d="M220.223 285.136C218.509 288.563 207.712 286.849 195.887 281.367C184.062 275.713 175.835 268.346 177.549 264.919C179.263 261.492 190.06 263.206 201.885 268.688C213.539 274.342 221.765 281.709 220.223 285.136Z" fill="#5784BA"/>
<path d="M219.88 285.136C218.166 288.562 207.541 286.849 195.887 281.366C184.233 275.884 176.178 268.688 177.892 265.09C179.606 261.663 190.231 263.377 201.885 268.859C213.368 274.342 221.422 281.538 219.88 285.136Z" fill="#5583B9"/>
<path d="M219.537 284.965C217.995 288.391 207.369 286.678 195.887 281.196C184.404 275.713 176.521 268.688 178.063 265.262C179.606 261.835 190.231 263.548 201.714 269.031C213.196 274.342 221.08 281.538 219.537 284.965Z" fill="#5482B9"/>
<path d="M219.195 284.793C217.652 288.048 207.198 286.506 195.887 281.195C184.576 275.884 176.864 268.859 178.406 265.432C179.949 262.177 190.403 263.719 201.714 269.03C212.854 274.342 220.737 281.366 219.195 284.793Z" fill="#5381B8"/>
<path d="M218.852 284.622C217.31 287.877 207.027 286.335 196.058 281.024C184.919 275.713 177.207 268.86 178.749 265.604C180.292 262.349 190.574 263.891 201.543 269.202C212.682 274.342 220.394 281.367 218.852 284.622Z" fill="#5280B8"/>
<path d="M218.509 284.451C216.967 287.706 206.855 286.164 196.058 280.853C185.09 275.713 177.549 268.86 179.092 265.604C180.634 262.349 190.746 263.891 201.542 269.202C212.511 274.342 220.051 281.195 218.509 284.451Z" fill="#507FB7"/>
<path d="M218.167 284.279C216.624 287.363 206.684 285.821 196.059 280.853C185.433 275.713 177.892 269.031 179.435 265.947C180.977 262.863 190.917 264.405 201.543 269.373C212.168 274.342 219.709 281.195 218.167 284.279Z" fill="#4F7EB7"/>
<path d="M217.824 284.108C216.281 287.192 206.684 285.65 196.059 280.681C185.604 275.713 178.235 269.202 179.606 265.947C181.149 262.863 190.746 264.405 201.371 269.373C211.997 274.513 219.366 281.024 217.824 284.108Z" fill="#4E7DB6"/>
<path d="M217.481 283.937C216.11 287.021 206.513 285.479 196.058 280.51C185.776 275.542 178.578 269.203 179.949 266.119C181.32 263.035 190.917 264.577 201.371 269.545C211.825 274.514 219.023 280.853 217.481 283.937Z" fill="#4C7CB5"/>
<path d="M217.138 283.766C215.767 286.85 206.341 285.308 196.23 280.511C186.118 275.713 178.92 269.374 180.463 266.29C181.834 263.206 191.26 264.748 201.371 269.545C211.482 274.514 218.68 280.853 217.138 283.766Z" fill="#4B7BB5"/>
<path d="M216.967 283.594C215.596 286.507 206.341 285.136 196.401 280.339C186.461 275.542 179.435 269.374 180.806 266.461C182.177 263.549 191.431 264.919 201.371 269.717C211.311 274.514 218.338 280.682 216.967 283.594Z" fill="#4A7AB4"/>
<path d="M216.624 283.423C215.253 286.336 206.17 284.965 196.401 280.168C186.632 275.542 179.777 269.374 181.148 266.461C182.519 263.549 191.602 264.919 201.371 269.717C211.14 274.514 217.995 280.682 216.624 283.423Z" fill="#4979B4"/>
<path d="M216.281 283.422C214.91 286.335 205.998 284.793 196.401 280.338C186.804 275.712 180.12 269.716 181.491 266.975C182.862 264.062 191.774 265.604 201.371 270.058C210.797 274.513 217.652 280.51 216.281 283.422Z" fill="#4778B3"/>
<path d="M215.938 283.251C214.567 285.992 205.827 284.622 196.401 280.167C186.975 275.712 180.463 269.716 181.662 266.975C183.033 264.233 191.774 265.604 201.2 270.059C210.626 274.513 217.138 280.338 215.938 283.251Z" fill="#4677B3"/>
<path d="M215.596 283.08C214.225 285.822 205.827 284.451 196.572 279.996C187.318 275.542 180.806 269.888 182.177 267.147C183.548 264.405 191.945 265.776 201.2 270.23C210.454 274.514 216.795 280.339 215.596 283.08Z" fill="#4576B2"/>
<path d="M215.253 282.909C214.053 285.65 205.656 284.28 196.573 279.996C187.49 275.713 181.148 270.059 182.52 267.318C183.719 264.577 192.117 265.947 201.2 270.231C210.112 274.514 216.453 280.168 215.253 282.909Z" fill="#4375B2"/>
<path d="M214.91 282.737C213.71 285.307 205.484 284.108 196.572 279.825C187.661 275.542 181.491 270.059 182.691 267.489C183.89 264.919 192.117 266.118 201.028 270.402C209.94 274.514 216.11 280.167 214.91 282.737Z" fill="#4274B1"/>
<path d="M214.567 282.566C213.368 285.136 205.313 283.937 196.573 279.825C187.832 275.713 181.834 270.231 183.034 267.661C184.233 265.091 192.288 266.29 201.028 270.402C209.769 274.514 215.767 279.996 214.567 282.566Z" fill="#4173B1"/>
<path d="M214.225 282.395C213.025 284.964 205.141 283.594 196.572 279.653C188.003 275.541 182.177 270.23 183.376 267.831C184.576 265.262 192.459 266.632 201.028 270.573C209.426 274.513 215.424 279.825 214.225 282.395Z" fill="#3F72B0"/>
<path d="M213.922 282.275C215.099 279.796 209.261 274.563 200.883 270.585C192.504 266.608 184.757 265.393 183.58 267.872C182.403 270.351 188.241 275.584 196.619 279.562C204.998 283.539 212.745 284.754 213.922 282.275Z" fill="#3E72B0"/>
<path d="M213.539 282.052C212.34 284.45 204.799 283.251 196.744 279.482C188.518 275.541 182.862 270.572 184.062 268.174C185.262 265.775 192.802 266.975 200.857 270.744C209.083 274.513 214.739 279.653 213.539 282.052Z" fill="#3D71AF"/>
<path d="M213.196 281.88C211.997 284.279 204.627 283.08 196.744 279.31C188.689 275.541 183.205 270.572 184.404 268.174C185.604 265.775 192.973 266.975 200.857 270.744C208.912 274.513 214.396 279.653 213.196 281.88Z" fill="#3B70AE"/>
<path d="M213.025 281.71C211.997 283.937 204.799 282.909 196.915 279.14C189.032 275.37 183.719 270.573 184.747 268.346C185.776 266.119 192.974 267.147 200.857 270.916C208.569 274.685 214.053 279.482 213.025 281.71Z" fill="#3A6FAE"/>
<path d="M212.682 281.538C211.654 283.765 204.628 282.737 196.915 279.139C189.375 275.541 184.062 270.744 185.09 268.517C186.119 266.289 193.145 267.317 200.857 270.915C208.398 274.684 213.711 279.31 212.682 281.538Z" fill="#396EAD"/>
<path d="M212.339 281.538C211.311 283.766 204.456 282.738 196.915 279.14C189.546 275.542 184.233 270.916 185.261 268.688C186.29 266.461 193.145 267.489 200.685 271.087C208.226 274.685 213.368 279.311 212.339 281.538Z" fill="#376DAD"/>
<path d="M211.997 281.366C210.968 283.594 204.285 282.394 197.087 278.968C189.889 275.541 184.747 270.915 185.776 268.859C186.804 266.632 193.488 267.831 200.686 271.258C207.884 274.685 213.025 279.139 211.997 281.366Z" fill="#366CAC"/>
<path d="M211.654 281.195C210.626 283.251 204.113 282.223 197.087 278.968C190.06 275.541 185.09 271.258 186.118 269.031C187.147 266.975 193.659 268.003 200.686 271.258C207.712 274.685 212.682 279.139 211.654 281.195Z" fill="#356BAC"/>
<path d="M211.311 281.024C210.283 283.08 203.942 282.052 197.086 278.797C190.231 275.542 185.433 271.259 186.289 269.203C187.318 267.147 193.659 268.175 200.514 271.43C207.541 274.685 212.339 278.968 211.311 281.024Z" fill="#336AAB"/>
<path d="M210.968 280.853C210.111 282.909 203.77 281.881 197.087 278.626C190.403 275.371 185.776 271.259 186.632 269.203C187.489 267.147 193.83 268.175 200.514 271.43C207.198 274.685 211.997 278.797 210.968 280.853Z" fill="#3269AB"/>
<path d="M210.626 280.681C209.769 282.565 203.599 281.709 197.087 278.625C190.574 275.541 185.947 271.429 186.975 269.544C187.832 267.66 194.002 268.516 200.514 271.6C207.027 274.684 211.483 278.796 210.626 280.681Z" fill="#3168AA"/>
<path d="M210.283 280.509C209.426 282.394 203.599 281.537 197.087 278.454C190.746 275.37 186.29 271.429 187.147 269.544C188.004 267.66 193.83 268.516 200.343 271.6C206.855 274.684 211.14 278.625 210.283 280.509Z" fill="#2F67AA"/>
<path d="M209.897 280.365C210.75 278.57 206.451 274.746 200.295 271.824C194.139 268.902 188.458 267.988 187.605 269.783C186.753 271.578 191.052 275.402 197.208 278.324C203.364 281.246 209.045 282.16 209.897 280.365Z" fill="#2E66A9"/>
<path d="M209.597 280.167C208.74 281.881 203.256 281.024 197.258 278.283C191.26 275.37 187.147 271.772 188.004 269.888C188.86 268.174 194.345 269.031 200.343 271.772C206.341 274.685 210.454 278.454 209.597 280.167Z" fill="#2D65A8"/>
<path d="M209.255 279.996C208.398 281.709 203.085 280.852 197.258 278.111C191.431 275.37 187.49 271.772 188.175 270.059C189.032 268.345 194.345 269.202 200.172 271.943C206.17 274.684 210.112 278.282 209.255 279.996Z" fill="#2B64A8"/>
<path d="M209.083 279.824C208.226 281.538 203.085 280.681 197.429 277.94C191.774 275.198 187.832 271.772 188.689 270.059C189.546 268.345 194.687 269.202 200.343 271.943C205.827 274.684 209.769 278.282 209.083 279.824Z" fill="#2A63A7"/>
<path d="M208.74 279.825C208.055 281.367 202.913 280.682 197.429 278.112C191.945 275.542 188.175 272.115 189.032 270.573C189.717 269.031 194.859 269.716 200.343 272.286C205.655 274.685 209.426 278.112 208.74 279.825Z" fill="#2962A7"/>
<path d="M208.398 279.654C207.712 281.196 202.742 280.51 197.601 277.94C192.288 275.37 188.689 272.115 189.375 270.573C190.06 269.031 195.03 269.716 200.172 272.286C205.484 274.685 209.083 278.112 208.398 279.654Z" fill="#2761A6"/>
<path d="M208.055 279.482C207.369 281.024 202.571 280.167 197.601 277.769C192.459 275.37 189.032 272.115 189.717 270.744C190.403 269.202 195.201 270.059 200.171 272.458C205.141 274.685 208.74 277.94 208.055 279.482Z" fill="#2660A6"/>
<path d="M207.712 279.311C207.027 280.681 202.571 279.996 197.601 277.769C192.631 275.37 189.375 272.457 190.06 270.915C190.746 269.545 195.202 270.23 200.172 272.457C204.97 274.856 208.398 277.769 207.712 279.311Z" fill="#255FA5"/>
<path d="M207.369 279.14C206.684 280.511 202.399 279.825 197.601 277.598C192.802 275.371 189.546 272.458 190.231 271.087C190.917 269.717 195.201 270.402 200 272.629C204.799 274.857 208.055 277.769 207.369 279.14Z" fill="#235EA4"/>
<path d="M207.027 278.969C206.341 280.339 202.228 279.654 197.601 277.427C193.145 275.199 189.889 272.458 190.574 271.087C191.26 269.717 195.373 270.402 200 272.629C204.456 274.857 207.712 277.598 207.027 278.969Z" fill="#225DA4"/>
<path d="M206.684 278.797C205.998 280.168 202.057 279.482 197.772 277.426C193.488 275.37 190.403 272.629 190.917 271.43C191.602 270.059 195.544 270.744 199.829 272.8C204.285 274.856 207.369 277.598 206.684 278.797Z" fill="#205CA3"/>
<path d="M206.341 278.626C205.827 279.825 201.885 279.311 197.772 277.255C193.659 275.199 190.745 272.629 191.26 271.43C191.774 270.231 195.715 270.745 199.829 272.801C204.113 274.857 207.026 277.427 206.341 278.626Z" fill="#1F5BA3"/>
<path d="M205.998 278.454C205.484 279.653 201.714 279.139 197.772 277.083C193.83 275.199 190.917 272.629 191.602 271.601C192.116 270.402 195.887 270.916 199.829 272.972C203.77 274.856 206.684 277.255 205.998 278.454Z" fill="#1E5AA2"/>
<path d="M205.717 278.381C206.245 277.27 203.554 274.888 199.707 273.062C195.859 271.236 192.312 270.656 191.785 271.767C191.257 272.878 193.948 275.26 197.795 277.086C201.643 278.912 205.19 279.492 205.717 278.381Z" fill="#1C59A2"/>
<path d="M205.313 278.112C204.798 279.14 201.371 278.626 197.772 276.912C194.173 275.199 191.602 272.972 192.116 271.772C192.63 270.744 196.058 271.258 199.657 272.972C203.427 274.856 205.827 277.084 205.313 278.112Z" fill="#1B58A1"/>
<path d="M205.141 278.112C204.627 279.14 201.542 278.626 197.943 276.912C194.516 275.199 192.116 273.143 192.63 272.115C193.145 271.087 196.229 271.601 199.828 273.315C203.085 274.856 205.484 277.084 205.141 278.112Z" fill="#1957A0"/>
<path d="M204.798 277.94C204.284 278.968 201.371 278.454 198.115 276.912C194.858 275.37 192.631 273.314 192.973 272.286C193.487 271.258 196.401 271.772 199.657 273.314C202.913 274.856 205.141 276.912 204.798 277.94Z" fill="#1856A0"/>
<path d="M204.456 277.769C203.942 278.626 201.2 278.283 198.115 276.741C195.03 275.199 192.802 273.314 193.316 272.458C193.83 271.601 196.572 271.944 199.657 273.486C202.742 274.856 204.799 276.741 204.456 277.769Z" fill="#17559F"/>
<path d="M204.113 277.598C203.77 278.454 201.028 278.112 198.115 276.741C195.201 275.37 193.145 273.486 193.659 272.629C194.002 271.772 196.744 272.115 199.657 273.486C202.399 274.856 204.456 276.741 204.113 277.598Z" fill="#15549F"/>
<path d="M203.77 277.426C203.428 278.283 200.857 277.769 198.115 276.57C195.373 275.199 193.488 273.657 193.83 272.8C194.173 271.944 196.744 272.458 199.486 273.657C202.228 274.856 204.113 276.57 203.77 277.426Z" fill="#14539E"/>
<path d="M203.428 277.255C203.085 277.94 200.685 277.598 198.115 276.398C195.544 275.199 193.83 273.657 194.173 272.8C194.516 272.115 196.915 272.458 199.486 273.657C202.056 274.856 203.77 276.57 203.428 277.255Z" fill="#12529E"/>
<path d="M203.085 277.083C202.742 277.768 200.514 277.426 198.286 276.398C195.887 275.199 194.344 273.828 194.687 273.143C195.03 272.457 197.258 272.8 199.486 273.828C201.714 274.856 203.428 276.398 203.085 277.083Z" fill="#11519D"/>
<path d="M202.742 276.912C202.399 277.597 200.343 277.254 198.286 276.226C196.058 275.198 194.516 273.828 194.859 273.143C195.202 272.457 197.258 272.8 199.315 273.828C201.543 275.027 203.085 276.226 202.742 276.912Z" fill="#104F9C"/>
<path d="M202.399 276.741C202.057 277.255 200.343 277.084 198.286 276.056C196.23 275.028 194.859 273.829 195.201 273.315C195.544 272.801 197.258 272.972 199.315 274C201.371 275.028 202.742 276.227 202.399 276.741Z" fill="#0E4E9C"/>
<path d="M202.057 276.569C201.885 277.083 200.172 276.912 198.286 276.055C196.401 275.199 195.202 273.999 195.544 273.485C195.716 272.971 197.429 273.143 199.315 273.999C201.028 275.027 202.399 276.055 202.057 276.569Z" fill="#0D4D9B"/>
<path d="M201.714 276.399C201.542 276.913 200 276.57 198.286 275.885C196.572 275.028 195.544 274.171 195.715 273.658C195.887 273.144 197.429 273.486 199.143 274.172C200.857 275.028 202.056 276.056 201.714 276.399Z" fill="#0B4C9B"/>
<path d="M201.371 276.398C201.2 276.912 199.829 276.57 198.458 275.884C197.087 275.199 196.058 274.342 196.23 273.828C196.401 273.314 197.772 273.657 199.143 274.342C200.686 275.028 201.714 275.884 201.371 276.398Z" fill="#0A4B9A"/>
<path d="M201.2 276.227C201.028 276.57 199.829 276.399 198.629 275.885C197.429 275.199 196.401 274.514 196.573 274.171C196.744 273.829 197.944 274 199.143 274.514C200.343 275.028 201.371 275.713 201.2 276.227Z" fill="#094A9A"/>
<path d="M200.857 276.056C200.685 276.399 199.657 276.227 198.629 275.713C197.601 275.199 196.744 274.514 196.915 274.171C197.086 273.829 198.115 274 199.143 274.514C200.171 275.028 200.857 275.713 200.857 276.056Z" fill="#074999"/>
<path d="M200.514 275.884C200.343 276.227 199.486 276.056 198.629 275.542C197.772 275.028 197.087 274.514 197.258 274.342C197.429 274 198.286 274.171 199.143 274.685C200 275.199 200.514 275.542 200.514 275.884Z" fill="#064898"/>
<path d="M200.171 275.713C200 275.884 199.314 275.884 198.629 275.542C197.943 275.199 197.429 274.685 197.429 274.514C197.601 274.342 198.286 274.342 198.972 274.685C199.657 275.028 200.171 275.542 200.171 275.713Z" fill="#044798"/>
<path d="M199.829 275.542C199.829 275.713 199.314 275.542 198.629 275.37C198.115 275.028 197.772 274.856 197.772 274.685C197.772 274.514 198.286 274.685 198.972 274.856C199.486 275.028 199.829 275.37 199.829 275.542Z" fill="#034697"/>
<path d="M199.486 275.37C199.486 275.542 199.143 275.37 198.801 275.199C198.458 275.028 198.115 274.856 198.286 274.685C198.286 274.514 198.629 274.685 198.972 274.856C199.315 275.028 199.486 275.199 199.486 275.37Z" fill="#014597"/>
<path d="M199.143 275.199C199.143 275.199 198.972 275.199 198.8 275.199C198.629 275.027 198.458 275.027 198.458 275.027C198.458 275.027 198.629 275.027 198.8 275.027C198.972 275.027 199.143 275.199 199.143 275.199Z" fill="#004496"/>
<path opacity="0.4" d="M380.39 123.17L195.643 229.908C191.873 232.136 186.389 232.307 183.132 230.422L70.0219 165.146C66.7657 163.261 67.2798 160.006 70.8788 157.95L255.626 51.2112C259.396 48.9839 264.881 48.8125 268.137 50.6972L381.247 115.974C384.504 117.859 384.161 121.114 380.39 123.17Z" fill="white"/>
<path opacity="0.2" d="M361.025 125.397L199.242 218.772C195.986 220.656 191.016 220.828 188.274 219.286L89.2164 162.062C86.4744 160.52 86.8171 157.607 90.0733 155.722L251.856 62.3475C255.112 60.4629 260.082 60.2916 262.824 61.8336L361.881 119.058C364.623 120.6 364.281 123.512 361.025 125.397Z" fill="#041860"/>
<path d="M188.617 232.307C186.389 232.307 184.332 231.793 182.79 230.936L69.6792 165.659C68.1367 164.803 67.1085 163.432 67.1085 161.89C67.1085 160.177 68.3081 158.463 70.5361 157.264L255.283 50.5254C259.225 48.2981 265.052 48.1268 268.479 50.0114L381.59 115.288C383.132 116.145 384.161 117.515 384.161 119.057C384.161 120.771 382.961 122.484 380.733 123.683L195.986 230.422C193.758 231.621 191.187 232.307 188.617 232.307ZM262.824 50.0114C260.425 50.0114 258.025 50.5254 256.14 51.7247L71.2216 158.463C69.5078 159.491 68.4795 160.691 68.4795 162.061C68.4795 163.089 69.165 163.946 70.3647 164.631L183.475 229.908C186.56 231.621 191.873 231.45 195.3 229.394L380.048 122.655C381.761 121.627 382.79 120.428 382.79 119.057C382.79 118.029 382.104 117.173 380.905 116.487L267.794 51.2107C266.423 50.354 264.709 50.0114 262.824 50.0114Z" fill="white"/>
<path d="M383.475 91.9874L381.419 93.5294C381.419 93.5294 381.419 93.5294 381.247 93.5294L268.137 28.2526C264.881 26.368 259.225 26.7107 255.626 28.7666L70.8788 135.505C70.3647 135.677 70.0219 136.019 69.6792 136.362L67.794 134.991V139.617C67.794 140.816 68.4795 142.016 70.0219 142.872L183.132 208.149C186.389 210.034 192.044 209.691 195.643 207.635L380.39 100.897C382.447 99.6973 383.475 98.1553 383.475 96.7846V91.9874Z" fill="white"/>
<path d="M380.39 96.0996L195.643 202.838C191.873 205.066 186.389 205.237 183.132 203.352L69.8505 137.904C66.5943 136.02 67.1084 132.764 70.7074 130.708L255.455 23.9697C259.225 21.7424 264.709 21.5711 267.965 23.4557L381.076 88.7324C384.503 90.7884 384.161 93.8723 380.39 96.0996Z" fill="url(#paint2_linear_1058_1741)"/>
<path d="M234.546 75.0257L218.608 65.7739L222.55 63.5466C223.235 63.2039 223.921 62.8613 224.606 62.5186C225.292 62.3473 225.977 62.176 226.663 62.0046C227.348 62.0046 228.205 62.0046 228.891 62.176C229.576 62.3473 230.433 62.69 231.119 63.0326C233.004 64.2319 233.347 65.2599 232.147 66.2879C233.347 65.7739 234.375 65.6026 235.403 65.7739C236.431 65.9452 237.631 66.2879 238.831 66.9732C240.373 67.8299 241.059 68.6865 241.059 69.5432C241.059 70.3998 240.373 71.2565 238.831 72.1131L234.546 75.0257ZM228.034 68.0012L228.891 67.4872C229.748 66.9732 230.09 66.6305 230.09 66.1166C230.09 65.7739 229.576 65.2599 228.719 64.7459C228.205 64.4033 227.862 64.2319 227.52 64.2319C227.177 64.0606 226.834 64.0606 226.32 64.2319C225.977 64.2319 225.635 64.4033 225.292 64.5746C224.949 64.7459 224.435 64.9172 224.092 65.2599L223.749 65.4312L228.034 68.0012ZM235.403 72.2844L236.431 71.5991C237.288 71.0851 237.631 70.5711 237.631 70.2285C237.631 69.8858 237.117 69.3718 236.089 68.8578C235.06 68.3439 234.204 68.0012 233.518 68.0012C232.661 68.0012 231.804 68.1725 230.947 68.6865L230.09 69.2005L235.403 72.2844Z" fill="white"/>
<path d="M244.658 69.3718L231.976 58.4067L235.06 56.6934L254.255 64.0606L251.513 65.6025L247.228 63.8892L244.486 65.4312L247.571 68.0011L244.658 69.3718ZM242.772 63.8892L244.829 62.6899L237.288 59.606L242.772 63.8892Z" fill="white"/>
<path d="M255.626 62.8612L239.688 53.6094L241.744 52.4101L254.598 55.3227L245.515 50.1828L247.914 48.8121L263.852 58.064L261.967 59.0919L248.599 55.8367L258.025 61.3192L255.626 62.8612Z" fill="white"/>
<path d="M266.251 56.6932L250.313 47.4414L253.227 45.7281L260.082 49.6687L256.311 43.8435L259.054 42.3015L263.167 48.1267L275.335 51.2107L272.421 52.924L262.138 50.1827L262.652 51.0393L269.165 54.8086L266.251 56.6932Z" fill="white"/>
<path d="M217.409 163.604L181.933 183.992L177.82 181.593L213.295 161.205L217.409 163.604Z" fill="white"/>
<path d="M260.939 138.419L225.463 158.807L221.35 156.58L256.826 136.02L260.939 138.419Z" fill="white"/>
<path d="M304.469 113.233L268.994 133.792L264.881 131.394L300.356 111.006L304.469 113.233Z" fill="white"/>
<path d="M348 88.2188L312.524 108.607L308.411 106.208L343.887 85.8202L348 88.2188Z" fill="white"/>
<g filter="url(#filter0_d_1058_1741)">
<path d="M377.892 229.624L320.994 196.558C309.683 190.047 299.057 189.019 291.003 193.645C282.948 198.271 278.492 208.037 278.492 221.058V225.17C278.835 225.513 279.349 225.684 279.691 226.027V221.058C279.691 208.551 283.805 199.128 291.517 194.844C299.057 190.39 309.34 191.418 320.137 197.757L377.035 230.824C377.378 230.995 377.721 230.824 377.892 230.652C378.235 230.138 378.063 229.796 377.892 229.624Z" fill="white"/>
<path d="M200.514 190.219V62.2351C200.514 36.5356 182.519 5.35358 160.24 -7.49617C149.443 -13.8354 139.16 -14.8634 131.277 -10.4088C123.565 -5.9542 119.28 3.46895 119.28 15.976V24.8852C119.623 25.2279 120.137 25.7419 120.48 26.0845V15.976C120.48 3.81161 124.593 -5.09755 131.791 -9.3808C139.16 -13.664 148.929 -12.6361 159.383 -6.63952C181.32 6.0389 198.972 36.707 198.972 62.0638V190.219C198.972 211.464 211.482 236.649 228.449 251.726C228.449 251.212 228.449 250.527 228.449 250.013C212.511 235.107 200.514 210.778 200.514 190.219Z" fill="white"/>
<path d="M228.792 251.213C228.792 251.213 214.396 236.478 208.74 224.314C203.085 212.149 200.171 200.841 200.171 190.904C200 180.796 200 94.6169 200 94.6169C200 94.6169 200.685 58.8089 199.143 53.155C197.601 47.5011 194.173 17.3471 164.524 -4.24052C134.876 -25.8281 120.308 -2.52722 120.48 9.63721C120.651 21.8016 120.48 29.6828 120.48 29.6828C120.48 29.6828 136.589 42.7039 142.759 61.3789C148.929 80.0538 149.443 76.7986 149.614 95.4735C149.786 113.977 149.786 208.38 149.786 208.38C149.786 208.38 148.415 224.999 152.528 237.677C156.641 250.527 164.01 264.748 172.922 273.999C181.662 283.251 194.687 294.216 206.684 293.188C218.68 292.16 226.735 287.706 229.134 268.688V251.213H228.792Z" fill="white"/>
<path d="M131.277 -10.4083L81.5766 18.2038L120.48 29.8542L131.277 -10.4083Z" fill="white"/>
<path d="M278.663 225.17V230.996C275.921 228.94 262.896 220.031 250.557 220.545C236.675 221.059 232.048 233.737 232.048 233.737C232.048 233.737 228.792 243.16 228.963 247.615C228.963 248.3 228.963 249.328 229.134 250.185L228.963 250.013C228.963 250.527 228.963 251.213 228.963 251.727C229.134 251.727 229.134 251.898 229.306 251.898C229.477 256.181 229.477 260.978 229.477 260.978C229.477 260.978 229.649 269.374 228.449 275.028C226.221 285.136 217.823 290.79 217.138 291.647L268.209 262.349H268.38L268.552 262.178L268.895 262.006C276.264 257.381 280.377 248.3 280.377 236.136V226.027C279.52 225.684 279.006 225.513 278.663 225.17Z" fill="url(#paint3_linear_1058_1741)"/>
<path d="M238.903 223.8L291.174 193.646C291.174 193.646 300.086 189.02 310.883 192.961C321.68 196.901 378.064 230.653 378.064 230.653L327.678 259.608C327.678 259.608 269.066 223.286 262.211 221.573C247.986 217.975 238.903 223.8 238.903 223.8Z" fill="white"/>
<path d="M119.28 28.8258C117.224 26.9411 107.626 18.3746 93.5732 16.3187C77.6349 13.9201 71.1225 32.4237 71.1225 32.4237C71.1225 32.4237 69.2373 42.0182 69.4087 47.8434C69.4087 53.4973 69.9228 74.2282 69.9228 74.2282L120.137 45.2735C120.308 45.1021 120.48 44.9308 120.48 44.7595V30.0251C120.137 29.5111 119.794 29.3398 119.28 28.8258Z" fill="url(#paint4_linear_1058_1741)"/>
<path d="M207.026 294.045C201.542 294.045 195.373 292.16 189.032 288.563C166.924 275.884 149.1 244.702 149.1 219.345V91.1903C149.1 66.0048 131.277 35.1654 109.511 22.487C99.0573 16.4904 89.2887 15.4625 81.9194 19.7457C74.55 24.029 70.6083 32.9381 70.6083 45.1026V73.7147C70.6083 74.0573 70.2655 74.4 69.9228 74.4C69.58 74.4 69.2373 74.0573 69.2373 73.7147V44.9312C69.2373 32.4241 73.5218 23.001 81.2338 18.5464C88.9459 14.0918 99.2287 15.1198 110.197 21.2877C132.476 34.1374 150.471 65.3195 150.471 91.019V219.174C150.471 244.188 168.123 274.856 189.889 287.363C200.343 293.36 209.94 294.388 217.309 290.104C224.679 285.821 228.62 276.912 228.62 264.919V249.842C228.62 236.821 233.076 227.055 241.131 222.429C249.186 217.803 259.811 218.831 271.122 225.342L328.02 258.408C328.363 258.58 328.363 258.922 328.192 259.265C328.02 259.608 327.678 259.608 327.335 259.436L270.094 226.712C259.297 220.373 249.014 219.345 241.474 223.8C233.933 228.254 229.649 237.506 229.649 250.013V265.09C229.649 277.597 225.364 286.849 217.652 291.304C214.396 293.017 210.797 294.045 207.026 294.045Z" fill="url(#paint5_linear_1058_1741)"/>
<path d="M162.468 119.287V114.662L167.781 111.749V116.203L162.468 119.287Z" fill="#DDE1ED"/>
<path d="M177.378 102.155V97.7L187.489 91.8748V96.3293L177.378 102.155Z" fill="#DDE1ED"/>
<path d="M162.982 101.298V96.672L187.489 82.6229V87.2488L162.982 101.298Z" fill="#DDE1ED"/>
<path d="M171.551 113.976V109.522L191.945 97.7V102.326L171.551 113.976Z" fill="#DDE1ED"/>
<path d="M162.982 110.549V105.923L173.093 100.269V104.724L162.982 110.549Z" fill="#DDE1ED"/>
<path d="M168.98 163.319V167.774L162.811 171.372V166.746L168.98 163.319Z" fill="#DDE1ED"/>
<path d="M180.12 156.808V161.263L173.95 164.861V160.406L180.12 156.808Z" fill="#DDE1ED"/>
<path d="M186.975 144.473V148.927L162.982 162.805V158.179L186.975 144.473Z" fill="#DDE1ED"/>
<path d="M174.979 130.081V125.627L186.975 118.773V123.228L174.979 130.081Z" fill="#DDE1ED"/>
<path d="M162.811 137.105V132.651L168.98 129.053V133.679L162.811 137.105Z" fill="#DDE1ED"/>
<path d="M162.811 145.672V141.046L174.464 134.364V138.819L162.811 145.672Z" fill="#DDE1ED"/>
<path d="M179.263 136.078V131.623L186.975 127.169V131.623L179.263 136.078Z" fill="#DDE1ED"/>
<path d="M174.978 182.679V178.224L186.975 171.371V175.826L174.978 182.679Z" fill="#DDE1ED"/>
<path d="M162.811 189.875V185.249L168.98 181.822V186.277L162.811 189.875Z" fill="#DDE1ED"/>
<path d="M162.811 198.27V193.816L174.464 186.963V191.417L162.811 198.27Z" fill="#DDE1ED"/>
<path d="M179.263 188.676V184.221L186.975 179.766V184.392L179.263 188.676Z" fill="#DDE1ED"/>
<path d="M304.541 230.995L300.6 228.767L305.912 225.683L309.854 227.911L304.541 230.995Z" fill="#DDE1ED"/>
<path d="M312.082 218.145L308.14 215.918L318.252 210.093L322.193 212.32L312.082 218.145Z" fill="#DDE1ED"/>
<path d="M289.631 221.914L285.861 219.516L310.197 205.467L314.139 207.694L289.631 221.914Z" fill="#DDE1ED"/>
<path d="M313.453 225.854L309.683 223.456L330.077 211.805L333.847 214.033L313.453 225.854Z" fill="#DDE1ED"/>
<path d="M297.686 226.541L293.744 224.142L303.856 218.488L307.798 220.715L297.686 226.541Z" fill="#DDE1ED"/>
</g>
<path d="M37.3607 241.275L35.1328 242.646L29.6486 239.39L32.0479 238.191L37.3607 241.275Z" fill="white"/>
<path d="M41.6454 238.877L39.4174 240.076L33.9333 236.992L36.1612 235.793L41.6454 238.877Z" fill="white"/>
<path d="M45.7584 236.478L43.5304 237.677L38.0463 234.593L40.4456 233.223L45.7584 236.478Z" fill="white"/>
<path d="M50.0428 233.908L47.8148 235.279L42.3307 232.195L44.5586 230.824L50.0428 233.908Z" fill="white"/>
<path d="M347.558 312.206L307.284 288.905C306.255 288.391 305.056 288.048 303.856 287.877C303.856 287.877 303.856 287.877 303.685 287.877C303.513 287.877 303.17 287.877 302.999 287.877C302.828 287.877 302.828 287.877 302.656 287.877C302.485 287.877 302.142 287.877 301.971 288.048C301.799 288.048 301.799 288.048 301.628 288.048C301.457 288.048 301.114 288.219 300.943 288.219C300.771 288.219 300.771 288.219 300.6 288.219C300.257 288.391 300.086 288.391 299.743 288.562L269.58 306.038L240.96 322.657L238.218 322.999V325.569V325.912C238.389 326.597 238.903 327.283 239.931 327.968L280.377 351.269C281.405 351.783 282.605 352.126 283.805 352.297C283.805 352.297 283.805 352.297 283.976 352.297C284.147 352.297 284.49 352.297 284.661 352.297C284.833 352.297 284.833 352.297 285.004 352.297C285.176 352.297 285.518 352.297 285.69 352.126C285.861 352.126 285.861 352.126 286.032 352.126C286.204 352.126 286.547 351.954 286.718 351.954C286.889 351.954 286.889 351.954 287.061 351.954C287.404 351.783 287.575 351.783 287.918 351.612L348.072 316.832C349.1 316.318 349.443 315.632 349.443 314.776V312.377L347.558 312.206Z" fill="white"/>
<path d="M239.589 321.115L269.751 303.639L316.538 330.538L287.746 348.699C285.69 349.898 282.434 349.727 280.377 348.528L239.931 325.398C237.875 324.199 237.704 322.314 239.589 321.115Z" fill="url(#paint6_linear_1058_1741)"/>
<path d="M299.914 286.163L269.751 303.639L316.195 330.367L347.901 313.919C349.957 312.72 349.786 310.835 347.558 309.636L307.112 286.335C305.227 285.135 301.799 285.135 299.914 286.163Z" fill="url(#paint7_linear_1058_1741)"/>
<path d="M349.272 311.692C349.443 312.548 348.929 313.405 347.901 313.919L287.746 348.699C286.718 349.384 285.176 349.556 283.805 349.556L287.746 313.919L349.272 311.692Z" fill="url(#paint8_linear_1058_1741)"/>
<path d="M238.389 323.342C238.218 322.485 238.732 321.629 239.76 321.115L299.914 286.335C300.943 285.649 302.485 285.478 303.856 285.478L299.914 320.943L238.389 323.342Z" fill="url(#paint9_linear_1058_1741)"/>
<path d="M284.147 334.479C283.976 334.479 283.976 334.479 283.805 334.479H283.119C281.919 334.307 280.891 333.965 280.034 333.451L239.589 310.15C238.732 309.636 238.046 308.95 237.875 308.265H237.703L237.532 307.58V307.408C237.532 307.237 237.532 307.066 237.532 306.895C237.532 306.723 237.532 306.723 237.532 306.723C237.532 306.552 237.703 306.38 237.703 306.209C237.703 306.038 237.703 306.038 237.875 306.038C238.046 305.867 238.218 305.695 238.218 305.524L238.389 305.353C238.56 305.181 238.903 305.01 239.246 304.839L299.4 270.059C299.743 269.887 300.086 269.716 300.428 269.545H300.6C300.943 269.373 301.114 269.373 301.457 269.373H301.628C301.971 269.373 302.314 269.202 302.485 269.202H302.656C302.999 269.202 303.342 269.202 303.513 269.202H304.199C305.398 269.373 306.427 269.716 307.284 270.23L347.729 293.531C348.586 294.045 349.272 294.73 349.443 295.415H349.614L349.786 296.101V296.272C349.786 296.443 349.786 296.615 349.786 296.786C349.786 296.957 349.786 296.957 349.786 296.957C349.786 297.129 349.614 297.3 349.614 297.471C349.614 297.643 349.614 297.643 349.443 297.643C349.272 297.814 349.1 297.985 349.1 298.157L348.929 298.328C348.757 298.499 348.415 298.671 348.072 298.842L287.918 333.622C287.575 333.793 287.232 333.965 286.889 334.136H286.718C286.375 334.307 286.204 334.307 285.861 334.307H285.69C285.347 334.307 285.004 334.479 284.833 334.479H284.661C284.49 334.479 284.319 334.479 284.147 334.479ZM285.518 332.937L285.861 333.451L285.69 332.765C285.861 332.765 286.033 332.594 286.375 332.594L286.889 333.108L286.718 332.423C287.061 332.251 287.232 332.251 287.404 332.08L347.558 297.3C347.729 297.129 347.901 297.129 348.072 296.957L348.586 297.3L348.072 296.786C348.243 296.615 348.243 296.615 348.243 296.443C348.415 296.272 348.415 296.101 348.415 296.101C348.415 295.929 348.415 295.758 348.415 295.758C348.243 295.244 347.901 294.73 347.044 294.216L306.598 270.915C305.741 270.401 304.713 270.059 303.513 270.059H303.17C302.999 270.059 302.828 270.059 302.656 270.059H302.314C302.142 270.059 301.971 270.059 301.628 270.059L301.285 269.545L301.457 270.23C301.285 270.23 301.114 270.401 300.771 270.401L300.257 269.887L300.428 270.573C300.086 270.744 299.914 270.744 299.743 270.915L239.931 305.867C239.76 306.038 239.589 306.038 239.417 306.209C239.246 306.38 239.075 306.552 239.075 306.552C238.903 306.723 238.903 306.895 238.903 306.895C238.903 307.066 238.903 307.237 238.903 307.237C239.074 307.751 239.417 308.265 240.274 308.779L280.72 332.08C281.577 332.594 282.605 332.937 283.805 332.937H283.976C284.147 332.937 284.319 332.937 284.49 332.937H284.833C285.176 333.108 285.347 333.108 285.518 332.937Z" fill="white"/>
<path opacity="0.4" d="M348.757 297.471C348.929 297.3 348.929 297.128 349.1 297.128V296.957C349.1 296.786 349.272 296.614 349.272 296.614V296.443C349.272 296.272 349.272 296.1 349.272 296.1C349.1 295.415 348.586 294.73 347.558 294.044L307.112 270.744C306.084 270.23 304.884 269.887 303.685 269.716C303.685 269.716 303.685 269.716 303.513 269.716C303.342 269.716 302.999 269.716 302.828 269.716C302.656 269.716 302.656 269.716 302.485 269.716C302.314 269.716 301.971 269.716 301.799 269.887C301.628 269.887 301.628 269.887 301.457 269.887C301.285 269.887 300.943 270.058 300.771 270.058C300.6 270.058 300.6 270.058 300.428 270.058C300.086 270.23 299.914 270.23 299.572 270.401L279.52 282.051L269.409 287.877L239.246 305.352C238.903 305.524 238.732 305.695 238.56 305.866C238.56 305.866 238.56 306.038 238.389 306.038C238.218 306.209 238.218 306.38 238.046 306.38V306.552C238.046 306.723 237.875 306.894 237.875 306.894V307.065C237.875 307.237 237.875 307.408 237.875 307.408C238.046 308.093 238.56 308.779 239.589 309.464L280.034 332.765C281.063 333.279 282.262 333.622 283.462 333.793C283.462 333.793 283.462 333.793 283.633 333.793C283.805 333.793 284.147 333.793 284.319 333.793C284.49 333.793 284.49 333.793 284.662 333.793C284.833 333.793 285.176 333.793 285.347 333.622C285.518 333.622 285.518 333.622 285.69 333.622C285.861 333.622 286.204 333.45 286.375 333.45C286.547 333.45 286.547 333.45 286.718 333.45C287.061 333.279 287.232 333.279 287.575 333.108L347.729 298.328C348.243 297.985 348.415 297.814 348.757 297.471C348.757 297.471 348.586 297.642 348.757 297.471Z" fill="white"/>
<defs>
<filter id="filter0_d_1058_1741" x="54.7818" y="-21.31" width="337.764" height="336.091" filterUnits="userSpaceOnUse" color-interpolation-filters="sRGB">
<feFlood flood-opacity="0" result="BackgroundImageFix"/>
<feColorMatrix in="SourceAlpha" type="matrix" values="0 0 0 0 0 0 0 0 0 0 0 0 0 0 0 0 0 0 127 0" result="hardAlpha"/>
<feOffset dy="6.28035"/>
<feGaussianBlur stdDeviation="7.22775"/>
<feComposite in2="hardAlpha" operator="out"/>
<feColorMatrix type="matrix" values="0 0 0 0 0 0 0 0 0 0 0 0 0 0 0 0 0 0 0.25 0"/>
<feBlend mode="normal" in2="BackgroundImageFix" result="effect1_dropShadow_1058_1741"/>
<feBlend mode="normal" in="SourceGraphic" in2="effect1_dropShadow_1058_1741" result="shape"/>
</filter>
<linearGradient id="paint0_linear_1058_1741" x1="27.1628" y1="195.634" x2="366.52" y2="374.493" gradientUnits="userSpaceOnUse">
<stop stop-color="#3A9BD5"/>
<stop offset="0.3053" stop-color="#3A9BD5"/>
<stop offset="0.3555" stop-color="#3A9BD5"/>
<stop offset="0.5988" stop-color="#3999D4"/>
<stop offset="0.6883" stop-color="#3592CF"/>
<stop offset="0.7522" stop-color="#2F86C7"/>
<stop offset="0.8039" stop-color="#2676BC"/>
<stop offset="0.8102" stop-color="#2573BA"/>
</linearGradient>
<linearGradient id="paint1_linear_1058_1741" x1="36.4561" y1="309.518" x2="338.009" y2="182.334" gradientUnits="userSpaceOnUse">
<stop stop-color="#59BDEF"/>
<stop offset="1" stop-color="#7BDAFF"/>
</linearGradient>
<linearGradient id="paint2_linear_1058_1741" x1="414.829" y1="25.9006" x2="197.027" y2="306.482" gradientUnits="userSpaceOnUse">
<stop stop-color="#59BDEF"/>
<stop offset="1" stop-color="#7BDAFF"/>
</linearGradient>
<linearGradient id="paint3_linear_1058_1741" x1="271.616" y1="234.43" x2="214.603" y2="265.119" gradientUnits="userSpaceOnUse">
<stop stop-color="#59BDEF"/>
<stop offset="1" stop-color="#7BDAFF"/>
</linearGradient>
<linearGradient id="paint4_linear_1058_1741" x1="96.0723" y1="39.4049" x2="30.563" y2="61.4257" gradientUnits="userSpaceOnUse">
<stop stop-color="#59BDEF"/>
<stop offset="1" stop-color="#7BDAFF"/>
</linearGradient>
<linearGradient id="paint5_linear_1058_1741" x1="69.026" y1="154.897" x2="327.829" y2="154.897" gradientUnits="userSpaceOnUse">
<stop stop-color="#59BDEF"/>
<stop offset="1" stop-color="#7BDAFF"/>
</linearGradient>
<linearGradient id="paint6_linear_1058_1741" x1="283.568" y1="371.932" x2="283.456" y2="321.971" gradientUnits="userSpaceOnUse">
<stop offset="0.7677" stop-color="#59BDEF"/>
<stop offset="0.8452" stop-color="#55B8EB"/>
<stop offset="0.9318" stop-color="#49ABE1"/>
<stop offset="1" stop-color="#3A9BD5"/>
</linearGradient>
<linearGradient id="paint7_linear_1058_1741" x1="387.937" y1="311.41" x2="301.479" y2="311.147" gradientUnits="userSpaceOnUse">
<stop offset="0.7677" stop-color="#59BDEF"/>
<stop offset="0.8452" stop-color="#55B8EB"/>
<stop offset="0.9318" stop-color="#49ABE1"/>
<stop offset="1" stop-color="#3A9BD5"/>
</linearGradient>
<linearGradient id="paint8_linear_1058_1741" x1="365.591" y1="358.909" x2="330.101" y2="297.608" gradientUnits="userSpaceOnUse">
<stop offset="0.7677" stop-color="#3A9BD5"/>
<stop offset="0.8386" stop-color="#3896D2"/>
<stop offset="0.9179" stop-color="#3189C9"/>
<stop offset="1" stop-color="#2573BA"/>
</linearGradient>
<linearGradient id="paint9_linear_1058_1741" x1="285.851" y1="286.115" x2="274.984" y2="341.491" gradientUnits="userSpaceOnUse">
<stop stop-color="#7BDAFF"/>
<stop offset="1" stop-color="#59BDEF"/>
</linearGradient>
</defs>
</svg>
