<svg width="339" height="338" viewBox="0 0 339 338" fill="none" xmlns="http://www.w3.org/2000/svg">
<path fill-rule="evenodd" clip-rule="evenodd" d="M209.582 24.9584C249.21 6.26947 272.828 55.2838 252.899 82.5743C228.578 115.877 216.12 154.196 209.182 165.742C203.329 175.481 187.298 199.225 167.993 188.281C150.227 178.209 159.91 138.679 159.91 138.679C159.91 138.679 160.695 48.0139 209.582 24.9584Z" fill="#B7EE81"/>
<path fill-rule="evenodd" clip-rule="evenodd" d="M209.582 24.9584C249.21 6.26947 272.828 55.2838 252.899 82.5743C228.578 115.877 216.12 154.196 209.182 165.742C203.329 175.481 187.298 199.225 167.993 188.281C150.227 178.209 159.91 138.679 159.91 138.679C159.91 138.679 160.695 48.0139 209.582 24.9584Z" fill="white" fill-opacity="0.2"/>
<path fill-rule="evenodd" clip-rule="evenodd" d="M232.022 182.047C216.784 199.851 194.795 235.667 181.02 223.123C172.671 215.521 183.832 179.52 214.384 159.931C240.372 143.27 247.26 164.243 232.022 182.047Z" fill="#B7EE81"/>
<path fill-rule="evenodd" clip-rule="evenodd" d="M232.022 182.047C216.784 199.851 194.795 235.667 181.02 223.123C172.671 215.521 183.832 179.52 214.384 159.931C240.372 143.27 247.26 164.243 232.022 182.047Z" fill="white" fill-opacity="0.2"/>
<path fill-rule="evenodd" clip-rule="evenodd" d="M90.3868 180.672C76.9146 162.55 71.9955 136.543 87.0329 129.874C101.45 123.48 125.332 139.223 136.394 169.521C147.456 199.819 153.838 221.603 143.017 225.39C125.264 231.604 108.181 204.608 90.3868 180.672Z" fill="#B7EE81"/>
<path fill-rule="evenodd" clip-rule="evenodd" d="M90.3868 180.672C76.9146 162.55 71.9955 136.543 87.0329 129.874C101.45 123.48 125.332 139.223 136.394 169.521C147.456 199.819 153.838 221.603 143.017 225.39C125.264 231.604 108.181 204.608 90.3868 180.672Z" fill="white" fill-opacity="0.2"/>
<path fill-rule="evenodd" clip-rule="evenodd" d="M86.2103 58.4955C92.0047 54.6085 99.2947 53.7206 105.946 55.8448C115.229 58.8092 129.315 67.6358 143.257 92.9707C161.459 126.048 170.935 162.31 169.062 185.279C167.837 200.301 149.277 206.777 138.893 195.824C134.125 190.794 129.079 183.04 124.142 171.277C104.275 123.941 85.7009 94.2781 83.4857 91.2997C77.5755 83.3519 73.3498 67.1229 86.2103 58.4955Z" fill="#B7EE81"/>
<path fill-rule="evenodd" clip-rule="evenodd" d="M86.2103 58.4955C92.0047 54.6085 99.2947 53.7206 105.946 55.8448C115.229 58.8092 129.315 67.6358 143.257 92.9707C161.459 126.048 170.935 162.31 169.062 185.279C167.837 200.301 149.277 206.777 138.893 195.824C134.125 190.794 129.079 183.04 124.142 171.277C104.275 123.941 85.7009 94.2781 83.4857 91.2997C77.5755 83.3519 73.3498 67.1229 86.2103 58.4955Z" fill="black" fill-opacity="0.2"/>
<path d="M124.829 185.843C125.041 185.642 125.376 185.65 125.578 185.861L125.765 186.063L125.888 186.198C126.135 186.473 126.421 186.801 126.742 187.184C127.658 188.273 128.678 189.576 129.775 191.09C132.906 195.412 136.034 200.571 138.954 206.558C147.29 223.653 152.29 243.961 152.29 267.413C152.29 267.704 152.053 267.941 151.76 267.941C151.468 267.941 151.231 267.704 151.231 267.413C151.231 244.127 146.269 223.975 138.001 207.02C135.109 201.089 132.012 195.983 128.916 191.709C127.898 190.303 126.949 189.084 126.09 188.053L125.93 187.862C125.651 187.531 125.4 187.241 125.18 186.994L124.982 186.774L124.811 186.59C124.61 186.379 124.617 186.045 124.829 185.843Z" fill="#2A84C6"/>
<path d="M124.829 185.843C125.041 185.642 125.376 185.65 125.578 185.861L125.765 186.063L125.888 186.198C126.135 186.473 126.421 186.801 126.742 187.184C127.658 188.273 128.678 189.576 129.775 191.09C132.906 195.412 136.034 200.571 138.954 206.558C147.29 223.653 152.29 243.961 152.29 267.413C152.29 267.704 152.053 267.941 151.76 267.941C151.468 267.941 151.231 267.704 151.231 267.413C151.231 244.127 146.269 223.975 138.001 207.02C135.109 201.089 132.012 195.983 128.916 191.709C127.898 190.303 126.949 189.084 126.09 188.053L125.93 187.862C125.651 187.531 125.4 187.241 125.18 186.994L124.982 186.774L124.811 186.59C124.61 186.379 124.617 186.045 124.829 185.843Z" fill="black" fill-opacity="0.35"/>
<path d="M199.914 192.716C200.089 192.482 200.421 192.434 200.656 192.609C200.89 192.783 200.938 193.114 200.763 193.348C197.133 198.196 193.784 203.407 190.704 208.929C184.196 220.6 179.167 233.108 175.434 245.617C174.127 249.995 173.076 254.059 172.258 257.706L172.146 258.209C171.946 259.116 171.772 259.945 171.623 260.69L171.491 261.37C171.456 261.55 171.425 261.716 171.397 261.867L171.324 262.278C171.276 262.565 171.002 262.759 170.714 262.711C170.425 262.662 170.231 262.39 170.279 262.102L170.377 261.559C170.4 261.438 170.424 261.309 170.45 261.172L170.505 260.887C170.697 259.903 170.936 258.761 171.224 257.476C172.047 253.806 173.105 249.717 174.418 245.315C178.172 232.738 183.23 220.16 189.778 208.416C192.88 202.853 196.255 197.603 199.914 192.716Z" fill="#2A84C6"/>
<path d="M199.914 192.716C200.089 192.482 200.421 192.434 200.656 192.609C200.89 192.783 200.938 193.114 200.763 193.348C197.133 198.196 193.784 203.407 190.704 208.929C184.196 220.6 179.167 233.108 175.434 245.617C174.127 249.995 173.076 254.059 172.258 257.706L172.146 258.209C171.946 259.116 171.772 259.945 171.623 260.69L171.491 261.37C171.456 261.55 171.425 261.716 171.397 261.867L171.324 262.278C171.276 262.565 171.002 262.759 170.714 262.711C170.425 262.662 170.231 262.39 170.279 262.102L170.377 261.559C170.4 261.438 170.424 261.309 170.45 261.172L170.505 260.887C170.697 259.903 170.936 258.761 171.224 257.476C172.047 253.806 173.105 249.717 174.418 245.315C178.172 232.738 183.23 220.16 189.778 208.416C192.88 202.853 196.255 197.603 199.914 192.716Z" fill="black" fill-opacity="0.35"/>
<path d="M216.578 69.2288C216.789 69.4306 216.796 69.7649 216.594 69.9755L216.463 70.1142C216.353 70.2328 216.222 70.3757 216.072 70.5427L215.736 70.9202C215.425 71.2719 215.085 71.6667 214.716 72.1047L214.576 72.271C212.96 74.1981 211.159 76.5157 209.218 79.2251C203.667 86.9728 198.115 96.3015 192.932 107.221C184.305 125.396 177.586 146.123 173.515 169.421C168.572 197.705 167.754 228.6 171.799 262.127C171.834 262.416 171.627 262.679 171.336 262.714C171.046 262.749 170.782 262.543 170.747 262.253C166.69 228.624 167.511 197.625 172.471 169.239C176.559 145.846 183.307 125.028 191.974 106.769C197.185 95.7915 202.77 86.4087 208.356 78.6112L208.788 78.0106C210.581 75.5354 212.251 73.3967 213.763 71.5936L214.18 71.0998C214.495 70.7299 214.788 70.3932 215.058 70.0896L215.283 69.8374C215.412 69.6945 215.527 69.5685 215.628 69.4593L215.829 69.2447C216.031 69.0341 216.366 69.027 216.578 69.2288Z" fill="#2A84C6"/>
<path d="M216.578 69.2288C216.789 69.4306 216.796 69.7649 216.594 69.9755L216.463 70.1142C216.353 70.2328 216.222 70.3757 216.072 70.5427L215.736 70.9202C215.425 71.2719 215.085 71.6667 214.716 72.1047L214.576 72.271C212.96 74.1981 211.159 76.5157 209.218 79.2251C203.667 86.9728 198.115 96.3015 192.932 107.221C184.305 125.396 177.586 146.123 173.515 169.421C168.572 197.705 167.754 228.6 171.799 262.127C171.834 262.416 171.627 262.679 171.336 262.714C171.046 262.749 170.782 262.543 170.747 262.253C166.69 228.624 167.511 197.625 172.471 169.239C176.559 145.846 183.307 125.028 191.974 106.769C197.185 95.7915 202.77 86.4087 208.356 78.6112L208.788 78.0106C210.581 75.5354 212.251 73.3967 213.763 71.5936L214.18 71.0998C214.495 70.7299 214.788 70.3932 215.058 70.0896L215.283 69.8374C215.412 69.6945 215.527 69.5685 215.628 69.4593L215.829 69.2447C216.031 69.0341 216.366 69.027 216.578 69.2288Z" fill="black" fill-opacity="0.35"/>
<path d="M131.172 128.012C131.422 127.861 131.748 127.94 131.899 128.19L131.996 128.352C132.075 128.485 132.167 128.643 132.273 128.827L132.509 129.238C132.753 129.669 133.024 130.155 133.319 130.697L133.591 131.2C134.598 133.068 135.702 135.232 136.881 137.682L137.042 138.018C140.889 146.055 144.736 155.455 148.325 166.139C158.378 196.058 164.494 230.019 164.722 267.408C164.724 267.7 164.489 267.938 164.196 267.94C163.903 267.941 163.665 267.706 163.663 267.415C163.435 230.142 157.339 196.291 147.321 166.474C143.745 155.833 139.915 146.472 136.086 138.473L135.766 137.809C134.602 135.399 133.513 133.277 132.523 131.449L132.388 131.201C132.064 130.605 131.769 130.078 131.508 129.62L131.183 129.056L130.993 128.737C130.842 128.488 130.922 128.163 131.172 128.012Z" fill="#2A84C6"/>
<path d="M131.172 128.012C131.422 127.861 131.748 127.94 131.899 128.19L131.996 128.352C132.075 128.485 132.167 128.643 132.273 128.827L132.509 129.238C132.753 129.669 133.024 130.155 133.319 130.697L133.591 131.2C134.598 133.068 135.702 135.232 136.881 137.682L137.042 138.018C140.889 146.055 144.736 155.455 148.325 166.139C158.378 196.058 164.494 230.019 164.722 267.408C164.724 267.7 164.489 267.938 164.196 267.94C163.903 267.941 163.665 267.706 163.663 267.415C163.435 230.142 157.339 196.291 147.321 166.474C143.745 155.833 139.915 146.472 136.086 138.473L135.766 137.809C134.602 135.399 133.513 133.277 132.523 131.449L132.388 131.201C132.064 130.605 131.769 130.078 131.508 129.62L131.183 129.056L130.993 128.737C130.842 128.488 130.922 128.163 131.172 128.012Z" fill="black" fill-opacity="0.35"/>
<path fill-rule="evenodd" clip-rule="evenodd" d="M99.5345 77.3763C99.731 79.7136 97.9901 81.767 95.6462 81.9629C93.302 82.1592 91.2425 80.4234 91.0456 78.0861C90.8491 75.7491 92.5901 73.6958 94.9343 73.4995C97.2782 73.3035 99.3376 75.0393 99.5345 77.3763Z" fill="white"/>
<path fill-rule="evenodd" clip-rule="evenodd" d="M135.712 95.5071C135.909 97.8441 134.168 99.8978 131.824 100.094C129.48 100.29 127.42 98.5543 127.223 96.217C127.027 93.88 128.768 91.8266 131.112 91.6303C133.456 91.4344 135.516 93.1702 135.712 95.5071Z" fill="white"/>
<path fill-rule="evenodd" clip-rule="evenodd" d="M129.649 143.781C129.874 146.458 127.88 148.81 125.196 149.034C122.511 149.259 120.153 147.271 119.928 144.594C119.702 141.918 121.696 139.566 124.381 139.342C127.065 139.117 129.423 141.105 129.649 143.781Z" fill="white"/>
<path fill-rule="evenodd" clip-rule="evenodd" d="M240.768 71.6355C240.768 75.4341 237.68 78.5135 233.87 78.5135C230.06 78.5135 226.972 75.4341 226.972 71.6355C226.972 67.8372 230.06 64.7578 233.87 64.7578C237.68 64.7578 240.768 67.8372 240.768 71.6355Z" fill="white"/>
<path fill-rule="evenodd" clip-rule="evenodd" d="M185.237 92.6394C185.237 96.4377 182.148 99.5171 178.339 99.5171C174.529 99.5171 171.441 96.4377 171.441 92.6394C171.441 88.8411 174.529 85.7617 178.339 85.7617C182.148 85.7617 185.237 88.8411 185.237 92.6394Z" fill="white"/>
<path fill-rule="evenodd" clip-rule="evenodd" d="M203.222 139.326C203.222 140.914 201.931 142.201 200.339 142.201C198.746 142.201 197.456 140.914 197.456 139.326C197.456 137.738 198.746 136.451 200.339 136.451C201.931 136.451 203.222 137.738 203.222 139.326Z" fill="white"/>
<path fill-rule="evenodd" clip-rule="evenodd" d="M223.993 176.088C223.993 178.434 222.086 180.335 219.734 180.335C217.382 180.335 215.475 178.434 215.475 176.088C215.475 173.743 217.382 171.842 219.734 171.842C222.086 171.842 223.993 173.743 223.993 176.088Z" fill="white"/>
<path fill-rule="evenodd" clip-rule="evenodd" d="M185.067 316.53H143.574C137.503 314.758 134.476 313.004 131.017 308.117L112.219 245.673C112.219 241.045 116.016 237.26 120.656 237.26H206.504C211.145 237.26 214.942 241.045 214.942 245.673L196.309 308.117C193.282 314.758 191.12 315.636 185.067 316.53Z" fill="#2A84C6"/>
<path fill-rule="evenodd" clip-rule="evenodd" d="M185.067 316.53H143.574C137.503 314.758 134.476 313.004 131.017 308.117L112.219 245.673C112.219 241.045 116.016 237.26 120.656 237.26H206.504C211.145 237.26 214.942 241.045 214.942 245.673L196.309 308.117C193.282 314.758 191.12 315.636 185.067 316.53Z" fill="black" fill-opacity="0.35"/>
</svg>
