<svg width="143" height="143" viewBox="0 0 143 143" fill="none" xmlns="http://www.w3.org/2000/svg">
<path fill-rule="evenodd" clip-rule="evenodd" d="M24.769 39.2957C25.197 39.2957 25.6193 39.3199 26.0351 39.3655C26.0351 39.3422 26.0342 39.319 26.0342 39.2957C26.0342 26.6258 36.3053 16.3547 48.9752 16.3547C58.3693 16.3547 66.4431 22.002 69.9909 30.086C70.8907 29.9311 71.8157 29.8494 72.7596 29.8494C81.7032 29.8494 88.9533 37.0996 88.9533 46.0431C88.9533 54.9865 81.7032 62.2367 72.7596 62.2367H24.769C18.434 62.2367 13.2986 57.1012 13.2986 50.7662C13.2986 44.4313 18.434 39.2957 24.769 39.2957Z" fill="#1443BD"/>
<path fill-rule="evenodd" clip-rule="evenodd" d="M24.769 39.2957C25.197 39.2957 25.6193 39.3199 26.0351 39.3655C26.0351 39.3422 26.0342 39.319 26.0342 39.2957C26.0342 26.6258 36.3053 16.3547 48.9752 16.3547C58.3693 16.3547 66.4431 22.002 69.9909 30.086C70.8907 29.9311 71.8157 29.8494 72.7596 29.8494C81.7032 29.8494 88.9533 37.0996 88.9533 46.0431C88.9533 54.9865 81.7032 62.2367 72.7596 62.2367H24.769C18.434 62.2367 13.2986 57.1012 13.2986 50.7662C13.2986 44.4313 18.434 39.2957 24.769 39.2957Z" fill="white" fill-opacity="0.2"/>
<path fill-rule="evenodd" clip-rule="evenodd" d="M116.537 76.4204C115.807 76.4204 115.086 76.4618 114.377 76.5398C114.377 76.4999 114.378 76.4603 114.378 76.4204C114.378 54.7942 96.8464 37.2628 75.2203 37.2628C59.1857 37.2628 45.4045 46.9021 39.3489 60.7008C37.8131 60.4362 36.2345 60.2967 34.6231 60.2967C19.3575 60.2967 6.98242 72.6718 6.98242 87.9374C6.98242 103.203 19.3575 115.578 34.6231 115.578H116.537C127.35 115.578 136.116 106.812 136.116 95.9992C136.116 85.1861 127.35 76.4204 116.537 76.4204Z" fill="#2A84C6"/>
<path fill-rule="evenodd" clip-rule="evenodd" d="M116.537 76.4204C115.807 76.4204 115.086 76.4618 114.377 76.5398C114.377 76.4999 114.378 76.4603 114.378 76.4204C114.378 54.7942 96.8464 37.2628 75.2203 37.2628C59.1857 37.2628 45.4045 46.9021 39.3489 60.7008C37.8131 60.4362 36.2345 60.2967 34.6231 60.2967C19.3575 60.2967 6.98242 72.6718 6.98242 87.9374C6.98242 103.203 19.3575 115.578 34.6231 115.578H116.537C127.35 115.578 136.116 106.812 136.116 95.9992C136.116 85.1861 127.35 76.4204 116.537 76.4204Z" fill="white" fill-opacity="0.85"/>
<path fill-rule="evenodd" clip-rule="evenodd" d="M126.242 106.929C125.878 106.929 125.52 106.949 125.166 106.988C125.166 106.968 125.167 106.949 125.167 106.929C125.167 96.1439 116.441 87.4012 105.678 87.4012C97.6972 87.4012 90.8381 92.2083 87.8243 99.0894C87.0598 98.9576 86.2742 98.888 85.4722 98.888C77.8744 98.888 71.7151 105.059 71.7151 112.672C71.7151 120.285 77.8744 126.456 85.4722 126.456H126.242C131.624 126.456 135.986 122.085 135.986 116.692C135.986 111.3 131.624 106.929 126.242 106.929Z" fill="#F1F380"/>
<path fill-rule="evenodd" clip-rule="evenodd" d="M126.242 106.929C125.878 106.929 125.52 106.949 125.166 106.988C125.166 106.968 125.167 106.949 125.167 106.929C125.167 96.1439 116.441 87.4012 105.678 87.4012C97.6972 87.4012 90.8381 92.2083 87.8243 99.0894C87.0598 98.9576 86.2742 98.888 85.4722 98.888C77.8744 98.888 71.7151 105.059 71.7151 112.672C71.7151 120.285 77.8744 126.456 85.4722 126.456H126.242C131.624 126.456 135.986 122.085 135.986 116.692C135.986 111.3 131.624 106.929 126.242 106.929Z" fill="white" fill-opacity="0.85"/>
</svg>
